<svg width="10" height="10" viewBox="0 0 10 10" fill="none" xmlns="http://www.w3.org/2000/svg">
<path fill-rule="evenodd" clip-rule="evenodd" d="M1.89015 0.910153C1.90196 0.779261 1.93945 0.651981 2.00048 0.53559C2.06152 0.419199 2.14489 0.31598 2.24585 0.231836C2.3468 0.147692 2.46335 0.0842733 2.58884 0.0452056C2.71432 0.00613784 2.84627 -0.00781209 2.97715 0.00415325L8.16215 0.476153C8.29557 0.484511 8.42597 0.519537 8.54562 0.57916C8.66528 0.638784 8.77176 0.721793 8.85878 0.823282C8.9458 0.92477 9.01159 1.04268 9.05225 1.17003C9.09291 1.29738 9.10763 1.43159 9.09552 1.56473C9.08342 1.69787 9.04474 1.82723 8.98178 1.94516C8.91882 2.06309 8.83285 2.1672 8.72896 2.25134C8.62506 2.33547 8.50536 2.39792 8.37691 2.43499C8.24847 2.47205 8.11389 2.48299 7.98115 2.46715L2.79515 1.99715C2.66434 1.98522 2.53717 1.94764 2.4209 1.88655C2.30462 1.82546 2.20152 1.74207 2.11748 1.64112C2.03343 1.54018 1.9701 1.42367 1.9311 1.29825C1.89209 1.17283 1.87818 1.04095 1.89015 0.910153Z" fill="#D9D9D9"/>
<path fill-rule="evenodd" clip-rule="evenodd" d="M8.63314 7.65321C8.36914 7.6771 8.10645 7.5952 7.90281 7.4255C7.69917 7.2558 7.57124 7.01219 7.54714 6.74821L7.07614 1.56221C7.0603 1.42946 7.07123 1.29489 7.1083 1.16644C7.14537 1.038 7.20782 0.918292 7.29195 0.814398C7.37608 0.710505 7.48019 0.624536 7.59813 0.561574C7.71606 0.498612 7.84542 0.459936 7.97856 0.447832C8.11169 0.435729 8.24591 0.450444 8.37326 0.491107C8.50061 0.53177 8.61852 0.597556 8.72001 0.684575C8.8215 0.771594 8.90451 0.878079 8.96413 0.997733C9.02375 1.11739 9.05878 1.24778 9.06714 1.38121L9.53914 6.56621C9.5511 6.69709 9.53715 6.82904 9.49808 6.95452C9.45902 7.08 9.3956 7.19655 9.31145 7.29751C9.22731 7.39846 9.12409 7.48184 9.0077 7.54287C8.89131 7.60391 8.76403 7.6414 8.63314 7.65321Z" fill="#D9D9D9"/>
<path fill-rule="evenodd" clip-rule="evenodd" d="M7.36406 2.17914C7.55153 2.36667 7.65684 2.62098 7.65684 2.88614C7.65684 3.1513 7.55153 3.40561 7.36406 3.59314L1.70806 9.25014C1.52042 9.43778 1.26592 9.5432 1.00056 9.5432C0.735192 9.5432 0.480697 9.43778 0.293056 9.25014C0.105415 9.0625 0 8.808 0 8.54264C0 8.41124 0.0258802 8.28114 0.0761628 8.15974C0.126445 8.03835 0.200146 7.92805 0.293056 7.83514L5.95006 2.17914C6.13758 1.99167 6.39189 1.88635 6.65706 1.88635C6.92222 1.88635 7.17653 1.99167 7.36406 2.17914Z" fill="#D9D9D9"/>
</svg>
