<svg width="189" height="60" viewBox="0 0 189 60" fill="none" xmlns="http://www.w3.org/2000/svg">
<path d="M174.867 50.48C175.267 50.52 175.708 50.48 176.188 50.36C176.787 50.24 177.388 50.04 177.908 49.72C177.988 49.64 178.107 49.6 178.227 49.56C178.947 49.28 179.628 48.84 180.188 48.28C180.307 48.12 180.427 48 180.587 47.84C181.187 47.24 181.627 46.56 181.827 45.72C182.147 44.56 182.467 43.4 182.587 42.16C182.627 41.84 182.548 41.52 182.428 41.24C182.308 40.92 182.228 40.6 182.188 40.28C182.028 39.2 181.827 38.16 181.227 37.2C181.147 37.04 181.068 36.84 180.988 36.64C180.908 36.4 180.867 36.2 180.747 35.96C180.547 35.4 180.227 34.88 179.667 34.56C179.267 34.32 178.867 34.04 178.507 33.72C178.227 33.48 177.867 33.4 177.507 33.36C177.067 33.36 176.668 33.24 176.268 33.04C176.108 32.96 175.908 32.92 175.708 32.88C175.028 32.8 174.387 32.8 173.747 32.6C173.547 32.52 173.347 32.52 173.147 32.52C172.827 32.52 172.508 32.6 172.188 32.68C171.948 32.76 171.707 32.8 171.507 32.8C170.947 32.84 170.427 33 170.027 33.4C169.667 33.68 169.267 33.92 168.947 34.24C168.747 34.4 168.587 34.56 168.427 34.76C168.147 35.28 167.828 35.84 167.548 36.36C166.748 38.12 166.507 38.76 166.107 40.52C165.987 40.88 165.987 41.24 166.067 41.6C166.227 42.48 166.227 43.36 166.107 44.24C166.067 44.6 166.068 45 166.268 45.36C166.508 45.76 166.627 46.24 166.667 46.68C166.747 47.16 166.908 47.6 167.268 47.88C167.388 48 167.508 48.12 167.628 48.24C168.228 49.08 169.067 49.64 169.947 50.2C170.427 50.52 170.947 50.76 171.467 51.04C171.707 51.16 171.907 51.24 172.107 51.24C172.307 51.24 172.508 51.16 172.708 51.04C173.348 50.56 174.067 50.4 174.867 50.48ZM163.387 43.12C163.467 42.52 163.507 41.88 163.587 41.28C163.587 41.08 163.588 40.88 163.548 40.68C163.468 40.2 163.547 39.72 163.747 39.24C164.027 38.56 164.348 37.92 164.628 37.24C164.748 36.88 164.828 36.52 164.988 36.16C165.268 35.6 165.547 35.04 165.827 34.48C165.987 34.24 166.227 34.04 166.427 33.84C166.747 33.44 167.107 33.08 167.467 32.72C167.787 32.28 168.187 31.92 168.747 31.76C169.547 31.24 170.428 30.96 171.188 30.44C171.668 30.12 172.188 30 172.708 30.08C173.388 30.16 174.028 30.28 174.708 30.4C174.828 30.4 174.947 30.44 175.107 30.44C175.507 30.48 175.867 30.6 176.227 30.8C176.387 30.88 176.627 31 176.827 31C177.307 31.08 177.788 31.24 178.188 31.52C178.628 31.8 179.147 31.92 179.667 32.04C180.667 32.28 181.547 32.8 182.107 33.76C182.507 35 183.427 36 183.827 37.2C184.027 37.72 184.148 38.24 184.148 38.76C184.108 38.96 184.188 39.2 184.268 39.36C184.588 39.96 184.587 40.6 184.587 41.24C184.587 41.52 184.627 41.8 184.667 42.08C184.747 42.36 184.748 42.64 184.708 42.96C184.588 43.64 184.508 44.32 184.348 45C184.308 45.36 184.147 45.76 184.027 46.12C183.907 46.48 183.708 46.84 183.628 47.2C183.428 47.88 183.108 48.44 182.628 48.96C182.348 49.2 182.107 49.44 181.867 49.68C181.827 49.76 181.747 49.84 181.667 49.88C181.107 50.12 180.748 50.6 180.268 50.92C179.548 51.4 178.867 52 177.947 52.12C177.787 52.16 177.627 52.24 177.507 52.28C177.107 52.44 176.708 52.56 176.268 52.56C175.948 52.52 175.667 52.68 175.387 52.8C174.867 53.12 174.308 53.32 173.708 53.32C173.468 53.32 173.188 53.28 172.908 53.2C172.748 53.16 172.587 53.12 172.427 53.16C171.987 53.24 171.588 53.16 171.188 53.08C170.587 52.96 170.027 52.84 169.467 52.68C169.107 52.56 168.747 52.36 168.507 52.12C167.907 51.6 167.308 51.08 166.628 50.68C165.988 50.36 165.587 49.84 165.227 49.28C164.827 48.68 164.508 48.08 164.188 47.48C163.908 47.04 163.827 46.52 163.827 46C163.787 45.6 163.748 45.2 163.628 44.84C163.468 44.28 163.387 43.72 163.387 43.12ZM170.587 42.08C170.587 42.16 170.628 42.24 170.628 42.28C170.748 43.36 171.467 44.52 172.107 45.4C172.307 45.72 172.667 45.88 173.067 45.88C173.867 45.8 174.668 45.64 175.268 45.08C175.788 44.6 176.227 44.12 176.747 43.64C176.907 43.48 176.947 43.28 176.947 43.04C176.947 42.8 176.947 42.52 177.027 42.28C177.147 41.8 177.027 41.36 176.827 40.96C176.627 40.64 176.468 40.36 176.348 40.04C175.988 39.28 175.627 38.6 175.107 37.96C174.867 37.68 174.587 37.52 174.188 37.52C173.908 37.56 173.667 37.6 173.387 37.6C173.107 37.6 172.828 37.6 172.548 37.56C172.188 37.52 171.947 37.6 171.707 37.88C171.347 38.2 171.027 38.56 170.947 39.08C170.907 39.32 170.747 39.52 170.667 39.76C170.347 40.52 170.547 41.28 170.587 42.08ZM168.507 42.72C168.587 41.68 168.708 40.6 168.988 39.6C169.028 39.4 169.148 39.24 169.268 39.04C169.388 38.84 169.547 38.64 169.707 38.4C169.947 38.04 170.227 37.72 170.427 37.32C170.547 37.04 170.827 36.84 171.067 36.56C171.347 36.28 171.627 35.96 171.867 35.64C172.227 35.2 172.708 35.04 173.268 35.08C174.148 35.16 175.267 35.28 175.947 35.88C176.507 36.4 177.028 36.92 177.548 37.48C177.828 37.76 178.108 38.08 178.348 38.44C178.588 38.76 178.707 39.12 178.787 39.52C178.827 39.92 178.867 40.32 178.947 40.72C179.027 41.08 179.028 41.44 178.908 41.8C178.828 42.08 178.787 42.4 178.747 42.72C178.707 43.32 178.707 43.88 178.667 44.48C178.667 44.84 178.547 45.2 178.307 45.52C177.347 46.92 176.028 47.92 174.268 47.92C173.788 47.96 173.308 47.76 172.827 47.68C172.467 47.56 172.067 47.48 171.707 47.36C170.467 46.96 169.307 45.72 169.067 44.44C168.987 44.16 168.827 43.88 168.707 43.64C168.547 43.36 168.467 43.04 168.507 42.72Z" fill="#1A1F1D"/>
<path d="M158.582 34.68C158.422 34.68 158.302 34.64 158.182 34.68C157.622 34.8 157.102 34.92 156.582 35.08C156.222 35.2 155.902 35.76 155.942 36.16C155.982 36.4 155.942 36.64 155.942 36.88C155.942 37.48 155.942 38.12 155.942 38.72C155.982 39.28 155.942 39.8 155.982 40.32C155.982 41.2 156.062 42.08 156.222 42.96C156.222 43.08 156.262 43.24 156.222 43.36C156.102 44.12 156.102 44.84 155.982 45.6C155.862 46.28 155.902 46.92 155.942 47.6C155.982 48.12 156.022 48.64 155.942 49.2C155.862 49.56 155.902 50 155.942 50.4C155.942 50.68 156.142 50.8 156.462 50.76C156.542 50.72 156.622 50.72 156.742 50.68C157.262 50.56 157.782 50.48 158.302 50.6C158.462 50.64 158.622 50.6 158.822 50.6C158.782 50.48 158.782 50.36 158.742 50.28C158.582 49.64 158.462 49 158.502 48.36C158.542 47.84 158.542 47.36 158.542 46.88C158.582 46.48 158.662 46.12 158.662 45.76C158.702 45.52 158.662 45.28 158.662 45.04C158.662 44.84 158.582 44.6 158.582 44.4C158.582 43.96 158.662 43.56 158.702 43.12C158.742 42.76 158.862 42.36 158.782 42C158.622 41.12 158.902 40.24 158.862 39.32C158.862 38.96 158.942 38.6 158.862 38.24C158.702 37.64 158.702 37.04 158.782 36.44C158.902 35.84 158.742 35.28 158.582 34.68ZM158.142 52.8C157.702 52.8 157.182 52.84 156.662 52.68C156.302 52.6 155.982 52.68 155.662 52.72C155.382 52.8 155.062 52.8 154.782 52.68C154.062 52.4 153.702 51.8 153.822 51.08C153.982 50.44 153.902 49.84 153.822 49.24C153.702 48.52 153.582 47.76 153.742 47.04C153.862 46.48 153.702 45.96 153.742 45.44C153.782 45.16 153.782 44.84 153.902 44.56C154.022 44.2 154.102 43.84 154.102 43.44C154.062 42.88 154.102 42.32 154.142 41.76C154.182 41.2 154.062 40.68 153.982 40.12C153.942 39.72 153.902 39.32 153.982 38.92C154.142 38.16 154.262 37.36 154.262 36.6C154.262 36.36 154.302 36.16 154.342 35.96C154.422 35.64 154.382 35.36 154.262 35.08C154.142 34.72 154.022 34.32 153.982 33.96C153.862 33.12 154.422 32.44 155.222 32.32C155.302 32.32 155.382 32.32 155.462 32.32C155.782 32.32 156.062 32.36 156.342 32.36C156.742 32.4 157.142 32.4 157.542 32.4C157.902 32.44 158.222 32.36 158.542 32.36C158.942 32.4 159.342 32.4 159.742 32.44C160.062 32.52 160.302 32.68 160.422 32.96C160.462 33.12 160.542 33.24 160.582 33.4C160.662 33.96 160.742 34.52 160.782 35.08C160.822 35.28 160.782 35.48 160.782 35.68C160.742 36.32 160.742 36.96 160.742 37.6C160.742 37.84 160.822 38.04 160.862 38.28C160.862 38.44 160.862 38.64 160.862 38.84C160.862 39.12 160.782 39.36 160.862 39.64C160.942 40.2 160.942 40.76 160.822 41.32C160.822 41.52 160.822 41.68 160.862 41.88C160.902 42.32 160.902 42.76 160.742 43.16C160.622 43.48 160.622 43.8 160.662 44.16C160.702 44.44 160.662 44.72 160.662 44.96C160.662 45.2 160.622 45.4 160.662 45.6C160.742 46.04 160.782 46.48 160.662 46.92C160.502 47.6 160.582 48.28 160.782 48.92C161.022 49.76 160.982 50.6 160.782 51.44C160.542 52.28 159.862 52.8 158.902 52.8C158.662 52.76 158.462 52.8 158.142 52.8ZM156.062 25.48C155.782 25.64 155.782 25.84 155.822 26.08C155.862 26.52 156.022 26.96 156.262 27.32C156.342 27.48 156.542 27.64 156.702 27.64C157.102 27.64 157.542 27.6 157.942 27.52C158.222 27.44 158.302 27.2 158.142 27C158.062 26.84 157.902 26.72 157.742 26.64C157.142 26.32 156.462 26.12 156.062 25.48ZM156.422 24.2C156.622 24.2 156.822 24.2 156.982 24.16C157.742 24.04 158.382 24.24 158.982 24.6C159.342 24.88 159.782 25.04 160.062 25.44C160.582 26.12 160.622 27.12 160.102 27.84C159.942 28.04 159.782 28.28 159.702 28.52C159.422 29.24 158.662 29.8 157.782 29.8C157.582 29.8 157.342 29.76 157.102 29.68C156.422 29.48 155.782 29.2 155.142 28.92C154.342 28.52 154.022 27.88 154.142 27C154.262 26.52 154.382 26 154.702 25.64C154.782 25.56 154.822 25.4 154.902 25.32C155.022 25.08 155.142 24.88 155.262 24.68C155.542 24.28 155.942 24.08 156.422 24.2Z" fill="#1A1F1D"/>
<path d="M148.01 51.76V51.8C148.29 51.76 148.61 51.76 148.89 51.68C149.13 51.64 149.29 51.44 149.25 51.2C149.21 50.8 149.17 50.4 149.05 50.04C148.93 49.6 148.93 49.2 148.97 48.76C149.01 48.4 149.05 48 149.05 47.64C149.05 47.24 149.05 46.88 149.17 46.48C149.21 46.4 149.21 46.28 149.17 46.16C149.17 45.6 149.13 45.04 149.09 44.48C149.09 44 149.09 43.56 149.09 43.08C149.13 42.52 149.17 42 149.17 41.44C149.17 41.12 149.21 40.8 149.37 40.52C149.49 40.28 149.45 40.08 149.41 39.88C149.37 39.64 149.37 39.4 149.37 39.2C149.45 38.84 149.41 38.48 149.25 38.16C149.05 37.68 149.01 37.16 149.01 36.64C149.05 36.2 149.09 35.76 149.09 35.32C149.13 34.96 149.17 34.6 149.25 34.24C149.33 33.76 149.41 33.28 149.21 32.8C148.97 32.16 149.01 31.52 149.09 30.84C149.09 30.76 149.13 30.64 149.09 30.52C148.97 29.96 148.81 29.4 148.73 28.8C148.65 28.48 148.65 28.16 148.65 27.84C148.69 27.36 148.57 27 148.37 26.6C148.37 26.52 148.29 26.48 148.25 26.44C147.81 26.24 147.37 26.04 146.85 26.04C146.65 26.04 146.49 26.16 146.45 26.32C146.25 26.84 146.13 27.36 146.13 27.92C146.13 28.56 146.21 29.2 146.21 29.8C146.17 30.32 146.21 30.8 146.33 31.32C146.37 31.6 146.45 31.92 146.41 32.2C146.41 33 146.01 34.92 144.93 34.92C144.61 34.92 144.25 34.76 144.09 34.48C143.81 34.08 143.45 33.92 143.09 33.88C142.37 33.72 141.65 33.68 140.93 33.6C140.77 33.56 140.61 33.6 140.45 33.68C139.97 33.8 139.49 33.96 139.05 34.12C138.77 34.24 138.57 34.36 138.33 34.44C138.09 34.56 137.85 34.68 137.65 34.8C137.41 34.92 137.21 35 137.01 35.16C136.85 35.28 135.89 35.96 135.77 36.12C135.45 36.4 135.17 36.72 134.85 37.04C134.77 37.16 134.65 37.32 134.61 37.44C134.13 38.36 133.69 39.28 133.21 40.2C133.01 40.68 132.81 41.76 132.89 42.28C132.97 42.68 133.09 43.04 133.09 43.44C133.09 44.08 133.13 44.68 133.33 45.24C133.33 45.28 133.33 45.32 133.33 45.32C133.29 45.76 133.57 46.04 133.81 46.32C134.01 46.56 134.21 46.8 134.37 47.08C134.65 47.48 134.93 47.88 135.21 48.28C135.33 48.44 135.49 48.6 135.57 48.84C135.93 49.92 137.33 50.96 138.49 50.96C139.85 50.88 141.01 50.4 141.97 49.44C142.29 49.12 142.61 48.84 142.97 48.6C143.29 48.4 143.49 48.16 143.69 47.88C143.93 47.44 144.45 46.92 145.01 46.92C145.85 46.92 146.45 48 146.45 48.76C146.45 49.24 146.53 49.72 146.77 50.16C146.85 50.28 146.89 50.44 146.93 50.6C146.97 50.84 147.01 51.08 147.01 51.32C147.05 51.72 147.09 51.76 147.45 51.76C147.65 51.76 147.81 51.76 148.01 51.76ZM144.21 30C144.17 29.44 144.17 28.92 144.13 28.4C144.09 28.04 144.17 27.68 144.37 27.32C144.53 27 144.57 26.64 144.53 26.28C144.45 25.48 144.73 24.84 145.41 24.36C146.01 24 146.89 23.92 147.57 23.92C148.85 24 149.77 24.12 150.33 25.36C150.57 26 150.65 26.68 150.57 27.4C150.49 27.88 150.57 28.36 150.65 28.88C150.69 29.28 150.89 29.64 150.93 30.04C151.01 30.56 151.01 31.08 151.05 31.6C151.05 31.96 151.05 32.32 151.13 32.68C151.21 33 151.17 33.36 151.09 33.68C151.01 33.92 151.01 34.2 151.09 34.44C151.21 34.88 151.21 35.32 151.13 35.76C151.13 35.84 151.13 35.92 151.17 36C151.17 36.24 151.21 36.52 151.21 36.76C151.21 37.28 151.17 37.8 151.13 38.32C151.09 38.44 151.09 38.6 151.01 38.72C150.69 39.2 150.73 39.68 150.89 40.16C151.21 41.08 151.25 42.04 151.13 43C151.05 43.6 150.97 44.24 150.85 44.84C150.81 45.08 150.77 45.32 150.65 45.52C150.53 45.8 150.53 46.08 150.65 46.32C150.97 47.04 150.93 47.76 150.85 48.52C150.77 48.96 150.85 49.36 150.89 49.8C151.01 50.32 151.09 50.8 150.97 51.32C150.93 51.6 150.97 51.88 150.97 52.16C150.93 53.16 150.25 53.4 149.41 53.4C149.09 53.4 148.77 53.36 148.45 53.32C147.93 53.2 147.45 53.36 146.97 53.52C146.81 53.6 146.61 53.68 146.41 53.68C145.97 53.68 145.61 53.44 145.49 53C145.37 52.64 145.25 52.32 145.17 51.92C145.09 51.76 145.13 51.52 145.09 51.32C145.09 50.96 145.05 50.64 145.01 50.28C145.01 50.24 145.01 50.2 145.01 50.16C144.89 50.04 144.81 49.84 144.65 49.8C144.61 49.76 144.41 49.92 144.33 50.04C144.25 50.08 144.21 50.12 144.17 50.2C143.73 51.08 142.69 51.6 141.81 52.04C141.21 52.36 140.61 52.64 140.01 52.96C139.89 53 139.69 53.08 139.53 53.08C138.85 53.12 138.17 53.12 137.53 52.92C137.01 52.8 136.53 52.72 136.01 52.6C135.13 52.36 134.45 51.88 134.09 51.04C133.81 50.44 133.41 49.92 133.01 49.44C132.49 48.84 132.09 48.2 131.89 47.44C131.85 47.32 131.81 47.16 131.73 47.04C131.41 46.48 131.33 45.8 131.29 45.16C131.25 44.88 131.21 44.6 131.09 44.32C130.85 43.8 130.73 43.24 130.81 42.64C130.89 42.12 130.93 41.6 130.89 41.12C130.85 40.84 130.93 40.56 130.97 40.28C131.01 40.12 131.09 39.96 131.09 39.8C131.13 38.96 131.57 38.32 132.17 37.88C132.81 37.44 133.05 36.8 133.33 36.2C133.49 35.8 133.69 35.52 134.01 35.28C134.41 34.96 134.81 34.64 135.09 34.2C135.41 33.76 136.05 33.4 136.53 33.16C136.85 32.88 137.25 32.72 137.69 32.64C137.97 32.56 138.29 32.48 138.53 32.32C139.05 32.04 139.57 31.96 140.13 31.96C140.61 31.96 141.09 32 141.57 32.08C141.77 32.08 142.01 32.16 142.21 32.2C142.57 32.36 142.89 32.48 143.29 32.4C143.61 32.32 143.77 32.16 143.89 31.84C144.09 31.24 144.25 30.64 144.21 30ZM138.41 43.12C138.41 43.32 138.41 43.48 138.41 43.68C138.45 43.76 138.49 43.92 138.57 43.96C138.93 44.16 139.29 44.4 139.69 44.4C140.41 44.4 141.41 43.88 141.97 43.48C142.37 43.16 142.49 42.72 142.29 42.24C142.13 41.88 141.93 41.52 141.77 41.12C141.49 40.76 141.13 40.76 140.69 40.76C140.01 40.76 139.01 40.8 138.73 41.56C138.53 42.04 138.37 42.56 138.41 43.12ZM139.85 38.68C140.53 38.76 141.21 38.88 141.93 38.96C142.09 38.96 142.29 38.96 142.45 38.96C143.13 38.88 143.65 39.16 143.85 39.8C143.85 39.84 143.85 39.88 143.85 39.92C144.09 41 144.37 42.08 144.33 43.2C144.33 43.84 144.09 44.32 143.65 44.72C143.49 44.84 143.33 45 143.21 45.16C142.53 46 141.69 46.52 140.61 46.52C139.81 46.52 138.93 46.36 138.17 46.16C136.77 45.8 136.17 44.92 136.01 43.48C135.97 43.16 136.05 42.8 136.17 42.48C136.29 42.16 136.37 41.8 136.37 41.48C136.33 40.6 136.69 39.92 137.45 39.52C137.53 39.44 137.61 39.4 137.69 39.36C138.33 38.84 139.05 38.68 139.85 38.68Z" fill="#1A1F1D"/>
<path d="M116.905 32.08C116.785 32.12 116.625 32.2 116.545 32.32C116.385 32.56 116.225 32.84 116.265 33.16C116.385 33.92 116.425 34.56 116.425 35.28C116.425 35.72 116.385 36.12 116.385 36.56C116.345 36.92 116.385 37.28 116.345 37.64C116.225 38.2 116.265 38.72 116.305 39.24C116.385 39.72 116.345 40.16 116.105 40.52C115.945 40.76 115.945 41 115.985 41.24C116.065 41.8 116.185 42.36 116.065 42.96C116.025 43.04 116.065 43.12 116.065 43.2C116.065 44.68 115.545 45.88 114.185 46.64C113.465 47 112.505 47.44 111.705 47.44C110.665 47.44 109.105 46.68 108.465 45.92C107.745 45.16 107.465 44.28 107.345 43.32C107.265 42.64 107.305 41.92 107.065 41.28C106.905 40.8 106.905 40.36 106.985 39.88C107.065 39.52 107.105 39.2 107.065 38.84C106.945 38.04 106.905 37.2 107.145 36.4C107.225 36.16 107.185 35.88 107.145 35.64C107.145 35.24 107.065 34.84 107.065 34.48C107.065 33.84 107.145 33.24 107.185 32.6C107.185 32.44 107.185 32.24 106.985 32.12C106.745 32 106.505 31.84 106.265 31.76C105.825 31.68 105.305 31.88 105.265 32.48C105.265 32.68 105.225 32.84 105.185 33C105.105 33.56 104.985 34.08 104.905 34.6C104.865 35.12 104.825 35.68 104.705 36.16C104.665 36.44 104.585 36.72 104.585 37.04C104.545 37.44 104.545 37.84 104.465 38.2C104.425 38.52 104.425 38.8 104.505 39.08C104.625 39.4 104.705 39.8 104.705 40.12C104.665 40.72 104.625 41.28 104.545 41.84C104.505 42.32 104.345 42.84 104.305 43.36C104.225 44.24 104.465 45.08 104.585 45.92C104.665 46.32 104.745 46.68 104.785 47.04C104.825 47.6 104.905 48.16 105.265 48.64C105.385 48.8 105.425 49 105.505 49.16C106.065 50.16 106.865 50.72 107.985 51C108.305 51.08 108.665 51.16 108.945 51.32C109.225 51.48 109.505 51.52 109.825 51.52C110.585 51.52 112.265 51.24 112.945 51H112.985C113.225 50.92 113.505 50.88 113.745 50.8C114.065 50.68 114.385 50.52 114.745 50.36C115.585 50.04 116.145 49.44 116.425 48.56C116.625 47.92 117.025 47.28 117.785 47.28C118.585 47.28 119.105 48.12 119.105 48.84C119.065 49.2 119.145 49.52 119.385 49.8C119.425 49.84 119.425 49.88 119.465 49.96C119.865 50.76 120.545 51.16 121.425 51.24C122.185 51.32 122.945 51.36 123.705 51.6C123.825 51.64 124.025 51.64 124.185 51.64C124.385 51.6 124.625 51.56 124.785 51.6C125.305 51.72 125.745 51.52 126.225 51.4C126.425 51.36 126.465 51.2 126.465 51.04C126.425 50.84 126.385 50.64 126.385 50.44C126.345 49.88 126.345 49.32 126.385 48.76C126.385 48.32 126.225 48.2 125.785 48.28C125.665 48.32 125.545 48.36 125.385 48.36C125.065 48.36 124.745 48.4 124.465 48.36C122.945 48.08 120.825 47.2 120.545 45.48C120.505 45.24 120.425 44.96 120.345 44.72C120.225 44.2 120.225 43.72 120.385 43.24C120.505 42.72 120.505 42.24 120.385 41.76C120.265 41.32 120.145 40.88 120.265 40.44C120.305 40.36 120.265 40.24 120.265 40.16C120.225 39.72 120.145 39.24 120.105 38.8C120.105 38.12 120.185 37.48 120.185 36.8C120.145 36.28 120.145 35.8 120.105 35.28C120.065 35.08 120.025 34.92 120.025 34.76C120.025 33.92 119.785 33.16 119.705 32.36C119.665 32.16 119.545 32.04 119.305 32.04C118.505 32.04 117.745 31.92 116.905 32.08ZM117.705 50.64C117.265 51.04 116.905 51.36 116.545 51.72C115.865 52.36 115.105 52.8 114.145 52.84C113.745 52.88 113.385 53.04 112.985 53.2C112.065 53.56 110.905 53.8 109.905 53.8C108.625 53.8 107.265 53.24 106.145 52.68C105.865 52.52 105.625 52.36 105.345 52.24C104.905 52.04 104.625 51.72 104.385 51.32C104.185 51 103.985 50.68 103.705 50.44C103.305 50.04 103.065 49.6 102.945 49.08C102.625 48.08 102.345 47.04 102.025 46C101.785 45.24 101.825 44.48 101.985 43.72C102.105 43.08 102.145 42.48 102.105 41.84C102.025 41.2 102.265 40.56 102.425 39.96C102.545 39.48 102.545 39 102.505 38.48C102.465 38.04 102.425 37.56 102.465 37.08C102.465 36.44 102.585 35.8 102.665 35.16C102.705 34.64 102.705 34.08 102.545 33.6C102.345 33 102.385 32.4 102.585 31.84C102.665 31.6 102.705 31.4 102.745 31.16C102.825 30.92 102.945 30.72 103.185 30.6C103.505 30.44 103.865 30.28 104.265 30.32C104.345 30.32 104.465 30.32 104.585 30.28C105.625 30.08 106.665 30.16 107.745 30.12C107.865 30.12 108.025 30.16 108.145 30.16C108.745 30.28 109.065 30.6 109.225 31.2C109.265 31.48 109.385 31.76 109.425 32.08C109.465 32.48 109.505 32.88 109.505 33.28C109.505 33.56 109.465 33.84 109.425 34.12C109.385 34.48 109.385 34.84 109.385 35.2C109.345 35.92 109.305 36.68 109.265 37.44C109.265 37.76 109.185 38.12 109.105 38.44C109.025 38.76 109.025 39.08 109.145 39.36C109.465 40.08 109.385 40.84 109.305 41.6C109.265 42.12 109.265 42.6 109.465 43.12C109.625 43.48 109.745 43.84 109.865 44.2C110.065 44.8 110.465 45.24 111.145 45.36C111.265 45.36 111.465 45.4 111.625 45.36C112.065 45.24 112.465 45.12 112.905 45C113.785 44.72 114.025 43.16 114.105 42.4C114.145 42.12 114.185 41.84 114.265 41.56C114.345 41.16 114.345 40.76 114.345 40.36C114.305 39.84 114.305 39.32 114.425 38.8C114.505 38.24 114.545 37.68 114.505 37.12C114.425 36.56 114.425 36 114.505 35.44C114.585 34.64 114.585 33.88 114.465 33.08C114.385 32.52 114.345 32 114.345 31.44C114.345 30.56 114.985 29.88 115.865 29.8C116.185 29.76 116.505 29.76 116.785 29.72C117.145 29.72 117.545 29.68 117.905 29.64C118.545 29.6 119.185 29.52 119.825 29.48C120.905 29.44 121.665 30.04 121.945 31.08C122.265 32.08 122.345 33.12 122.265 34.16C122.225 34.72 122.225 35.28 122.185 35.84C122.145 36.32 122.345 36.8 122.505 37.24C122.745 38 122.745 38.72 122.545 39.48C122.425 39.92 122.385 40.36 122.425 40.8C122.465 41.36 122.385 41.92 122.305 42.48C122.265 42.84 122.265 43.16 122.385 43.48C122.545 43.8 122.665 44.16 122.785 44.48C122.985 44.92 123.225 45.28 123.585 45.56C123.825 45.72 124.025 45.84 124.305 45.84C124.545 45.88 124.785 45.92 125.025 45.96C125.465 46.04 125.825 46 126.225 45.88C126.425 45.8 126.625 45.76 126.825 45.76C127.545 45.76 128.305 46.28 128.385 47C128.385 47.28 128.425 47.52 128.385 47.8C128.265 48.24 128.265 48.68 128.305 49.16C128.305 49.24 128.305 49.36 128.345 49.44C128.505 49.92 128.545 50.4 128.545 50.92C128.545 51.16 128.545 51.4 128.585 51.68C128.745 52.52 128.505 53.12 127.505 53.36C126.785 53.52 126.065 53.72 125.345 53.92C125.145 53.96 124.945 54 124.745 54C124.465 54 124.225 53.96 123.985 53.84C123.545 53.64 123.105 53.6 122.625 53.56C122.265 53.56 121.905 53.52 121.585 53.44C120.945 53.32 120.305 53.12 119.665 52.96C118.905 52.76 118.465 52.16 118.145 51.48C117.985 51.24 117.865 50.96 117.705 50.64Z" fill="#1A1F1D"/>
<path d="M89.8147 50.88C90.6947 50.92 91.5747 50.96 92.4947 51C92.7347 51 92.8147 50.84 92.8547 50.64C92.8947 50.44 92.9347 50.24 92.9747 50.04C92.9747 49.84 93.0147 49.6 92.9747 49.44C92.7347 48.6 92.7347 47.8 92.8547 47C92.8547 46.44 92.7747 45.8 92.6547 45.24C92.5347 44.72 92.6147 44.16 92.5347 43.64C92.4947 42.84 92.4147 42 92.2947 41.16C92.1747 40.32 92.0547 39.52 92.2947 38.68C92.4147 38.32 92.2947 38 92.1747 37.68C92.0947 37.48 91.9747 37.28 91.8947 37.04C91.6947 36.48 91.8147 35.92 92.1347 35.44C92.4947 34.8 93.1347 34.64 93.8147 34.76C94.3747 34.84 94.9347 34.88 95.5347 34.92C95.8947 34.92 96.2147 34.88 96.5747 34.88C96.9347 34.84 97.0547 34.72 97.0947 34.4C97.1347 34.24 97.1747 34.04 97.1747 33.88C97.2147 33.52 97.2947 33.16 97.2947 32.84C97.3347 32.44 97.1347 32.16 96.7747 32.08C96.4947 32.04 96.2147 31.96 95.9747 32C95.0147 32 93.3347 31.8 93.0547 30.68C92.8547 30.08 92.6947 29.44 92.8547 28.76C92.9747 28.12 92.8147 27.48 92.6547 26.88C92.6147 26.72 92.4947 26.6 92.3347 26.6C91.8547 26.64 91.4147 26.64 90.9347 26.68C90.6147 26.68 90.2947 26.68 90.0147 26.64C89.5747 26.64 89.4147 26.76 89.3747 27.16C89.3347 27.4 89.3347 27.6 89.3747 27.84C89.5347 28.44 89.5347 29.08 89.5347 29.72C89.5347 29.96 89.5347 30.2 89.4547 30.44C89.2147 31.2 88.5747 31.52 87.7347 31.44C87.3347 31.4 86.9347 31.32 86.5347 31.36C86.0947 31.44 85.6547 31.64 85.1747 31.8C84.9347 31.88 84.8147 32.08 84.7747 32.36C84.6147 33.08 84.7747 33.76 85.1747 34.4C85.2147 34.52 85.3347 34.64 85.4947 34.72C86.3347 35.08 86.8547 35.24 87.7747 35.24C88.3747 35.24 88.7747 35.6 88.8947 36.2C88.9347 36.48 88.8947 36.72 88.8547 37C88.7347 37.8 88.6147 38.6 88.8547 39.4C88.9747 39.88 88.9747 40.36 88.8947 40.84C88.8947 40.96 88.8547 41.12 88.8947 41.24C89.0147 42.24 89.1747 43.2 89.2947 44.2C89.3747 44.6 89.3347 45 89.3347 45.4C89.3347 45.84 89.2947 46.24 89.2947 46.68C89.2947 47.52 89.3347 48.4 89.3747 49.24C89.4147 49.84 89.5747 50.36 89.8147 50.88ZM84.1747 37.16C83.8947 37.16 83.6147 37.16 83.3747 37.08C82.5347 36.84 82.0947 36 82.3347 35.16C82.4147 34.84 82.4947 34.56 82.6147 34.24C82.9747 33.6 83.0147 32.88 83.0547 32.16C83.0947 31.72 83.0547 31.24 83.0947 30.8C83.1347 30.6 83.1747 30.36 83.2547 30.2C83.4147 29.8 83.6947 29.64 84.0947 29.56C84.6947 29.48 85.3347 29.4 85.9747 29.28C87.1347 29.12 87.3747 28.48 87.3747 27.4C87.3747 26.8 87.3747 26.24 87.4547 25.68C87.5747 25 87.9747 24.68 88.6547 24.56C89.4147 24.44 90.1747 24.32 90.9347 24.2C91.2547 24.16 91.5747 24.12 91.9347 24.12C92.3347 24.12 92.7347 24.16 93.1347 24.32C93.4147 24.44 93.7347 24.48 94.0547 24.56C94.6947 24.68 94.9747 25.04 94.9747 25.68C94.9347 26 94.8947 26.28 94.8147 26.6C94.7747 26.8 94.6947 26.96 94.6547 27.16C94.5347 27.52 94.5347 27.88 94.7347 28.28C94.9747 28.6 95.0947 29 95.1347 29.4C95.1747 29.8 95.2947 29.92 95.7347 29.88C96.1347 29.84 96.5347 29.76 96.9747 29.72C97.2947 29.68 97.6147 29.64 97.9347 29.64C98.7747 29.64 99.4147 30.28 99.3747 31.12C99.3747 31.48 99.2547 31.8 99.1747 32.16C99.0947 32.44 99.0547 32.68 99.0947 32.96C99.1747 33.28 99.1347 33.64 99.1347 33.96C99.1747 34.4 99.1747 34.84 99.2147 35.24C99.3347 36.08 98.8947 36.64 98.1347 36.8C97.5747 36.92 96.9747 36.96 96.4147 37.04C96.3347 37.04 96.2547 37.04 96.1747 37.04C95.6947 37.04 95.2547 37.04 94.8147 37.08C94.4147 37.08 94.2947 37.28 94.3347 37.68C94.3747 38.6 94.4547 39.52 94.4547 40.44C94.4547 41.36 94.5747 42.32 94.6547 43.24C94.7347 44.08 94.7747 44.96 94.6547 45.8C94.5747 46.24 94.6547 46.76 94.7347 47.2C94.8947 47.96 94.9347 48.68 94.8147 49.44C94.7747 49.68 94.8547 49.92 94.8947 50.16C95.0947 50.92 94.9347 51.64 94.5747 52.32C94.3747 52.68 94.0947 52.92 93.6947 52.96C92.7747 53.08 91.8947 53.24 90.9747 53.28C90.3747 53.28 89.7747 53.32 89.1347 53.4C88.5747 53.44 88.0547 53.28 87.6947 52.76C87.3747 52.44 87.2947 51.44 87.2947 51.04C87.2547 50.28 87.2147 49.56 87.0547 48.84C86.9347 48.24 86.8947 47.64 86.8547 47.08C86.7747 46.12 86.6947 45.16 86.6547 44.2C86.5747 43.32 86.4947 42.48 86.6947 41.6C86.7747 41.2 86.6547 40.84 86.5347 40.44C86.3347 39.96 86.2547 39.48 86.2947 38.96C86.3347 38.6 86.2947 38.24 86.2947 37.92C86.2947 37.56 86.2547 37.48 85.9347 37.4C85.3747 37.24 84.7747 37.08 84.1747 37.16Z" fill="#1A1F1D"/>
<path d="M74.8003 33.28C74.8003 33.12 74.7603 33 74.7203 32.92C74.5203 32.36 74.3203 31.8 74.1203 31.24C73.9203 30.76 73.7203 30.72 73.2803 30.92C72.5203 31.32 71.7203 31.68 70.8803 31.8C70.7203 31.84 70.5603 31.92 70.4003 32C69.7603 32.48 69.0803 32.92 68.4803 33.4C68.2403 33.56 68.0803 33.8 67.9603 34.04C67.6003 34.84 67.2803 35.64 66.9603 36.44C66.8803 36.64 66.8803 36.84 66.8803 37.04C66.9603 37.56 67.0403 38.12 67.1603 38.6C67.2403 39 67.2803 39.44 67.6003 39.72C68.0003 40.12 68.4403 40.48 68.8803 40.84C69.0003 40.96 69.1603 41.08 69.3603 41.12C69.9603 41.28 70.5603 41.44 71.1603 41.56C71.5203 41.68 71.8803 41.64 72.2003 41.8C72.9603 42.12 73.4403 42.72 73.7203 43.48C74.0003 44.32 73.9203 45.2 73.7603 46.08C73.6803 46.52 73.4003 46.92 73.0403 47.2C72.7203 47.44 72.4403 47.68 72.1203 47.92C72.0003 48 71.8803 48.12 71.7603 48.12C71.1603 48.28 70.6003 48.44 70.0003 48.56C69.4403 48.64 68.8803 48.68 68.3603 48.8C67.9203 48.84 67.8803 48.92 67.9603 49.32C68.1203 50.04 68.3203 50.72 68.4803 51.44C68.5603 51.72 68.8003 51.88 69.0803 51.92C69.4403 51.92 69.8003 51.92 70.1603 51.92C70.3603 51.92 70.5603 51.92 70.7603 51.96C71.6403 52.12 72.3603 51.68 72.9603 51.16C73.6403 50.56 74.2403 49.88 75.0403 49.52C76.0803 49.04 76.6403 48.16 77.1603 47.24C77.3203 46.88 77.4803 46.52 77.7603 46.24C77.9203 46.04 78.0003 45.84 78.0003 45.56C78.0003 45.28 78.0003 45 78.0003 44.72C78.0803 44.16 78.0803 43.64 77.7603 43.12C77.2803 42.4 77.0003 41.56 76.4403 40.88C76.2003 40.52 75.8803 40.28 75.4403 40.2C75.0403 40.16 74.6803 40 74.3203 39.8C74.1603 39.68 73.9203 39.56 73.7203 39.6C73.0803 39.6 72.5603 39.36 72.0803 39C71.7603 38.8 71.4403 38.68 71.1203 38.56C71.0003 38.56 70.8803 38.52 70.8003 38.48C69.8003 38.16 69.3203 37.48 69.3203 36.48V36.16C69.3203 35.36 69.7203 34.8 70.5203 34.52C71.0803 34.32 71.6403 34.16 72.2003 33.92C72.9203 33.68 73.6403 33.4 74.4003 33.36C74.5203 33.36 74.6403 33.32 74.8003 33.28ZM71.7203 36.36C71.8803 36.64 72.0403 36.8 72.2803 36.8C73.1203 36.8 73.8403 37.16 74.4003 37.76C74.6803 38.04 75.0003 38.2 75.4003 38.24C75.6403 38.28 75.8803 38.36 76.1203 38.44C76.6803 38.56 77.0803 38.88 77.4803 39.32C77.6803 39.56 77.9203 39.76 78.1603 40C78.8803 40.68 79.7203 41.72 79.8803 42.72C80.0003 43.64 80.0003 44.56 79.9603 45.48C79.9603 45.64 79.9203 45.84 79.8403 46C79.6403 46.36 79.5203 46.72 79.4803 47.12C79.4003 47.76 79.0803 48.32 78.6803 48.84C78.3203 49.2 78.0403 49.64 77.7203 50.04C77.6803 50.12 77.6403 50.16 77.5603 50.24C77.1203 50.64 76.6803 51.12 76.3203 51.6C76.0803 51.88 75.7203 52.04 75.4003 52.24C75.1203 52.4 74.8003 52.56 74.5203 52.72C73.4003 53.52 72.1603 54.12 70.7603 54.28C70.4403 54.32 70.0803 54.28 69.7203 54.2C69.0403 54.04 68.3603 53.84 67.6403 53.72C66.5203 53.64 66.0403 51.36 66.0403 50.48C66.0403 50.24 65.9203 50 65.7603 49.84C65.3603 49.32 65.2003 48.76 65.2803 48.12C65.4003 47.44 65.7603 47.04 66.4003 46.88C67.0003 46.72 67.6003 46.6 68.2403 46.48C68.6403 46.4 69.0803 46.44 69.4803 46.4C69.9203 46.32 70.4003 46.24 70.8403 46.12C71.3603 46 71.8003 45.4 71.8003 44.92C71.7603 44.36 71.3603 43.88 70.7603 43.8C70.1603 43.68 69.5603 43.6 68.9603 43.48C67.5603 43.24 66.6003 42.4 65.8803 41.24C65.6003 40.8 65.3603 40.4 65.0803 39.96C64.6403 39.4 64.4803 38.8 64.5203 38.08C64.5603 37.68 64.5603 37.24 64.6403 36.8C64.7203 36.08 64.8403 35.32 65.0003 34.6C65.1203 33.96 65.4403 33.4 65.9203 32.96C66.1603 32.72 66.4003 32.44 66.6403 32.16C66.8803 31.88 67.2003 31.64 67.5203 31.48C67.7603 31.36 68.0003 31.2 68.2003 31C68.5603 30.64 69.0403 30.48 69.5203 30.28C70.0803 30.08 70.6403 29.88 71.2003 29.64C71.8403 29.4 72.5203 29.36 73.1603 29.4C73.4003 29.4 73.6003 29.36 73.7603 29.28C74.1603 29.04 74.6003 28.96 75.0403 29C76.3203 29 77.2403 31.36 77.3203 32.4C77.3603 33.04 77.3603 33.64 77.4003 34.24C77.4003 34.6 77.3603 34.96 77.1603 35.28C76.8403 35.8 76.3203 36.04 75.7203 35.92C75.2803 35.8 74.8003 35.76 74.3603 35.76C73.6003 35.76 72.3603 35.92 71.7203 36.36Z" fill="#1A1F1D"/>
<path d="M174.824 19.24C175.104 18.56 175.184 17.88 175.184 17.16C175.264 16.28 175.424 15.44 175.304 14.6C175.264 14.32 175.344 14 175.344 13.72C175.384 13.28 175.384 12.84 175.384 12.44C175.424 11.72 175.744 11.08 176.024 10.48C176.224 9.92001 177.944 9.24001 178.464 9.24001C178.744 9.24001 179.024 9.24001 179.264 9.24001C180.024 9.20001 180.704 9.48001 181.264 9.96001C182.144 10.72 182.424 11.8 182.704 12.84C182.784 13.24 182.824 13.6 182.864 13.96C183.064 15 183.104 16.04 183.104 17.04C183.104 17.76 183.144 18.44 183.264 19.12C183.304 19.32 183.304 19.52 183.304 19.76C183.584 19.76 183.824 19.76 184.064 19.76C184.384 19.76 184.744 19.76 185.104 19.76C185.504 19.72 185.784 19.52 185.824 19.2C185.824 18.6 185.864 17.96 185.904 17.36C185.904 16.36 185.944 15.32 185.984 14.28C185.984 13.88 185.984 13.48 186.064 13.08C186.144 12.76 186.104 12.44 186.024 12.12C185.864 11.68 185.864 11.2 185.864 10.76C185.864 10.56 185.864 10.36 185.784 10.2C185.424 9.40001 185.064 8.64001 184.704 7.88001C184.504 7.48001 184.184 7.12001 183.744 6.88001C182.904 6.24001 181.864 5.60001 180.784 5.56001C180.704 5.56001 180.584 5.56001 180.504 5.52001C180.264 5.44001 179.984 5.40001 179.744 5.40001C179.264 5.40001 178.824 5.52001 178.384 5.56001C178.224 5.56001 178.064 5.64001 177.944 5.72001C177.584 5.96001 177.224 6.16001 176.864 6.40001C176.664 6.52001 176.464 6.72001 176.304 6.88001C176.144 7.08001 176.024 7.36001 175.864 7.52001C175.344 8.00001 175.064 8.56001 174.824 9.20001C174.784 9.40001 174.664 9.56001 174.584 9.76001C174.304 10.16 173.824 10.36 173.384 10.28C172.784 10.12 172.384 9.56001 172.504 8.96001C172.624 8.04001 172.384 7.36001 171.624 6.84001C170.664 6.24001 169.624 5.80001 168.464 5.80001C167.904 5.80001 167.344 5.92001 166.984 6.36001C166.384 6.96001 165.464 7.32001 164.584 7.32001C163.864 7.32001 163.264 7.00001 163.144 6.12001C163.104 6.00001 163.144 5.84001 163.104 5.72001C163.104 5.36001 162.904 5.08001 162.504 4.96001C162.144 4.88001 161.824 4.80001 161.504 4.80001C161.264 4.80001 161.064 4.84001 160.864 4.92001C160.464 5.08001 160.424 5.08001 160.504 5.44001C160.504 5.88001 160.544 6.36001 160.584 6.80001C160.704 7.36001 160.744 7.92001 160.624 8.52001C160.584 8.72001 160.624 8.92001 160.624 9.12001C160.624 9.68001 160.664 10.28 160.664 10.84C160.704 11.08 160.704 11.28 160.704 11.52C160.704 11.84 160.704 12.16 160.704 12.48C160.704 12.8 160.704 13.16 160.704 13.48C160.744 14.24 160.824 15 160.824 15.76C160.824 16.28 160.864 16.8 160.984 17.32C160.984 17.36 160.984 17.44 160.984 17.48C160.984 18.44 161.264 19.32 161.464 20.24C161.544 20.68 161.704 20.8 162.184 20.84C162.504 20.84 162.784 20.84 163.064 20.84C163.384 20.84 163.504 20.72 163.544 20.44C163.584 20.12 163.624 19.84 163.664 19.52C163.784 18.72 163.864 17.96 163.544 17.16C163.304 16.64 163.384 16.04 163.664 15.52C163.904 15.08 163.904 14.64 163.824 14.2C163.784 13.88 163.784 13.56 163.824 13.24C163.944 12.56 164.144 11.92 164.264 11.24C164.424 10.24 165.024 9.68001 165.984 9.44001C166.264 9.40001 166.504 9.28001 166.744 9.24001C167.144 9.12001 167.504 9.04001 167.904 9.04001C168.664 9.04001 169.344 9.32001 169.904 9.88001C170.384 10.44 170.904 11 170.984 11.76C171.024 12.2 171.144 12.6 171.264 13C171.384 13.44 171.424 13.88 171.344 14.28C171.224 14.8 171.304 15.32 171.344 15.84C171.344 16.24 171.464 16.64 171.384 17.04C171.304 17.72 171.464 18.36 171.504 19C171.544 19.2 171.664 19.28 171.864 19.28C172.104 19.28 172.344 19.24 172.624 19.24C172.944 19.24 173.264 19.24 173.584 19.24C173.984 19.24 174.384 19.24 174.824 19.24ZM174.064 6.24001C174.424 6.04001 174.744 5.72001 174.984 5.40001C175.344 4.96001 175.824 4.64001 176.304 4.32001C176.664 4.12001 177.064 4.04001 177.464 4.00001C177.664 4.00001 177.864 3.96001 178.024 3.84001C178.464 3.64001 178.944 3.52001 179.424 3.52001C179.984 3.52001 180.544 3.60001 181.104 3.64001C181.784 3.76001 182.424 4.04001 183.024 4.44001C183.264 4.60001 183.544 4.72001 183.824 4.84001C184.304 5.04001 184.704 5.28001 185.064 5.64001C186.104 6.52001 187.424 7.76001 187.624 9.20001C187.664 9.76001 187.904 10.32 188.144 10.84C188.304 11.28 188.304 11.72 188.144 12.16C187.904 12.68 187.984 13.24 187.984 13.76C187.984 14.16 188.024 14.52 188.024 14.88C188.064 15.64 187.984 16.4 187.904 17.16C187.864 17.48 187.944 17.76 187.944 18.08C187.944 18.44 187.904 18.84 187.904 19.2C187.904 19.4 187.864 19.6 187.864 19.8C187.824 20.28 187.704 20.68 187.424 21.08C187.104 21.52 186.664 21.68 186.104 21.64C185.704 21.6 185.264 21.68 184.864 21.68C184.704 21.72 184.544 21.76 184.384 21.76C183.744 21.8 183.144 21.84 182.544 21.84C181.944 21.88 181.624 21.68 181.424 21.12C181.264 20.68 181.104 20.2 181.144 19.72C181.144 18.96 181.144 18.2 180.984 17.48C180.944 17.28 180.944 17.08 180.984 16.88C181.024 16.04 181.104 15.24 180.984 14.4C180.904 13.92 180.904 13.4 180.864 12.92C180.864 12.08 179.984 11.6 179.344 11.28C179.104 11.12 178.824 11.12 178.584 11.24C178.424 11.32 178.264 11.36 178.104 11.44C177.824 11.56 177.664 11.76 177.584 12.04C177.544 12.32 177.464 12.56 177.464 12.84C177.424 13.76 177.464 14.64 177.304 15.52C177.264 15.8 177.344 16.12 177.384 16.4C177.464 16.84 177.384 17.24 177.344 17.64C177.304 17.84 177.304 18.08 177.344 18.28C177.504 19.16 177.464 20 177.264 20.84C177.104 21.52 176.664 21.96 176.024 21.96C175.904 21.96 175.704 21.92 175.544 21.88C175.064 21.76 174.624 21.68 174.144 21.68C173.584 21.68 173.064 21.56 172.544 21.48C171.984 21.44 171.464 21.4 170.904 21.36C170.224 21.32 169.904 21.12 169.704 20.48C169.424 19.6 169.264 18.76 169.424 17.84C169.464 17.56 169.464 17.24 169.464 16.92C169.424 16.44 169.424 15.96 169.384 15.44C169.344 15.16 169.304 14.84 169.224 14.56C168.984 13.84 168.944 13.08 169.024 12.36C169.104 11.84 168.904 11.52 168.464 11.32C168.184 11.16 167.944 11.12 167.704 11.12C166.504 11.12 165.864 12.4 165.864 13.44C165.864 13.88 165.784 14.24 165.624 14.6C165.464 14.96 165.424 15.28 165.504 15.68C165.584 16.04 165.624 16.48 165.584 16.88C165.504 17.32 165.544 17.76 165.624 18.2C165.744 18.88 165.904 19.56 166.024 20.24C166.104 20.88 165.984 21.52 165.624 22.12C165.264 22.72 164.704 22.96 163.984 22.84C163.584 22.8 163.184 22.84 162.744 22.88C162.144 22.96 161.504 22.96 160.904 23.04C160.064 23.08 159.584 22.52 159.464 21.92C159.304 20.88 158.944 19.88 159.064 18.8C159.064 18.4 158.944 18 158.904 17.6C158.904 17.48 158.864 17.32 158.864 17.2C158.824 16.52 158.824 15.88 158.624 15.2C158.544 14.8 158.584 14.4 158.744 14.04C158.864 13.6 158.864 13.24 158.784 12.8C158.664 11.68 158.624 10.6 158.784 9.48001C158.824 9.24001 158.784 9.00001 158.784 8.80001C158.744 8.04001 158.864 7.32001 158.984 6.60001C159.024 6.32001 159.024 6.04001 159.104 5.76001C159.184 5.20001 159.264 4.64001 159.344 4.08001C159.424 2.84001 161.984 2.48001 162.904 2.48001C163.824 2.48001 165.024 2.76001 165.104 3.80001C165.144 3.92001 165.104 4.00001 165.144 4.12001C165.224 4.32001 165.344 4.40001 165.544 4.32001C166.024 4.16001 166.464 3.96001 166.864 3.72001C167.224 3.52001 167.544 3.40001 167.904 3.40001C168.104 3.40001 168.304 3.44001 168.504 3.52001C168.944 3.64001 169.384 3.68001 169.824 3.68001C170.024 3.68001 170.224 3.72001 170.384 3.80001C171.184 4.16001 171.944 4.52001 172.744 4.88001C173.224 5.08001 173.624 5.44001 173.824 5.96001C173.864 6.04001 173.904 6.08 173.944 6.12001C173.944 6.16001 173.984 6.20001 174.064 6.24001Z" fill="#1A1F1D"/>
<path d="M146.274 20.48C146.674 20.52 147.114 20.48 147.594 20.36C148.194 20.24 148.794 20.04 149.314 19.72C149.394 19.64 149.514 19.6 149.634 19.56C150.354 19.28 151.034 18.84 151.594 18.28C151.714 18.12 151.834 18 151.994 17.84C152.594 17.24 153.034 16.56 153.234 15.72C153.554 14.56 153.874 13.4 153.994 12.16C154.034 11.84 153.954 11.52 153.834 11.24C153.714 10.92 153.634 10.6 153.594 10.28C153.434 9.20001 153.234 8.16001 152.634 7.20001C152.554 7.04001 152.474 6.84001 152.394 6.64001C152.314 6.40001 152.274 6.20001 152.154 5.96001C151.954 5.40001 151.634 4.88001 151.074 4.56001C150.674 4.32001 150.274 4.04001 149.914 3.72001C149.634 3.48001 149.274 3.40001 148.914 3.36001C148.474 3.36001 148.074 3.24001 147.674 3.04001C147.514 2.96001 147.314 2.92001 147.114 2.88001C146.434 2.80001 145.794 2.80001 145.154 2.60001C144.954 2.52001 144.754 2.52001 144.554 2.52001C144.234 2.52001 143.914 2.60001 143.594 2.68001C143.354 2.76001 143.114 2.80001 142.914 2.80001C142.354 2.84001 141.834 3.00001 141.434 3.40001C141.074 3.68001 140.674 3.92001 140.354 4.24001C140.154 4.40001 139.994 4.56001 139.834 4.76001C139.554 5.28001 139.234 5.84001 138.954 6.36001C138.154 8.12001 137.914 8.76001 137.514 10.52C137.394 10.88 137.394 11.24 137.474 11.6C137.634 12.48 137.634 13.36 137.514 14.24C137.474 14.6 137.474 15 137.674 15.36C137.914 15.76 138.034 16.24 138.074 16.68C138.154 17.16 138.314 17.6 138.674 17.88C138.794 18 138.914 18.12 139.034 18.24C139.634 19.08 140.474 19.64 141.354 20.2C141.834 20.52 142.354 20.76 142.874 21.04C143.114 21.16 143.314 21.24 143.514 21.24C143.714 21.24 143.914 21.16 144.114 21.04C144.754 20.56 145.474 20.4 146.274 20.48ZM134.794 13.12C134.874 12.52 134.914 11.88 134.994 11.28C134.994 11.08 134.994 10.88 134.954 10.68C134.874 10.2 134.954 9.72001 135.154 9.24001C135.434 8.56001 135.754 7.92001 136.034 7.24001C136.154 6.88001 136.234 6.52001 136.394 6.16001C136.674 5.60001 136.954 5.04001 137.234 4.48001C137.394 4.24001 137.634 4.04001 137.834 3.84001C138.154 3.44001 138.514 3.08001 138.874 2.72001C139.194 2.28001 139.594 1.92001 140.154 1.76001C140.954 1.24 141.834 0.960006 142.594 0.440005C143.074 0.120005 143.594 6.37025e-06 144.114 0.0800053C144.794 0.160007 145.434 0.280005 146.114 0.400006C146.234 0.400006 146.354 0.440005 146.514 0.440005C146.914 0.480005 147.274 0.600006 147.634 0.800006C147.794 0.880007 148.034 1.00001 148.234 1.00001C148.714 1.08001 149.194 1.24 149.594 1.52001C150.034 1.80001 150.554 1.92001 151.074 2.04001C152.074 2.28001 152.954 2.80001 153.514 3.76001C153.914 5.00001 154.834 6.00001 155.234 7.20001C155.434 7.72001 155.554 8.24001 155.554 8.76C155.514 8.96001 155.594 9.20001 155.674 9.36001C155.994 9.96001 155.994 10.6 155.994 11.24C155.994 11.52 156.034 11.8 156.074 12.08C156.154 12.36 156.154 12.64 156.114 12.96C155.994 13.64 155.914 14.32 155.754 15C155.714 15.36 155.554 15.76 155.434 16.12C155.314 16.48 155.114 16.84 155.034 17.2C154.834 17.88 154.514 18.44 154.034 18.96C153.754 19.2 153.514 19.44 153.274 19.68C153.234 19.76 153.154 19.84 153.074 19.88C152.514 20.12 152.154 20.6 151.674 20.92C150.954 21.4 150.274 22 149.354 22.12C149.194 22.16 149.034 22.24 148.914 22.28C148.514 22.44 148.114 22.56 147.674 22.56C147.354 22.52 147.074 22.68 146.794 22.8C146.274 23.12 145.714 23.32 145.114 23.32C144.874 23.32 144.594 23.28 144.314 23.2C144.154 23.16 143.994 23.12 143.834 23.16C143.394 23.24 142.994 23.16 142.594 23.08C141.994 22.96 141.434 22.84 140.874 22.68C140.514 22.56 140.154 22.36 139.914 22.12C139.314 21.6 138.714 21.08 138.034 20.68C137.394 20.36 136.994 19.84 136.634 19.28C136.234 18.68 135.914 18.08 135.594 17.48C135.314 17.04 135.234 16.52 135.234 16C135.194 15.6 135.154 15.2 135.034 14.84C134.874 14.28 134.794 13.72 134.794 13.12ZM141.994 12.08C141.994 12.16 142.034 12.24 142.034 12.28C142.154 13.36 142.874 14.52 143.514 15.4C143.714 15.72 144.074 15.88 144.474 15.88C145.274 15.8 146.074 15.64 146.674 15.08C147.194 14.6 147.634 14.12 148.154 13.64C148.314 13.48 148.354 13.28 148.354 13.04C148.354 12.8 148.354 12.52 148.434 12.28C148.554 11.8 148.434 11.36 148.234 10.96C148.034 10.64 147.874 10.36 147.754 10.04C147.394 9.28001 147.034 8.60001 146.514 7.96001C146.274 7.68001 145.994 7.52001 145.594 7.52001C145.314 7.56001 145.074 7.60001 144.794 7.60001C144.514 7.60001 144.234 7.60001 143.954 7.56001C143.594 7.52001 143.354 7.60001 143.114 7.88001C142.754 8.20001 142.434 8.56001 142.354 9.08001C142.314 9.32001 142.154 9.52001 142.074 9.76001C141.754 10.52 141.954 11.28 141.994 12.08ZM139.914 12.72C139.994 11.68 140.114 10.6 140.394 9.60001C140.434 9.40001 140.554 9.24001 140.674 9.04001C140.794 8.84001 140.954 8.64001 141.114 8.40001C141.354 8.04001 141.634 7.72001 141.834 7.32001C141.954 7.04001 142.234 6.84001 142.474 6.56001C142.754 6.28001 143.034 5.96001 143.274 5.64001C143.634 5.20001 144.114 5.04001 144.674 5.08001C145.554 5.16001 146.674 5.28001 147.354 5.88001C147.914 6.40001 148.434 6.92001 148.954 7.48001C149.234 7.76001 149.514 8.08001 149.754 8.44001C149.994 8.76001 150.114 9.12001 150.194 9.52001C150.234 9.92001 150.274 10.32 150.354 10.72C150.434 11.08 150.434 11.44 150.314 11.8C150.234 12.08 150.194 12.4 150.154 12.72C150.114 13.32 150.114 13.88 150.074 14.48C150.074 14.84 149.954 15.2 149.714 15.52C148.754 16.92 147.434 17.92 145.674 17.92C145.194 17.96 144.714 17.76 144.234 17.68C143.874 17.56 143.474 17.48 143.114 17.36C141.874 16.96 140.714 15.72 140.474 14.44C140.394 14.16 140.234 13.88 140.114 13.64C139.954 13.36 139.874 13.04 139.914 12.72Z" fill="#1A1F1D"/>
<path d="M114.538 19.16C114.578 19.36 114.578 19.56 114.618 19.76C114.658 20.08 114.938 20.24 115.258 20.16C115.658 20.08 116.098 20 116.498 19.92C116.698 19.88 116.818 19.8 116.818 19.6C116.858 19.52 116.858 19.4 116.858 19.28C116.818 18.6 116.898 17.96 117.138 17.32C117.218 17.16 117.258 16.96 117.218 16.8C117.058 15.96 117.178 15.12 117.298 14.28C117.418 13.52 117.578 12.76 117.698 12C117.738 11.84 117.698 11.72 117.698 11.56C117.618 10.88 117.778 10.24 118.298 9.68001C118.458 9.52001 118.578 9.32001 118.698 9.12001C118.898 8.64001 119.298 8.32001 119.778 8.16001C120.338 7.96001 120.938 7.84001 121.538 7.88001C121.818 7.88001 122.138 8.00001 122.418 8.08001C122.738 8.24001 123.018 8.44001 123.378 8.56001C123.738 8.72001 124.018 8.92001 124.258 9.24001C124.778 9.84001 125.178 10.52 125.338 11.32C125.498 12.04 125.618 12.76 125.858 13.44C125.978 13.72 126.018 14.04 126.018 14.36C125.938 15.2 126.138 16.04 126.098 16.88C126.098 17.68 126.458 18.48 126.618 19.28C126.658 19.48 126.778 19.56 127.018 19.52C127.298 19.48 127.618 19.48 127.898 19.44C128.338 19.36 128.738 19.28 129.178 19.2C129.738 19.04 129.938 18.8 129.898 18.04C129.898 17.92 129.858 17.8 129.858 17.72C129.858 17.32 129.858 16.96 129.858 16.6C129.818 15.96 129.738 15.28 129.698 14.64C129.658 14.12 129.578 13.6 129.538 13.08C129.498 12.6 129.498 12.12 129.418 11.64C129.378 11.16 129.298 10.72 129.138 10.28C128.898 9.76001 128.578 9.20001 128.218 8.76C127.538 7.96001 125.498 6.24001 124.498 6.00001C123.738 5.84001 122.938 5.60001 122.138 5.68001C121.978 5.68001 121.818 5.68001 121.658 5.68001C121.218 5.64001 120.818 5.76001 120.418 5.92001C119.978 6.08001 119.498 6.16001 119.058 6.16001C118.658 6.16001 117.698 6.12001 117.498 5.68001C117.298 5.28001 117.098 4.88001 117.058 4.40001C116.978 3.92001 116.938 3.88001 116.418 3.84001C116.018 3.80001 115.578 3.80001 115.178 3.80001C114.538 3.80001 114.178 4.20001 114.258 4.80001C114.418 5.76001 114.378 6.72001 114.258 7.64001C114.258 7.80001 114.258 7.92001 114.258 8.08001C114.298 8.64001 114.378 9.16001 114.418 9.72001C114.458 10.04 114.418 10.32 114.418 10.64C114.418 10.8 114.418 10.96 114.418 11.08C114.658 11.92 114.698 12.8 114.578 13.64C114.498 14.12 114.458 14.6 114.418 15.08C114.378 15.56 114.298 16.04 114.378 16.48C114.618 17.4 114.658 18.28 114.538 19.16ZM119.418 14.84C119.418 15.6 119.258 16.32 119.018 17.04C118.938 17.32 118.978 17.6 118.938 17.92C118.938 18.24 118.938 18.52 118.938 18.84C118.938 19.12 118.978 19.4 119.018 19.68C119.098 20.16 119.058 20.56 118.858 21C118.778 21.16 118.698 21.36 118.658 21.52C118.298 22.28 117.338 22.4 116.578 22.4C116.218 22.4 115.858 22.28 115.498 22.28C115.258 22.28 115.018 22.36 114.778 22.4C114.458 22.48 114.178 22.56 113.858 22.52C113.218 22.48 112.858 22.04 112.698 21.52C112.498 20.92 112.378 20.32 112.258 19.68C112.098 19.04 112.098 18.36 112.218 17.68C112.258 17.52 112.218 17.36 112.218 17.2C112.218 17.04 112.218 16.92 112.258 16.8C112.338 16.12 112.378 15.44 112.338 14.72C112.258 13.84 112.298 13 112.338 12.12C112.338 11.88 112.378 11.68 112.378 11.44C112.458 10.68 112.538 9.96001 112.578 9.24001C112.618 8.96001 112.578 8.64001 112.658 8.36001C112.778 8.04001 112.698 7.76001 112.538 7.48001C112.298 7.12001 112.218 6.72001 112.338 6.28001C112.378 5.96001 112.418 5.64001 112.458 5.32001C112.538 4.80001 112.578 4.28001 112.658 3.76001C112.738 3.28001 112.898 2.84001 113.178 2.48001C113.458 2.08001 113.818 1.92001 114.338 1.96001C114.658 2.00001 114.978 2.04001 115.298 2.04001C115.698 2.04001 116.098 2.00001 116.498 1.88001C117.658 1.60001 118.618 2.24001 118.818 3.40001C118.818 3.52001 118.858 3.64001 118.898 3.76001C118.978 4.00001 119.058 4.04001 119.298 3.96001C119.898 3.84001 120.498 3.72001 121.098 3.56001C121.498 3.48001 121.898 3.52001 122.298 3.64001C122.658 3.72001 122.978 3.76001 123.338 3.68001C123.658 3.64001 123.978 3.64001 124.298 3.68001C125.338 3.84001 126.338 4.12001 127.218 4.76001C128.138 5.48001 129.098 6.12001 129.858 7.00001C130.538 7.56001 131.418 9.76001 131.578 10.56C131.698 10.92 131.738 11.28 131.818 11.64C132.138 12.64 132.178 13.64 132.018 14.68C131.978 15 131.978 15.28 132.098 15.6C132.378 16.64 132.498 17.72 132.178 18.8C132.138 18.92 132.138 19.04 132.098 19.16C131.898 21.44 127.938 22 126.178 22C125.458 22 124.938 21.64 124.698 20.92C124.498 20.32 124.298 19.76 124.138 19.16C124.098 18.88 124.098 18.6 124.098 18.32C124.058 17.48 124.058 16.64 124.018 15.8C124.018 15.6 123.978 15.44 123.938 15.24C123.738 14.64 123.618 14.04 123.658 13.4C123.658 13.28 123.658 13.12 123.618 13C123.538 12.6 123.498 12.12 123.298 11.76C122.978 10.92 122.098 9.88001 121.138 9.88001C120.858 9.88001 120.578 9.96001 120.338 10.08C120.138 10.16 120.058 10.32 119.978 10.52C119.858 11.08 119.698 11.64 119.578 12.2C119.498 12.52 119.458 12.88 119.418 13.2C119.378 13.72 119.378 14.32 119.418 14.84Z" fill="#1A1F1D"/>
<path d="M99.8284 20.48C100.228 20.52 100.668 20.48 101.148 20.36C101.748 20.24 102.348 20.04 102.868 19.72C102.948 19.64 103.068 19.6 103.188 19.56C103.908 19.28 104.588 18.84 105.148 18.28C105.268 18.12 105.388 18 105.548 17.84C106.148 17.24 106.588 16.56 106.788 15.72C107.108 14.56 107.428 13.4 107.548 12.16C107.588 11.84 107.508 11.52 107.388 11.24C107.268 10.92 107.188 10.6 107.148 10.28C106.988 9.20001 106.788 8.16001 106.188 7.20001C106.108 7.04001 106.028 6.84001 105.948 6.64001C105.868 6.40001 105.828 6.20001 105.708 5.96001C105.508 5.40001 105.188 4.88001 104.628 4.56001C104.228 4.32001 103.828 4.04001 103.468 3.72001C103.188 3.48001 102.828 3.40001 102.468 3.36001C102.028 3.36001 101.628 3.24001 101.228 3.04001C101.068 2.96001 100.868 2.92001 100.668 2.88001C99.9884 2.80001 99.3484 2.80001 98.7084 2.60001C98.5084 2.52001 98.3084 2.52001 98.1084 2.52001C97.7884 2.52001 97.4684 2.60001 97.1484 2.68001C96.9084 2.76001 96.6684 2.80001 96.4684 2.80001C95.9084 2.84001 95.3884 3.00001 94.9884 3.40001C94.6284 3.68001 94.2284 3.92001 93.9084 4.24001C93.7084 4.40001 93.5484 4.56001 93.3884 4.76001C93.1084 5.28001 92.7884 5.84001 92.5084 6.36001C91.7084 8.12001 91.4684 8.76001 91.0684 10.52C90.9484 10.88 90.9484 11.24 91.0284 11.6C91.1884 12.48 91.1884 13.36 91.0684 14.24C91.0284 14.6 91.0284 15 91.2284 15.36C91.4684 15.76 91.5884 16.24 91.6284 16.68C91.7084 17.16 91.8684 17.6 92.2284 17.88C92.3484 18 92.4684 18.12 92.5884 18.24C93.1884 19.08 94.0284 19.64 94.9084 20.2C95.3884 20.52 95.9084 20.76 96.4284 21.04C96.6684 21.16 96.8684 21.24 97.0684 21.24C97.2684 21.24 97.4684 21.16 97.6684 21.04C98.3084 20.56 99.0284 20.4 99.8284 20.48ZM88.3484 13.12C88.4284 12.52 88.4684 11.88 88.5484 11.28C88.5484 11.08 88.5484 10.88 88.5084 10.68C88.4284 10.2 88.5084 9.72001 88.7084 9.24001C88.9884 8.56001 89.3084 7.92001 89.5884 7.24001C89.7084 6.88001 89.7884 6.52001 89.9484 6.16001C90.2284 5.60001 90.5084 5.04001 90.7884 4.48001C90.9484 4.24001 91.1884 4.04001 91.3884 3.84001C91.7084 3.44001 92.0684 3.08001 92.4284 2.72001C92.7484 2.28001 93.1484 1.92001 93.7084 1.76001C94.5084 1.24 95.3884 0.960006 96.1484 0.440005C96.6284 0.120005 97.1484 6.37025e-06 97.6684 0.0800053C98.3484 0.160007 98.9884 0.280005 99.6684 0.400006C99.7884 0.400006 99.9084 0.440005 100.068 0.440005C100.468 0.480005 100.828 0.600006 101.188 0.800006C101.348 0.880007 101.588 1.00001 101.788 1.00001C102.268 1.08001 102.748 1.24 103.148 1.52001C103.588 1.80001 104.108 1.92001 104.628 2.04001C105.628 2.28001 106.508 2.80001 107.068 3.76001C107.468 5.00001 108.388 6.00001 108.788 7.20001C108.988 7.72001 109.108 8.24001 109.108 8.76C109.068 8.96001 109.148 9.20001 109.228 9.36001C109.548 9.96001 109.548 10.6 109.548 11.24C109.548 11.52 109.588 11.8 109.628 12.08C109.708 12.36 109.708 12.64 109.668 12.96C109.548 13.64 109.468 14.32 109.308 15C109.268 15.36 109.108 15.76 108.988 16.12C108.868 16.48 108.668 16.84 108.588 17.2C108.388 17.88 108.068 18.44 107.588 18.96C107.308 19.2 107.068 19.44 106.828 19.68C106.788 19.76 106.708 19.84 106.628 19.88C106.068 20.12 105.708 20.6 105.228 20.92C104.508 21.4 103.828 22 102.908 22.12C102.748 22.16 102.588 22.24 102.468 22.28C102.068 22.44 101.668 22.56 101.228 22.56C100.908 22.52 100.628 22.68 100.348 22.8C99.8284 23.12 99.2684 23.32 98.6684 23.32C98.4284 23.32 98.1484 23.28 97.8684 23.2C97.7084 23.16 97.5484 23.12 97.3884 23.16C96.9484 23.24 96.5484 23.16 96.1484 23.08C95.5484 22.96 94.9884 22.84 94.4284 22.68C94.0684 22.56 93.7084 22.36 93.4684 22.12C92.8684 21.6 92.2684 21.08 91.5884 20.68C90.9484 20.36 90.5484 19.84 90.1884 19.28C89.7884 18.68 89.4684 18.08 89.1484 17.48C88.8684 17.04 88.7884 16.52 88.7884 16C88.7484 15.6 88.7084 15.2 88.5884 14.84C88.4284 14.28 88.3484 13.72 88.3484 13.12ZM95.5484 12.08C95.5484 12.16 95.5884 12.24 95.5884 12.28C95.7084 13.36 96.4284 14.52 97.0684 15.4C97.2684 15.72 97.6284 15.88 98.0284 15.88C98.8284 15.8 99.6284 15.64 100.228 15.08C100.748 14.6 101.188 14.12 101.708 13.64C101.868 13.48 101.908 13.28 101.908 13.04C101.908 12.8 101.908 12.52 101.988 12.28C102.108 11.8 101.988 11.36 101.788 10.96C101.588 10.64 101.428 10.36 101.308 10.04C100.948 9.28001 100.588 8.60001 100.068 7.96001C99.8284 7.68001 99.5484 7.52001 99.1484 7.52001C98.8684 7.56001 98.6284 7.60001 98.3484 7.60001C98.0684 7.60001 97.7884 7.60001 97.5084 7.56001C97.1484 7.52001 96.9084 7.60001 96.6684 7.88001C96.3084 8.20001 95.9884 8.56001 95.9084 9.08001C95.8684 9.32001 95.7084 9.52001 95.6284 9.76001C95.3084 10.52 95.5084 11.28 95.5484 12.08ZM93.4684 12.72C93.5484 11.68 93.6684 10.6 93.9484 9.60001C93.9884 9.40001 94.1084 9.24001 94.2284 9.04001C94.3484 8.84001 94.5084 8.64001 94.6684 8.40001C94.9084 8.04001 95.1884 7.72001 95.3884 7.32001C95.5084 7.04001 95.7884 6.84001 96.0284 6.56001C96.3084 6.28001 96.5884 5.96001 96.8284 5.64001C97.1884 5.20001 97.6684 5.04001 98.2284 5.08001C99.1084 5.16001 100.228 5.28001 100.908 5.88001C101.468 6.40001 101.988 6.92001 102.508 7.48001C102.788 7.76001 103.068 8.08001 103.308 8.44001C103.548 8.76001 103.668 9.12001 103.748 9.52001C103.788 9.92001 103.828 10.32 103.908 10.72C103.988 11.08 103.988 11.44 103.868 11.8C103.788 12.08 103.748 12.4 103.708 12.72C103.668 13.32 103.668 13.88 103.628 14.48C103.628 14.84 103.508 15.2 103.268 15.52C102.308 16.92 100.988 17.92 99.2284 17.92C98.7484 17.96 98.2684 17.76 97.7884 17.68C97.4284 17.56 97.0284 17.48 96.6684 17.36C95.4284 16.96 94.2684 15.72 94.0284 14.44C93.9484 14.16 93.7884 13.88 93.6684 13.64C93.5084 13.36 93.4284 13.04 93.4684 12.72Z" fill="#1A1F1D"/>
<path d="M72.48 19.24C72.76 18.56 72.84 17.88 72.84 17.16C72.92 16.28 73.08 15.44 72.96 14.6C72.92 14.32 73 14 73 13.72C73.04 13.28 73.04 12.84 73.04 12.44C73.08 11.72 73.4 11.08 73.68 10.48C73.88 9.92001 75.6 9.24001 76.12 9.24001C76.4 9.24001 76.68 9.24001 76.92 9.24001C77.68 9.20001 78.36 9.48001 78.92 9.96001C79.8 10.72 80.08 11.8 80.36 12.84C80.44 13.24 80.48 13.6 80.52 13.96C80.72 15 80.76 16.04 80.76 17.04C80.76 17.76 80.8 18.44 80.92 19.12C80.96 19.32 80.96 19.52 80.96 19.76C81.24 19.76 81.48 19.76 81.72 19.76C82.04 19.76 82.4 19.76 82.76 19.76C83.16 19.72 83.44 19.52 83.48 19.2C83.48 18.6 83.52 17.96 83.56 17.36C83.56 16.36 83.6 15.32 83.64 14.28C83.64 13.88 83.64 13.48 83.72 13.08C83.8 12.76 83.76 12.44 83.68 12.12C83.52 11.68 83.52 11.2 83.52 10.76C83.52 10.56 83.52 10.36 83.44 10.2C83.08 9.40001 82.72 8.64001 82.36 7.88001C82.16 7.48001 81.84 7.12001 81.4 6.88001C80.56 6.24001 79.52 5.60001 78.44 5.56001C78.36 5.56001 78.24 5.56001 78.16 5.52001C77.92 5.44001 77.64 5.40001 77.4 5.40001C76.92 5.40001 76.48 5.52001 76.04 5.56001C75.88 5.56001 75.72 5.64001 75.6 5.72001C75.24 5.96001 74.88 6.16001 74.52 6.40001C74.32 6.52001 74.12 6.72001 73.96 6.88001C73.8 7.08001 73.68 7.36001 73.52 7.52001C73 8.00001 72.72 8.56001 72.48 9.20001C72.44 9.40001 72.32 9.56001 72.24 9.76001C71.96 10.16 71.48 10.36 71.04 10.28C70.44 10.12 70.04 9.56001 70.16 8.96001C70.28 8.04001 70.04 7.36001 69.28 6.84001C68.32 6.24001 67.28 5.80001 66.12 5.80001C65.56 5.80001 65 5.92001 64.64 6.36001C64.04 6.96001 63.12 7.32001 62.24 7.32001C61.52 7.32001 60.92 7.00001 60.8 6.12001C60.76 6.00001 60.8 5.84001 60.76 5.72001C60.76 5.36001 60.56 5.08001 60.16 4.96001C59.8 4.88001 59.48 4.80001 59.16 4.80001C58.92 4.80001 58.72 4.84001 58.52 4.92001C58.12 5.08001 58.08 5.08001 58.16 5.44001C58.16 5.88001 58.2 6.36001 58.24 6.80001C58.36 7.36001 58.4 7.92001 58.28 8.52001C58.24 8.72001 58.28 8.92001 58.28 9.12001C58.28 9.68001 58.32 10.28 58.32 10.84C58.36 11.08 58.36 11.28 58.36 11.52C58.36 11.84 58.36 12.16 58.36 12.48C58.36 12.8 58.36 13.16 58.36 13.48C58.4 14.24 58.48 15 58.48 15.76C58.48 16.28 58.52 16.8 58.64 17.32C58.64 17.36 58.64 17.44 58.64 17.48C58.64 18.44 58.92 19.32 59.12 20.24C59.2 20.68 59.36 20.8 59.84 20.84C60.16 20.84 60.44 20.84 60.72 20.84C61.04 20.84 61.16 20.72 61.2 20.44C61.24 20.12 61.28 19.84 61.32 19.52C61.44 18.72 61.52 17.96 61.2 17.16C60.96 16.64 61.04 16.04 61.32 15.52C61.56 15.08 61.56 14.64 61.48 14.2C61.44 13.88 61.44 13.56 61.48 13.24C61.6 12.56 61.8 11.92 61.92 11.24C62.08 10.24 62.68 9.68001 63.64 9.44001C63.92 9.40001 64.16 9.28001 64.4 9.24001C64.8 9.12001 65.16 9.04001 65.56 9.04001C66.32 9.04001 67 9.32001 67.56 9.88001C68.04 10.44 68.56 11 68.64 11.76C68.68 12.2 68.8 12.6 68.92 13C69.04 13.44 69.08 13.88 69 14.28C68.88 14.8 68.96 15.32 69 15.84C69 16.24 69.12 16.64 69.04 17.04C68.96 17.72 69.12 18.36 69.16 19C69.2 19.2 69.32 19.28 69.52 19.28C69.76 19.28 70 19.24 70.28 19.24C70.6 19.24 70.92 19.24 71.24 19.24C71.64 19.24 72.04 19.24 72.48 19.24ZM71.72 6.24001C72.08 6.04001 72.4 5.72001 72.64 5.40001C73 4.96001 73.48 4.64001 73.96 4.32001C74.32 4.12001 74.72 4.04001 75.12 4.00001C75.32 4.00001 75.52 3.96001 75.68 3.84001C76.12 3.64001 76.6 3.52001 77.08 3.52001C77.64 3.52001 78.2 3.60001 78.76 3.64001C79.44 3.76001 80.08 4.04001 80.68 4.44001C80.92 4.60001 81.2 4.72001 81.48 4.84001C81.96 5.04001 82.36 5.28001 82.72 5.64001C83.76 6.52001 85.08 7.76001 85.28 9.20001C85.32 9.76001 85.56 10.32 85.8 10.84C85.96 11.28 85.96 11.72 85.8 12.16C85.56 12.68 85.64 13.24 85.64 13.76C85.64 14.16 85.68 14.52 85.68 14.88C85.72 15.64 85.64 16.4 85.56 17.16C85.52 17.48 85.6 17.76 85.6 18.08C85.6 18.44 85.56 18.84 85.56 19.2C85.56 19.4 85.52 19.6 85.52 19.8C85.48 20.28 85.36 20.68 85.08 21.08C84.76 21.52 84.32 21.68 83.76 21.64C83.36 21.6 82.92 21.68 82.52 21.68C82.36 21.72 82.2 21.76 82.04 21.76C81.4 21.8 80.8 21.84 80.2 21.84C79.6 21.88 79.28 21.68 79.08 21.12C78.92 20.68 78.76 20.2 78.8 19.72C78.8 18.96 78.8 18.2 78.64 17.48C78.6 17.28 78.6 17.08 78.64 16.88C78.68 16.04 78.76 15.24 78.64 14.4C78.56 13.92 78.56 13.4 78.52 12.92C78.52 12.08 77.64 11.6 77 11.28C76.76 11.12 76.48 11.12 76.24 11.24C76.08 11.32 75.92 11.36 75.76 11.44C75.48 11.56 75.32 11.76 75.24 12.04C75.2 12.32 75.12 12.56 75.12 12.84C75.08 13.76 75.12 14.64 74.96 15.52C74.92 15.8 75 16.12 75.04 16.4C75.12 16.84 75.04 17.24 75 17.64C74.96 17.84 74.96 18.08 75 18.28C75.16 19.16 75.12 20 74.92 20.84C74.76 21.52 74.32 21.96 73.68 21.96C73.56 21.96 73.36 21.92 73.2 21.88C72.72 21.76 72.28 21.68 71.8 21.68C71.24 21.68 70.72 21.56 70.2 21.48C69.64 21.44 69.12 21.4 68.56 21.36C67.88 21.32 67.56 21.12 67.36 20.48C67.08 19.6 66.92 18.76 67.08 17.84C67.12 17.56 67.12 17.24 67.12 16.92C67.08 16.44 67.08 15.96 67.04 15.44C67 15.16 66.96 14.84 66.88 14.56C66.64 13.84 66.6 13.08 66.68 12.36C66.76 11.84 66.56 11.52 66.12 11.32C65.84 11.16 65.6 11.12 65.36 11.12C64.16 11.12 63.52 12.4 63.52 13.44C63.52 13.88 63.44 14.24 63.28 14.6C63.12 14.96 63.08 15.28 63.16 15.68C63.24 16.04 63.28 16.48 63.24 16.88C63.16 17.32 63.2 17.76 63.28 18.2C63.4 18.88 63.56 19.56 63.68 20.24C63.76 20.88 63.64 21.52 63.28 22.12C62.92 22.72 62.36 22.96 61.64 22.84C61.24 22.8 60.84 22.84 60.4 22.88C59.8 22.96 59.16 22.96 58.56 23.04C57.72 23.08 57.24 22.52 57.12 21.92C56.96 20.88 56.6 19.88 56.72 18.8C56.72 18.4 56.6 18 56.56 17.6C56.56 17.48 56.52 17.32 56.52 17.2C56.48 16.52 56.48 15.88 56.28 15.2C56.2 14.8 56.24 14.4 56.4 14.04C56.52 13.6 56.52 13.24 56.44 12.8C56.32 11.68 56.28 10.6 56.44 9.48001C56.48 9.24001 56.44 9.00001 56.44 8.80001C56.4 8.04001 56.52 7.32001 56.64 6.60001C56.68 6.32001 56.68 6.04001 56.76 5.76001C56.84 5.20001 56.92 4.64001 57 4.08001C57.08 2.84001 59.64 2.48001 60.56 2.48001C61.48 2.48001 62.68 2.76001 62.76 3.80001C62.8 3.92001 62.76 4.00001 62.8 4.12001C62.88 4.32001 63 4.40001 63.2 4.32001C63.68 4.16001 64.12 3.96001 64.52 3.72001C64.88 3.52001 65.2 3.40001 65.56 3.40001C65.76 3.40001 65.96 3.44001 66.16 3.52001C66.6 3.64001 67.04 3.68001 67.48 3.68001C67.68 3.68001 67.88 3.72001 68.04 3.80001C68.84 4.16001 69.6 4.52001 70.4 4.88001C70.88 5.08001 71.28 5.44001 71.48 5.96001C71.52 6.04001 71.56 6.08 71.6 6.12001C71.6 6.16001 71.64 6.20001 71.72 6.24001Z" fill="#1A1F1D"/>
<path d="M20.7023 0.947948C22.8937 -0.315982 25.5937 -0.315983 27.7852 0.947947L44.946 10.8455C47.1375 12.1095 48.4874 14.4453 48.4874 16.9732V36.7684C48.4874 39.2962 47.1375 41.6321 44.946 42.896L27.7852 52.7936C25.5937 54.0575 22.8937 54.0575 20.7023 52.7936L3.54144 42.896C1.34999 41.6321 0 39.2962 0 36.7684V16.9732C0 14.4453 1.34999 12.1095 3.54144 10.8455L20.7023 0.947948Z" fill="#FEFEFE"/>
<path d="M46.801 16.9731C46.8009 15.0471 45.7724 13.2674 44.1027 12.3044L26.942 2.407C25.2723 1.444 23.2152 1.444 21.5455 2.407L4.38472 12.3044C2.71507 13.2674 1.68652 15.0471 1.68648 16.9731V36.7685C1.68652 38.6944 2.71507 40.4742 4.38472 41.4372L21.5455 51.3346C23.2152 52.2976 25.2723 52.2976 26.942 51.3346L44.1027 41.4372C45.7724 40.4742 46.8009 38.6944 46.801 36.7685V16.9731ZM48.4874 36.7684L48.4834 37.0047C48.4022 39.4412 47.069 41.6716 44.946 42.896L27.7852 52.7936C25.6622 54.0181 23.0619 54.0563 20.9091 52.9083L20.7023 52.7936L3.54144 42.896C1.41846 41.6716 0.0852747 39.4412 0.0040297 37.0047L0 36.7684V16.9732C3.90456e-05 14.5243 1.26706 12.2557 3.33862 10.9672L3.54144 10.8455L20.7023 0.947948C22.8937 -0.315982 25.5937 -0.315983 27.7852 0.947947L44.946 10.8455C47.1375 12.1095 48.4874 14.4453 48.4874 16.9732V36.7684Z" fill="black"/>
<path d="M25.4396 25.875L43.4025 18.5798L45.5018 34.277L27.5153 42.7633L25.4396 25.875Z" fill="#1A1A1A"/>
<path d="M38.0223 39.7772L45.7279 36.1163L45.7454 37.6418L38.3336 40.9271L38.0223 39.7772Z" fill="#1A1A1A"/>
<path d="M45.5018 34.277L27.5153 42.7633L25.4396 25.875L43.4025 18.5798L45.5018 34.277ZM25.8058 26.09L27.7932 42.2594L45.1348 34.0774L43.1259 19.0559L25.8058 26.09ZM45.7454 37.6418L38.3336 40.9271L38.0223 39.7772L45.7279 36.1163L45.7454 37.6418ZM38.4211 39.9603L38.5565 40.4595L45.4054 37.4236L45.3965 36.6466L38.4211 39.9603Z" fill="black"/>
<path d="M27.5507 55.005C26.9919 54.038 27.3235 52.8017 28.2914 52.2434L46.1091 41.967C47.077 41.4087 48.3147 41.74 48.8735 42.7069L50.7285 45.9166C51.2874 46.8836 50.9557 48.1199 49.9878 48.6782L32.1701 58.9546C31.2022 59.5129 29.9646 59.1816 29.4057 58.2147L27.5507 55.005Z" fill="#FEFEFE"/>
<path d="M49.8192 48.3864L49.9878 48.6782L32.1701 58.9546L32.0015 58.6628L49.8192 48.3864ZM50.4364 46.0851L48.5814 42.8754C48.1157 42.0696 47.0843 41.7936 46.2777 42.2588L28.4601 52.5352C27.6786 52.9859 27.395 53.9669 27.8015 54.7604L27.8428 54.8365L29.6978 58.0462C30.1635 58.852 31.1949 59.128 32.0015 58.6628L32.1701 58.9546L32.0787 59.0043C31.1256 59.4916 29.9471 59.1514 29.4057 58.2147L27.5507 55.005C26.9919 54.038 27.3235 52.8017 28.2914 52.2434L46.1091 41.967C47.077 41.4087 48.3147 41.74 48.8735 42.7069L50.7285 45.9166C51.2874 46.8836 50.9557 48.1199 49.9878 48.6782L49.8192 48.3864C50.6258 47.9212 50.9021 46.8909 50.4364 46.0851Z" fill="black"/>
<path d="M28.3366 52.9955L29.2129 52.4901L29.7188 53.3654L28.8425 53.8708L28.3366 52.9955Z" fill="#1A1A1A"/>
<path d="M29.505 52.3216L30.3813 51.8162L30.8872 52.6916L30.0109 53.197L29.505 52.3216Z" fill="#1A1A1A"/>
<path d="M30.6734 51.6477L31.5496 51.1423L32.0556 52.0177L31.1793 52.5231L30.6734 51.6477Z" fill="#1A1A1A"/>
<path d="M31.8417 50.9739L32.718 50.4685L33.2239 51.3438L32.3476 51.8492L31.8417 50.9739Z" fill="#1A1A1A"/>
<path d="M33.0101 50.3L33.8864 49.7946L34.3923 50.67L33.516 51.1754L33.0101 50.3Z" fill="#1A1A1A"/>
<path d="M34.1785 49.6261L35.0547 49.1207L35.5607 49.9961L34.6844 50.5015L34.1785 49.6261Z" fill="#1A1A1A"/>
<path d="M35.3468 48.9523L36.2231 48.4469L36.729 49.3223L35.8528 49.8276L35.3468 48.9523Z" fill="#1A1A1A"/>
<path d="M36.5152 48.2784L37.3915 47.773L37.8974 48.6484L37.0211 49.1538L36.5152 48.2784Z" fill="#1A1A1A"/>
<path d="M37.6836 47.6045L38.5599 47.0991L39.0658 47.9745L38.1895 48.4799L37.6836 47.6045Z" fill="#1A1A1A"/>
<path d="M38.852 46.9307L39.7282 46.4253L40.2342 47.3007L39.3579 47.8061L38.852 46.9307Z" fill="#1A1A1A"/>
<path d="M40.0203 46.2568L40.8966 45.7514L41.4025 46.6268L40.5263 47.1322L40.0203 46.2568Z" fill="#1A1A1A"/>
<path d="M41.1887 45.583L42.065 45.0776L42.5709 45.9529L41.6946 46.4583L41.1887 45.583Z" fill="#1A1A1A"/>
<path d="M42.3571 44.9091L43.2334 44.4037L43.7393 45.2791L42.863 45.7845L42.3571 44.9091Z" fill="#1A1A1A"/>
<path d="M43.5254 44.2352L44.4017 43.7298L44.9076 44.6052L44.0314 45.1106L43.5254 44.2352Z" fill="#1A1A1A"/>
<path d="M44.6938 43.5614L46.7385 42.3821L47.2444 43.2575L45.1997 44.4367L44.6938 43.5614Z" fill="#1A1A1A"/>
<path d="M29.0112 54.1626L29.8874 53.6572L30.3934 54.5326L29.5171 55.038L29.0112 54.1626Z" fill="#1A1A1A"/>
<path d="M30.1795 53.4888L31.0558 52.9834L31.5617 53.8587L30.6855 54.3641L30.1795 53.4888Z" fill="#1A1A1A"/>
<path d="M31.3479 52.8149L32.2242 52.3095L32.7301 53.1849L31.8538 53.6903L31.3479 52.8149Z" fill="#1A1A1A"/>
<path d="M32.5163 52.141L33.3926 51.6356L33.8985 52.511L33.0222 53.0164L32.5163 52.141Z" fill="#1A1A1A"/>
<path d="M33.6847 51.4672L34.5609 50.9618L35.0669 51.8372L34.1906 52.3425L33.6847 51.4672Z" fill="#1A1A1A"/>
<path d="M34.853 50.7933L35.7293 50.2879L36.2352 51.1633L35.359 51.6687L34.853 50.7933Z" fill="#1A1A1A"/>
<path d="M36.0214 50.1194L36.8977 49.614L37.4036 50.4894L36.5273 50.9948L36.0214 50.1194Z" fill="#1A1A1A"/>
<path d="M37.1898 49.4456L38.0661 48.9402L38.572 49.8156L37.6957 50.321L37.1898 49.4456Z" fill="#1A1A1A"/>
<path d="M38.3581 48.7717L39.2344 48.2663L39.7403 49.1417L38.8641 49.6471L38.3581 48.7717Z" fill="#1A1A1A"/>
<path d="M39.5265 48.0978L40.4028 47.5924L40.9087 48.4678L40.0324 48.9732L39.5265 48.0978Z" fill="#1A1A1A"/>
<path d="M40.6949 47.424L41.5712 46.9186L42.0771 47.794L41.2008 48.2994L40.6949 47.424Z" fill="#1A1A1A"/>
<path d="M41.8633 46.7501L42.7395 46.2447L43.2455 47.1201L42.3692 47.6255L41.8633 46.7501Z" fill="#1A1A1A"/>
<path d="M43.0316 46.0763L43.9079 45.5709L44.4138 46.4462L43.5376 46.9516L43.0316 46.0763Z" fill="#1A1A1A"/>
<path d="M44.2 45.4024L45.0763 44.897L45.5822 45.7724L44.7059 46.2778L44.2 45.4024Z" fill="#1A1A1A"/>
<path d="M45.3684 44.7285L46.2447 44.2231L46.7506 45.0985L45.8743 45.6039L45.3684 44.7285Z" fill="#1A1A1A"/>
<path d="M46.5368 44.0547L47.413 43.5493L47.919 44.4246L47.0427 44.93L46.5368 44.0547Z" fill="#1A1A1A"/>
<path d="M29.6857 55.3298L31.7304 54.1505L32.2363 55.0259L30.1917 56.2052L29.6857 55.3298Z" fill="#1A1A1A"/>
<path d="M32.0225 53.9821L32.8988 53.4767L33.4047 54.352L32.5284 54.8574L32.0225 53.9821Z" fill="#1A1A1A"/>
<path d="M33.1908 53.3082L34.0671 52.8028L34.573 53.6782L33.6968 54.1836L33.1908 53.3082Z" fill="#1A1A1A"/>
<path d="M34.3592 52.6343L35.2355 52.1289L35.7414 53.0043L34.8651 53.5097L34.3592 52.6343Z" fill="#1A1A1A"/>
<path d="M35.5276 51.9605L36.4039 51.4551L36.9098 52.3305L36.0335 52.8358L35.5276 51.9605Z" fill="#1A1A1A"/>
<path d="M36.696 51.2866L37.5722 50.7812L38.0782 51.6566L37.2019 52.162L36.696 51.2866Z" fill="#1A1A1A"/>
<path d="M37.8643 50.6127L38.7406 50.1073L39.2465 50.9827L38.3703 51.4881L37.8643 50.6127Z" fill="#1A1A1A"/>
<path d="M39.0327 49.9389L39.909 49.4335L40.4149 50.3089L39.5386 50.8143L39.0327 49.9389Z" fill="#1A1A1A"/>
<path d="M40.2011 49.265L41.0774 48.7596L41.5833 49.635L40.707 50.1404L40.2011 49.265Z" fill="#1A1A1A"/>
<path d="M41.3695 48.5911L42.2457 48.0858L42.7517 48.9611L41.8754 49.4665L41.3695 48.5911Z" fill="#1A1A1A"/>
<path d="M42.5378 47.9173L43.4141 47.4119L43.92 48.2873L43.0437 48.7927L42.5378 47.9173Z" fill="#1A1A1A"/>
<path d="M43.7062 47.2434L44.5825 46.738L45.0884 47.6134L44.2121 48.1188L43.7062 47.2434Z" fill="#1A1A1A"/>
<path d="M44.8746 46.5696L45.7508 46.0642L46.2568 46.9395L45.3805 47.4449L44.8746 46.5696Z" fill="#1A1A1A"/>
<path d="M46.0429 45.8957L46.9192 45.3903L47.4251 46.2657L46.5489 46.7711L46.0429 45.8957Z" fill="#1A1A1A"/>
<path d="M47.2113 45.2218L48.0876 44.7164L48.5935 45.5918L47.7172 46.0972L47.2113 45.2218Z" fill="#1A1A1A"/>
<path d="M30.3603 56.497L32.4049 55.3177L32.9109 56.1931L30.8662 57.3723L30.3603 56.497Z" fill="#1A1A1A"/>
<path d="M32.697 55.1492L33.5733 54.6438L34.0792 55.5192L33.203 56.0246L32.697 55.1492Z" fill="#1A1A1A"/>
<path d="M33.8654 54.4754L34.7417 53.97L35.2476 54.8453L34.3713 55.3507L33.8654 54.4754Z" fill="#1A1A1A"/>
<path d="M35.0338 53.8015L35.9101 53.2961L36.416 54.1715L35.5397 54.6769L35.0338 53.8015Z" fill="#1A1A1A"/>
<path d="M36.2021 53.1276L37.0784 52.6222L37.5844 53.4976L36.7081 54.003L36.2021 53.1276Z" fill="#1A1A1A"/>
<path d="M37.3705 52.4538L38.2468 51.9484L38.7527 52.8238L37.8764 53.3292L37.3705 52.4538Z" fill="#1A1A1A"/>
<path d="M38.5389 51.7799L39.4152 51.2745L39.9211 52.1499L39.0448 52.6553L38.5389 51.7799Z" fill="#1A1A1A"/>
<path d="M39.7073 51.106L40.5835 50.6007L41.0895 51.476L40.2132 51.9814L39.7073 51.106Z" fill="#1A1A1A"/>
<path d="M40.8756 50.4322L41.7519 49.9268L42.2578 50.8022L41.3816 51.3076L40.8756 50.4322Z" fill="#1A1A1A"/>
<path d="M42.044 49.7583L42.9203 49.2529L43.4262 50.1283L42.5499 50.6337L42.044 49.7583Z" fill="#1A1A1A"/>
<path d="M43.2124 49.0845L44.0887 48.5791L44.5946 49.4544L43.7183 49.9598L43.2124 49.0845Z" fill="#1A1A1A"/>
<path d="M44.3808 48.4106L45.257 47.9052L45.763 48.7806L44.8867 49.286L44.3808 48.4106Z" fill="#1A1A1A"/>
<path d="M45.5491 47.7367L46.4254 47.2313L46.9313 48.1067L46.055 48.6121L45.5491 47.7367Z" fill="#1A1A1A"/>
<path d="M46.7175 47.0629L47.5938 46.5575L48.0997 47.4328L47.2234 47.9382L46.7175 47.0629Z" fill="#1A1A1A"/>
<path d="M47.8859 46.389L48.7622 45.8836L49.2681 46.759L48.3918 47.2644L47.8859 46.389Z" fill="#1A1A1A"/>
<path d="M31.0349 57.6641L31.9111 57.1587L32.417 58.0341L31.5408 58.5395L31.0349 57.6641Z" fill="#1A1A1A"/>
<path d="M32.2032 56.9903L33.0795 56.4849L33.5854 57.3602L32.7091 57.8656L32.2032 56.9903Z" fill="#1A1A1A"/>
<path d="M33.3716 56.3164L34.2479 55.811L34.7538 56.6864L33.8775 57.1918L33.3716 56.3164Z" fill="#1A1A1A"/>
<path d="M34.54 55.6425L35.4162 55.1371L35.9222 56.0125L35.0459 56.5179L34.54 55.6425Z" fill="#1A1A1A"/>
<path d="M35.7083 54.9687L36.5846 54.4633L37.0905 55.3387L36.2143 55.8441L35.7083 54.9687Z" fill="#1A1A1A"/>
<path d="M36.8767 54.2948L42.4265 51.094L42.9324 51.9693L37.3826 55.1702L36.8767 54.2948Z" fill="#1A1A1A"/>
<path d="M42.7186 50.9255L43.5949 50.4201L44.1008 51.2955L43.2245 51.8009L42.7186 50.9255Z" fill="#1A1A1A"/>
<path d="M43.8869 50.2516L44.7632 49.7462L45.2691 50.6216L44.3929 51.127L43.8869 50.2516Z" fill="#1A1A1A"/>
<path d="M45.0553 49.5778L45.9316 49.0724L46.4375 49.9477L45.5612 50.4531L45.0553 49.5778Z" fill="#1A1A1A"/>
<path d="M46.2237 48.9039L47.1 48.3985L47.6059 49.2739L46.7296 49.7793L46.2237 48.9039Z" fill="#1A1A1A"/>
<path d="M47.3921 48.23L48.2683 47.7246L48.7743 48.6L47.898 49.1054L47.3921 48.23Z" fill="#1A1A1A"/>
<path d="M48.5604 47.5562L49.4367 47.0508L49.9426 47.9261L49.0664 48.4315L48.5604 47.5562Z" fill="#1A1A1A"/>
</svg>
