<?xml version="1.0" encoding="UTF-8"?>
<svg width="54px" height="20px" viewBox="0 0 54 20" version="1.1" xmlns="http://www.w3.org/2000/svg" xmlns:xlink="http://www.w3.org/1999/xlink">
    <title>Logo</title>
    <g id="Landing-Page---Signup" stroke="none" stroke-width="1" fill="none" fill-rule="evenodd">
        <g transform="translate(-80.000000, -65.000000)" fill="#003D9F" fill-rule="nonzero" id="Logo">
            <g transform="translate(80.000000, 65.000000)">
                <path d="M53.4254561,8.9855229 C53.0727483,8.07718658 52.5378831,7.25143669 51.8540984,6.55958754 C51.1776077,5.88748561 50.3702472,5.36301105 49.4826102,5.01903005 C48.5644194,4.65279663 47.5843653,4.46855632 46.5965006,4.4764705 C45.5903373,4.46868267 44.5918411,4.65279227 43.6539941,5.01903005 C42.7772469,5.36805118 41.9800764,5.89213788 41.3107043,6.55958754 C40.6635503,7.2253917 40.1493988,8.04348085 39.76825,9.01385499 C39.3871012,9.96486887 39.1965268,11.0398357 39.1965268,12.2387553 C39.1965268,13.3798303 39.246579,13.9592216 39.5743858,14.8963055 C39.6618009,15.1463363 39.8366312,15.6336482 39.8613048,15.6811045 C39.6321926,16.254121 38.7707304,17.0785849 37.8169185,17.3569477 C37.4695889,17.4333265 37.1150279,17.4715631 36.7594772,17.4709844 C35.9974146,17.4709844 35.3643597,17.3555311 34.9265791,16.8611361 C34.5071274,16.3653245 34.316788,15.7774336 34.316788,14.749687 L34.316788,1.27494413 C34.316788,0.57081193 33.7486689,0 33.0478585,0 L33.0140204,0 C32.31321,0 31.7450909,0.57081193 31.7450909,1.27494413 L31.7450909,15.0060924 C31.7450909,15.8999699 31.8595295,16.6609227 32.0884068,17.2889507 C32.1081457,17.3385318 32.1285896,17.3874047 32.1490334,17.4355693 C32.0298529,17.4022697 31.9056874,17.390754 31.7824538,17.4015708 C30.7750648,17.4894002 28.1349865,17.7458057 27.4208612,17.0977091 C27.356767,17.0374484 27.2973755,16.9723291 27.2432111,16.9029259 C26.8202346,16.3681577 26.8202346,15.1874178 26.8202346,14.5088642 L26.8202346,6.31380665 C26.8199996,5.75518521 26.4292712,5.27355686 25.8847515,5.16069051 L25.8847515,5.16069051 L25.8798168,5.16069051 L25.8727672,5.16069051 C25.7479891,5.14369126 24.7934722,5.0331961 24.4416967,5.6812927 C24.436762,5.68979233 24.4318273,5.69829195 24.4275975,5.70749988 C24.3666456,5.80785048 24.2683591,5.87961551 24.1545412,5.9068751 C24.0407234,5.9341347 23.9207846,5.91463506 23.8213312,5.85270185 C23.4496157,5.61714934 23.0571902,5.41633163 22.6489814,5.25276981 C21.9628195,4.94819982 21.1913574,4.79591483 20.334595,4.79591483 C18.3932321,4.7660473 16.5357007,5.58952211 15.2490076,7.05044103 C14.6190799,7.78946087 14.1342111,8.6417028 13.820052,9.56208097 C13.4709891,10.5513323 13.2970562,11.5943626 13.3061356,12.6439042 C13.3061356,13.8244081 13.477441,14.8896947 13.820052,15.8397642 C14.0318645,16.3963646 14.3381234,16.9118517 14.7252217,17.3633224 L3.97879889,17.3208243 C3.27964088,17.3184827 2.71409529,16.748356 2.71409917,16.0458802 L2.71409917,1.27494413 C2.71409917,0.57081193 2.14598009,0 1.44516969,0 L1.26892948,0 C0.568119081,0 0,0.57081193 0,1.27494413 L0,18.6637654 C0,19.3662413 0.565541709,19.936368 1.26469972,19.9387096 L19.9510963,19.9989153 C20.4817073,20.0042652 21.0105768,19.9370688 21.5231589,19.799174 C21.9990075,19.6660132 22.5756654,19.4606055 22.9570492,19.2325322 C23.1473887,19.1184955 23.2989552,19.0327909 23.4434722,18.9492113 C23.5879892,18.8656316 23.7254565,18.7763855 23.8840727,18.6602239 C24.2365531,18.4024019 24.8385897,18.5263548 25.0966053,18.8826309 C25.660574,19.6617634 26.6235505,19.9996236 27.9770753,19.9996236 L36.4069968,19.9996236 C36.9640692,20.0052405 37.5200074,19.9479814 38.0643597,19.8289227 C39.1154563,19.5866833 40.722767,18.5709778 41.3649863,17.5318984 C41.3910698,17.4901085 41.3255085,17.5609388 41.3649863,17.5318984 C41.7463701,18.1622874 43.0406782,19.1206204 43.744934,19.4202323 C44.6465078,19.8088796 45.6182913,20.0061349 46.5993204,19.9996236 C47.5966417,20.0091573 48.5864186,19.8251747 49.5143334,19.4577723 C51.3292264,18.7218546 52.7505631,17.2503111 53.4282759,15.4055749 C53.8098947,14.4352007 54,13.360234 54,12.1806745 C54,11.0011151 53.8080148,9.93606458 53.4254561,8.9855229 Z M24.2478325,15.3914088 C24.2535958,15.6803409 24.1497603,15.9606582 23.9573886,16.1754995 C23.5757972,16.5850963 23.1285195,16.9274718 22.6341772,17.1883718 C21.9870231,17.5311901 21.3440989,17.7443891 20.6201041,17.7443891 C19.9532112,17.7443891 19.2101825,17.6395603 18.6377543,17.3732387 C18.085065,17.106917 17.617676,16.8342206 17.1989292,16.3582415 C16.7794775,15.8624299 16.5045428,15.448073 16.2761355,14.7822689 C16.0419243,14.0639104 15.9259616,13.3119634 15.9328196,12.5560748 C15.9245293,11.7908122 16.0404895,11.0293119 16.2761355,10.3015486 C16.4772597,9.66627041 16.7971548,9.0753734 17.2186681,8.56054152 C17.6250393,8.07542466 18.1322918,7.68568703 18.7047255,7.41875823 C19.2964628,7.14798891 19.9403263,7.01159254 20.5904958,7.01927573 C21.2533066,7.01523006 21.9114281,7.13111518 22.5333678,7.36138574 C22.9326624,7.49375714 23.3189688,7.66281155 23.6873887,7.86640527 C24.0441986,8.07732281 24.2588352,8.46631379 24.2478325,8.88211076 L24.2478325,15.3914088 Z M51.0257694,14.4606996 C50.8314111,15.0988545 50.51083,15.6910185 50.0832368,16.2017067 C49.6783416,16.6808139 49.1704561,17.0612933 48.5978843,17.3144496 C47.9668385,17.5889943 47.28478,17.7251833 46.5972055,17.7139321 C45.9353744,17.7201356 45.2808306,17.5747994 44.6832369,17.2889507 C44.1110059,16.9839899 43.598077,16.5780358 43.168981,16.0905032 C42.7403639,15.5598965 42.4023283,14.9615212 42.1686416,14.3197475 C41.9393912,13.629707 41.8236689,12.906723 41.8259952,12.1792579 C41.8259952,10.5430796 42.2450124,9.23035939 43.0829758,8.24109719 C43.9209392,7.25183498 45.0923491,6.75602338 46.5972055,6.75366237 C47.2538983,6.74789933 47.9017039,6.90635871 48.4822708,7.21476716 C49.0638227,7.4929553 49.5801388,7.89174412 49.9972316,8.38488255 C50.443365,8.89133869 50.7841985,9.48231607 50.9996859,10.1230564 C51.2490229,10.7989086 51.3748792,11.5144349 51.3712002,12.2352138 C51.3799925,12.9911783 51.2632476,13.7433235 51.0257694,14.4606996 Z" id="Shape"></path>
            </g>
        </g>
    </g>
</svg>