<svg width="79" height="40" viewBox="0 0 79 40" fill="none" xmlns="http://www.w3.org/2000/svg">
<path d="M29.5069 36.5474C29.6055 36.5967 29.6055 36.5967 29.6055 36.5967C30.3448 36.3503 31.1335 36.1038 31.8728 35.8574C31.9221 35.8081 32.0207 35.7095 32.0207 35.6109C32.07 35.4138 32.0207 35.2659 32.0207 35.0687C32.0207 34.6744 32.0207 34.3294 32.07 33.9351C32.07 33.5901 32.1192 33.245 32.0207 32.9C31.9221 32.7521 31.9221 32.5057 31.9221 32.3085C31.8235 31.5199 32.1192 30.7806 32.2671 29.9919C32.3657 29.5483 32.3657 29.1047 32.2178 28.6118C31.9714 27.7739 31.6263 26.8867 31.7249 25.9502C31.7249 25.408 31.7249 24.8166 31.7742 24.2744C31.7742 23.8801 31.8235 23.4365 31.8728 23.0422C31.9221 22.845 31.9714 22.6971 31.9221 22.5C31.8728 22.0071 31.7742 21.5142 31.7742 20.972C31.7249 20.1341 31.7249 19.2962 31.5278 18.5075C31.5278 18.4582 31.5278 18.409 31.5278 18.3597C31.4785 16.7824 31.4292 15.2544 31.3799 13.7265C31.3799 13.6279 31.3799 13.5293 31.3306 13.4307C31.0842 12.5928 31.1827 11.7056 31.2813 10.8677C31.3306 10.0791 31.3306 9.33973 31.0842 8.60039C30.9856 8.20608 30.9363 7.76247 30.887 7.36816C30.887 7.171 30.887 6.97385 30.8377 6.7274C30.8377 6.38237 30.5913 6.18521 30.2462 6.13593C29.9012 6.08664 29.5562 5.98806 29.2112 6.03735C28.6197 6.03735 28.0282 6.18521 27.4368 6.18521C26.1059 6.18521 24.7751 6.48095 23.4936 6.62882C23.0993 6.67811 22.8529 6.87527 22.705 7.22029C22.4585 7.71318 22.2121 8.15679 22.1135 8.69897C22.1135 8.94541 22.0149 9.19186 21.8671 9.43831C21.3742 10.1776 21.0784 11.0156 20.7334 11.8535C20.487 12.445 20.2405 13.0857 20.2405 13.7265C20.2405 14.3179 20.0434 14.7615 19.7969 15.2544C19.4519 15.8952 19.2547 16.6345 19.3533 17.3739C19.5012 18.5568 19.1069 19.444 18.1211 20.0848C17.6282 20.4298 17.086 20.4298 16.5931 20.0848C16.396 19.8876 16.1988 19.6412 16.0016 19.3947C15.8045 19.099 15.6073 18.8033 15.3609 18.5568C14.9666 18.2118 14.6708 17.8175 14.5723 17.3246C14.3751 16.7824 14.0794 16.3388 13.6358 15.9938C13.34 15.7473 13.0936 15.4516 12.9457 15.1066C12.6993 14.6137 12.5514 14.1208 12.4035 13.5786C12.3049 13.2336 12.1571 12.9378 11.9599 12.6914C10.9741 11.5085 10.3334 10.2269 9.84048 8.79755C9.64333 8.20608 9.34759 7.6639 8.90399 7.171C8.75612 6.97385 8.55896 6.77669 8.41109 6.53024C8.11536 6.08664 7.81962 6.03735 7.37602 6.2345C6.48881 6.57953 5.6509 6.77669 4.7144 6.7274C4.36937 6.7274 3.97506 6.77669 3.63004 6.87527C3.28501 6.97385 3.13714 7.26958 3.18643 7.61461C3.28501 8.45252 3.28501 9.24115 3.08785 10.0791C3.03856 10.2762 3.03856 10.5227 3.03856 10.7198C3.03856 11.3113 3.08785 11.8535 3.13714 12.445C3.23572 13.2336 3.28501 14.0222 3.72861 14.7616C3.82719 15.008 3.92577 15.3037 3.92577 15.5995C4.02435 16.4374 4.07364 17.3246 4.17222 18.1625C4.17222 18.5568 4.22151 18.9018 4.22151 19.2962C4.32009 20.2327 4.46795 21.1692 4.36937 22.0564C4.32009 22.7957 4.32009 23.4858 4.36937 24.2251C4.46795 25.063 4.36938 25.9009 4.46795 26.7388C4.56653 27.281 4.51724 27.8725 4.61582 28.4147C4.7144 29.3512 4.61582 30.337 4.46795 31.2735C4.41866 31.6185 4.41866 31.9635 4.46795 32.3085C4.56653 32.8014 4.51724 33.245 4.46795 33.6886C4.41866 33.8858 4.41866 34.0829 4.41866 34.2801C4.36937 34.9209 4.41866 35.5616 4.41866 36.2024C4.41866 36.4981 4.46795 36.5967 4.81298 36.5967C4.91156 36.5967 5.01014 36.5967 5.05942 36.5967C5.94663 36.5474 6.78455 36.4981 7.62247 36.4488C8.06607 36.3995 8.31252 36.2024 8.31252 35.7588C8.31252 35.463 8.21394 35.1673 8.16465 34.8716C8.06607 34.5266 8.01678 34.1815 7.96749 33.8365C7.86891 33.0479 7.81962 32.21 7.72105 31.4213C7.72105 31.1256 7.72105 30.7806 7.72105 30.4848C7.77033 29.9919 7.9182 29.4498 7.86891 29.0062C7.77033 28.2175 7.72104 27.5275 7.77033 26.7388C7.86891 25.5559 7.86891 24.373 7.86891 23.19C7.86891 22.7464 7.67176 22.3028 7.72105 21.8592C7.77033 21.0213 7.72105 20.1834 7.67176 19.3947C7.62247 18.8033 8.01678 18.3104 8.55896 18.1132C9.15043 17.9161 9.93906 18.1625 10.3827 18.754C10.6291 19.0004 10.777 19.2962 10.9741 19.5919C11.122 19.8876 11.2699 20.1834 11.5163 20.3805C12.0585 20.7748 12.5514 21.1692 13.1429 21.4649C13.8822 21.8099 14.523 22.3028 14.9666 22.9929C15.2623 23.3872 15.6566 23.6829 16.0509 23.9294C16.9381 24.5208 17.6775 25.2602 18.3182 26.0981C18.4168 26.2952 18.5647 26.4431 18.7126 26.591C18.9097 26.8374 19.1069 26.7881 19.2547 26.4924C19.3533 26.3445 19.4519 26.1474 19.5505 25.9995C19.9941 25.5066 20.1912 24.9151 20.3391 24.2744C20.487 23.535 20.8813 22.8943 21.177 22.2042C21.2756 21.8592 21.4728 21.5635 21.6206 21.2184C21.8178 20.7748 21.9656 20.3312 22.1135 19.8876C22.2121 19.5919 22.36 19.2469 22.36 18.9511C22.4092 18.2118 22.6557 17.571 23.0007 16.9796C23.2965 16.536 23.5922 16.0431 23.8879 15.6488C24.1344 15.4023 24.3808 15.2052 24.6766 15.1066C25.4652 14.8601 26.2045 15.0573 26.451 15.8952C26.6974 16.8317 26.9439 17.7189 27.0917 18.7047C27.2889 19.5919 27.2396 20.5284 27.486 21.4156C27.6339 21.9578 27.6339 22.5493 27.6832 23.1407C27.7818 23.6829 27.8311 24.1758 27.8804 24.718C27.9296 25.0137 27.9789 25.3095 28.0282 25.6052C28.1761 26.0981 28.2747 26.5417 28.2254 27.0346C28.1761 27.4782 28.1761 27.9218 28.2254 28.3654C28.3733 29.0554 28.5704 29.7455 28.669 30.4355C28.7676 30.7806 28.8661 31.1256 28.8169 31.4706C28.669 32.2592 28.8169 33.0479 29.0633 33.7872C29.359 34.5758 29.5562 35.3645 29.4083 36.2517C29.4083 36.3503 29.4576 36.4981 29.5069 36.5474ZM24.5287 22.0071C24.3315 22.3521 24.233 22.5985 24.0851 22.845C23.6415 23.7815 23.2965 24.7673 22.7543 25.6545C22.1135 26.7881 21.6206 27.9711 21.1277 29.154C20.9799 29.5976 20.7334 29.9426 20.3391 30.1891C19.7969 30.5834 19.0083 30.5834 18.4168 30.0905C17.9732 29.7455 17.5789 29.3512 17.1846 28.9569C16.9874 28.7597 16.8396 28.5133 16.5931 28.3654C15.8045 27.8232 15.213 27.0346 14.5723 26.2952C14.3258 26.0488 14.0794 25.8023 13.7836 25.6545C12.7978 25.1123 12.0092 24.3237 11.2699 23.4858C10.9248 23.19 10.5798 22.845 10.2841 22.5493C10.0376 22.5985 9.98835 22.7957 9.98835 22.9929C9.93906 23.19 9.98835 23.3872 9.98835 23.5843C9.98835 23.9294 9.98835 24.3237 9.98835 24.718C9.93906 25.0137 9.88977 25.3587 10.0376 25.6545C10.3827 26.6896 10.5305 27.7246 10.3827 28.809C10.2841 29.9426 10.3334 31.0763 10.4812 32.21C10.5798 32.6536 10.6784 33.1465 10.7277 33.5901C10.7277 33.8365 10.7277 34.0829 10.6784 34.3294C10.6291 34.8716 10.6291 35.4138 10.8263 35.9559C11.0727 36.8431 11.122 37.7796 10.5798 38.6176C9.98835 39.4555 9.15043 39.8005 8.16465 39.5048C6.93242 39.1597 5.6509 39.1105 4.41866 39.0119C4.22151 38.9626 4.07364 39.0119 3.87648 39.0612C3.63004 39.1105 3.43288 39.1105 3.3343 38.864C3.08785 38.3711 2.98927 37.8289 3.08785 37.2868C3.13714 37.0403 3.13714 36.7939 3.03856 36.5474C2.8907 36.0052 2.84141 35.4631 2.84141 34.8716C2.79212 34.428 2.69354 33.9844 2.59496 33.5408C2.49638 33.0479 2.49638 32.555 2.59496 32.0621C2.64425 31.8649 2.69354 31.7171 2.64425 31.5199C2.54567 30.8791 2.44709 30.2384 2.34851 29.5483C2.15136 28.2668 1.80633 27.0346 1.85562 25.7038C1.85562 25.5559 1.80633 25.408 1.75704 25.2602C1.60918 24.718 1.65846 24.1265 1.60918 23.535C1.60918 22.9929 1.55989 22.4014 1.46131 21.8592C1.26415 20.7256 0.968415 19.5426 0.771258 18.409C0.574101 17.3739 0.426233 16.3388 0.327654 15.2544C0.229076 14.5151 0.278365 13.7758 0.278365 13.0857C0.229076 12.79 0.229076 12.5435 0.179786 12.2478C0.081208 11.6563 0.0319187 11.0649 0.130497 10.4241C0.179786 9.9312 0.130497 9.43831 0.0319188 8.94541C-0.0666598 8.15679 0.081208 7.36816 0.229076 6.57953C0.327654 6.2345 0.426233 5.88948 0.574101 5.54445C0.820547 4.70654 1.31344 4.31222 2.15136 4.26293C2.98927 4.26293 3.72861 4.11507 4.51724 3.81933C5.10871 3.57288 5.70019 3.4743 6.34095 3.32644C6.73526 3.17857 7.12957 3.27715 7.4746 3.42502C7.86891 3.57288 8.26323 3.67146 8.65754 3.62217C9.15043 3.57288 9.54475 3.77004 9.84048 4.11507C10.1362 4.46009 10.432 4.80512 10.6291 5.19943C11.1713 6.13593 11.7628 7.07242 12.4035 7.95963C12.7486 8.35395 12.9457 8.79755 13.0936 9.29044C13.1922 9.68476 13.4386 10.1284 13.5865 10.5227C13.8329 11.0649 14.0794 11.5577 14.3258 12.0506C14.4244 12.2478 14.523 12.445 14.6215 12.5928C15.1637 13.3322 15.6073 14.1208 15.8045 15.008C15.9031 15.353 16.1002 15.6488 16.396 15.8459C16.5931 15.9938 16.7903 16.1417 16.9874 16.3388C17.0367 16.1909 17.086 16.1417 17.1353 16.0431C17.2832 15.353 17.431 14.6137 17.6282 13.9236C17.8253 13.2829 18.0718 12.5928 18.2689 11.9521C18.4168 11.607 18.4661 11.2127 18.5647 10.8677C18.7126 10.4241 18.9097 9.98049 19.0576 9.53689C19.1562 9.24115 19.2054 8.94541 19.304 8.69897C19.4026 8.35394 19.4519 7.91034 19.649 7.61461C20.0927 6.92455 20.1912 6.13593 20.487 5.39659C20.6348 5.15014 20.6841 4.8544 20.832 4.65725C21.177 4.01649 21.7192 3.62217 22.4585 3.57288C23.0993 3.5236 23.7401 3.4743 24.3808 3.42502C25.0709 3.37573 25.7609 3.37573 26.451 3.32644C26.6974 3.32644 26.9439 3.27715 27.141 3.22786C27.7818 3.07999 28.4225 3.0307 29.0633 3.07999C29.7041 3.17857 30.2955 3.12928 30.887 3.22786C31.6263 3.32644 32.3164 3.72075 32.9079 4.16435C33.2529 4.46009 33.4501 4.8544 33.5486 5.24872C33.7458 6.08664 33.8937 6.97385 33.8937 7.86105C33.8937 9.43831 33.9922 11.0649 34.288 12.6421C34.3373 12.9871 34.3373 13.3322 34.3373 13.6772C34.3865 14.5644 34.5344 15.4516 34.4851 16.3881C34.4358 17.6203 34.4851 18.9018 34.5344 20.1341C34.5344 20.7256 34.4851 21.317 34.4358 21.8592C34.3865 22.2042 34.4358 22.5493 34.4851 22.8943C34.5344 23.2393 34.633 23.6336 34.6823 23.9786C34.7316 24.718 34.7809 25.5066 34.8301 26.246C34.8794 27.0839 34.633 27.9218 34.5344 28.7597C34.4851 29.0554 34.4851 29.3019 34.5344 29.5483C34.7809 30.7806 34.978 32.0128 34.8794 33.2943C34.8794 33.5408 34.9287 33.7872 34.978 33.9844C35.1752 34.6744 35.1752 35.3645 35.0766 36.0545C35.0273 36.3503 35.0273 36.6953 34.978 36.991C34.9287 37.8289 34.4358 38.4204 33.4501 38.5683C33.105 38.6176 32.76 38.6669 32.415 38.7654C31.5278 38.9626 30.6406 39.209 29.7041 39.209C29.4576 39.209 29.1619 39.2583 28.9154 39.3076C27.9789 39.5048 27.2396 38.9133 27.1903 37.9768C27.1903 37.2868 27.0424 36.646 26.7467 36.0052C26.5495 35.5123 26.5495 35.0194 26.5988 34.5266C26.6481 33.6886 26.5003 32.9 26.3031 32.0621C26.0074 30.9284 25.7609 29.7455 25.7609 28.5626C25.7116 27.6753 25.7116 26.7881 25.6623 25.9009C25.6131 25.7038 25.5638 25.4573 25.4652 25.3095C25.1202 24.718 24.9723 24.1265 24.923 23.4858C24.8737 23.0422 24.7751 22.5493 24.5287 22.0071Z" fill="#1A1A1A"/>
<path d="M61.7913 15.7966C61.742 16.0431 61.742 16.2895 61.4463 16.4374C61.397 16.4867 61.1506 16.4867 61.052 16.4867C60.8548 16.536 60.7563 16.4867 60.5098 15.8952C60.4605 15.7966 60.4112 15.698 60.3127 15.6488C59.524 15.0573 58.6368 14.7123 57.7003 14.5151C57.4539 14.4658 57.2074 14.4658 56.961 14.5151C56.3202 14.6137 55.6302 14.7616 54.9894 14.8601C54.4472 14.9587 54.0529 15.1559 53.6586 15.5009C53.3629 15.698 53.0671 15.8952 52.8207 16.0924C52.4264 16.3388 52.0813 16.6838 51.8842 17.1767C51.6377 17.8175 51.4899 18.5075 51.4406 19.1976C51.342 20.0848 51.2434 20.9227 51.3913 21.8592C51.5392 22.5985 51.7856 23.3379 52.2785 23.9294C52.7221 24.4715 53.3136 24.8166 54.0529 24.9644C54.6937 25.1123 55.3344 25.408 55.9752 25.6052C56.5174 25.8024 57.1581 25.8516 57.651 25.6052C58.5875 25.2109 59.6719 25.0137 60.2634 24.0279C60.2634 24.0279 60.2634 24.0279 60.3127 23.9786C60.9041 23.4365 61.6928 23.5843 62.0378 24.3237C62.3335 24.8166 62.6292 25.3587 62.925 25.8516C63.27 26.3938 63.7136 26.7388 64.453 26.6403C65.5373 26.4924 66.6217 26.6896 67.706 26.8867C68.3961 26.9853 69.0369 26.9853 69.6283 26.6896C70.1212 26.4924 70.6634 26.3445 71.2056 26.3445C71.3042 26.3445 71.452 26.2952 71.5506 26.246C72.1421 25.8516 72.6843 25.4573 73.2264 25.0137C73.8672 24.4223 74.4094 23.7322 74.7051 22.8943C74.8037 22.7464 74.9516 22.5985 75.0009 22.4014C75.3952 21.7113 75.7402 21.0213 76.0852 20.3312C76.1345 20.2819 76.1838 20.1834 76.1838 20.1341C76.2331 19.4933 76.3317 18.8526 76.2824 18.2611C76.2331 17.6203 76.3317 17.0781 76.381 16.4867C76.4302 15.5502 76.8739 14.6137 76.4795 13.6772C76.4795 13.6279 76.5288 13.5293 76.4795 13.48C76.381 12.9871 76.3317 12.445 76.0852 12.0506C75.543 11.0156 74.9023 10.0298 74.3601 8.94542C73.9658 8.20608 73.4236 7.71319 72.6843 7.36816C72.1914 7.12171 71.7478 6.7274 71.4027 6.2838C70.8113 5.64303 70.1212 5.24872 69.2833 5.05156C68.9383 4.95298 68.5933 4.80511 68.2975 4.65725C67.6075 4.21364 66.8681 3.91791 66.0795 3.67146C65.5866 3.5236 65.0444 3.32644 64.5515 3.17857C64.0093 3.0307 63.4179 2.93212 62.8757 2.78426C62.1856 2.5871 61.5449 2.48852 60.8055 2.63639C60.3619 2.68568 59.9183 2.68568 59.4747 2.63639C59.0804 2.5871 58.7847 2.63639 58.4397 2.83355C57.9961 3.12928 57.5032 3.32644 57.0103 3.27715C55.9752 3.22786 55.088 3.57288 54.2994 4.11506C53.7572 4.50938 53.1657 4.75583 52.5249 4.80512C52.1306 4.80512 51.8349 4.95298 51.4899 5.15014C50.4548 5.7909 49.469 6.62882 48.2861 7.12171C48.1382 7.171 47.9903 7.31887 47.8425 7.46674C47.596 7.71318 47.4481 7.95963 47.2017 8.15679C46.6102 8.69897 46.1173 9.38902 45.6737 10.0791C45.3287 10.5227 44.9837 11.0649 44.5401 11.4099C43.6529 12.0999 43.1107 13.0364 42.4206 13.8743C41.9277 14.5151 41.6813 15.2544 41.4841 16.0431C41.3856 16.536 41.1884 16.9796 40.8434 17.3739C40.6462 17.6203 40.5476 17.9654 40.5476 18.3104C40.5476 18.6061 40.4984 18.9511 40.4491 19.2469C40.3998 19.6412 40.2519 19.9862 40.2519 20.3805C40.2026 21.3663 40.1533 22.4014 40.1533 23.3872C40.1533 23.6829 40.2026 23.9294 40.2519 24.2251C40.2519 24.4715 40.3012 24.7673 40.3505 25.0137C40.4491 25.6052 40.4491 26.246 40.6955 26.7388C41.0405 27.4289 41.3856 28.1189 41.6813 28.809C41.8292 29.2033 42.0263 29.5976 42.2235 29.9919C42.3221 30.2384 42.4206 30.4848 42.5685 30.7313C43.1107 31.5199 43.6529 32.3085 44.2936 33.0479C44.7372 33.6393 45.4273 33.9844 46.068 34.428C46.4131 34.6744 46.7581 34.9209 47.1031 35.1673C47.3003 35.3152 47.4974 35.5123 47.7439 35.6109C48.3354 35.8081 48.9268 36.0052 49.5183 36.1038C50.2576 36.2517 50.8984 36.4981 51.5392 36.8432C51.7856 36.9417 52.0321 37.0403 52.2785 37.0896C52.5742 37.1389 52.87 37.2375 53.1657 37.2375C53.8065 37.336 54.4965 37.4346 55.1373 37.3853C56.0245 37.2868 56.9117 37.336 57.7989 37.5825C58.1932 37.6811 58.5382 37.6811 58.9326 37.6318C59.3269 37.5332 59.7705 37.5332 60.2141 37.4839C61.1506 37.4346 62.0378 37.4346 62.925 37.0896C63.0729 37.0403 63.2207 37.0403 63.4179 36.991C63.615 36.9417 63.8615 36.9417 64.0586 36.7939C64.6994 36.3503 65.3894 36.0545 66.1288 35.8574C66.4245 35.8081 66.4738 35.6602 66.3752 35.3152C66.3259 34.9702 66.2274 34.6744 66.1288 34.3787C66.0302 33.8365 65.7345 33.6886 65.1923 33.7872C64.6994 33.8365 64.2065 33.9351 63.7136 33.8858C63.0728 33.8858 62.4814 33.9351 61.8406 34.0829C60.9041 34.3294 59.9676 34.3787 58.9818 34.1815C58.6368 34.1322 58.2425 34.1322 57.8975 34.0829C57.306 34.0829 56.6652 34.1322 56.0738 34.0829C55.088 34.0337 54.1022 33.8858 53.1164 33.8365C51.9828 33.7379 50.9477 33.5901 50.1591 32.7521C49.8633 32.4564 49.5183 32.2592 49.1733 32.1114C48.5818 31.9635 48.0889 31.6185 47.6946 31.1749C46.8567 30.337 45.9695 29.5483 45.033 28.9076C44.7372 28.7104 44.3922 28.464 44.2936 28.1682C43.8993 27.4289 43.505 26.7388 43.3571 25.9502C43.2093 25.3095 43.0121 24.6687 42.8642 23.9786C42.7657 23.7322 42.7164 23.4858 42.7164 23.2393C42.7164 22.6478 42.7164 22.0564 42.7164 21.4649C42.7657 20.972 42.815 20.4298 42.9135 19.9369C43.0121 19.1976 43.0614 18.409 43.3078 17.6696C43.3571 17.5217 43.4557 17.3739 43.4557 17.1767C43.505 16.536 43.85 16.0924 44.1951 15.5995C44.3922 15.3037 44.4908 14.9587 44.6387 14.663C44.7372 14.4658 44.8358 14.2194 44.9837 14.0222C45.3287 13.5786 45.6244 13.135 46.0188 12.7407C46.5609 12.0999 47.1031 11.5577 47.6453 10.9663C47.941 10.6213 48.2368 10.3255 48.5818 9.98049C48.9268 9.63547 49.2719 9.24115 49.7647 8.99471C50.0112 8.84684 50.2576 8.64968 50.5041 8.50181C50.8984 8.20608 51.2434 7.86105 51.687 7.61461C52.3771 7.22029 53.0671 6.92456 53.7572 6.62882C54.2501 6.38237 54.743 6.23451 55.1866 5.93877C55.6795 5.64303 56.1724 5.49517 56.7145 5.44588C57.5032 5.3473 58.2425 5.19943 59.0311 5.10085C59.8198 5.00227 60.6577 4.85441 61.4956 5.10085C61.7913 5.19943 62.0871 5.24872 62.3335 5.19943C64.0586 5.15014 65.6359 5.74161 67.0653 6.53024C67.9525 6.97384 68.7411 7.51603 69.5297 8.05821C70.3184 8.50181 70.8606 9.19186 71.4027 9.83262C71.7478 10.2269 72.0928 10.572 72.2407 11.1141C72.3392 11.4592 72.5364 11.7549 72.6843 12.0506C72.8814 12.3957 73.0293 12.7407 73.0293 13.135C73.0293 13.2336 73.0293 13.3815 73.0786 13.48C73.325 14.1208 73.325 14.8108 73.325 15.4516C73.325 15.7966 73.325 16.1909 73.2264 16.536C73.0293 16.9303 72.98 17.3739 73.0293 17.8175C73.0786 18.2611 73.1279 18.754 73.0786 19.1976C72.98 20.0848 72.7828 21.0213 72.3885 21.8592C71.7478 23.0422 70.9098 23.9294 69.4312 24.0279C69.1354 24.0772 68.8397 24.2251 68.4947 24.2744C68.2482 24.2744 67.9525 24.3237 67.6568 24.3237C67.4103 24.3237 67.1639 24.2744 66.9174 24.2251C66.3752 24.1758 65.833 24.0279 65.3894 23.6336C64.8473 23.19 64.4529 22.5985 64.2065 21.9578C64.0093 21.5635 63.8615 21.1692 63.6643 20.7748C63.4179 20.2819 63.3686 19.7891 63.4672 19.2469C63.6643 18.3597 63.6643 17.4725 63.6643 16.536C63.6643 16.0924 63.7629 15.6488 63.8122 15.2052C63.8122 14.8601 63.8615 14.5151 63.8615 14.1701C63.8615 13.8251 63.7629 13.7265 63.4179 13.7265C63.1221 13.7265 62.7771 13.7758 62.4814 13.7758C62.0378 13.7758 61.9885 13.8251 61.8899 14.2194C61.7913 14.7616 61.7913 15.2544 61.7913 15.7966ZM61.052 26.7881C60.9041 26.8867 60.8055 26.9853 60.707 27.0839C60.0662 27.6753 59.2776 27.9218 58.3904 27.9218C58.2425 27.9218 58.0453 27.9218 57.8975 27.9711C57.3553 28.1189 56.8131 28.1189 56.2709 28.0697C55.9259 27.9711 55.5809 28.0204 55.1866 28.0204C54.6444 28.0204 54.1022 27.8725 53.6093 27.5275C52.87 27.0839 52.1306 26.591 51.342 26.1474C50.7998 25.8023 50.4055 25.2602 50.0605 24.718C49.2226 23.4858 48.8282 22.1549 48.8282 20.6763C48.8282 20.4791 48.8282 20.3312 48.8282 20.1341C48.779 19.9369 48.7297 19.7398 48.779 19.5919C49.0747 18.1625 49.124 16.6838 50.1591 15.5009C50.3562 15.3037 51.8842 13.9729 52.1306 13.8251C52.6235 13.5293 53.1657 13.2829 53.6093 12.9378C54.2008 12.5435 54.743 12.2971 55.4823 12.3464C56.3202 12.3957 57.2074 12.3957 58.0946 12.445C58.4397 12.445 58.7847 12.5928 59.0804 12.79C59.2776 12.8886 59.4747 13.0364 59.6719 13.1843C59.7212 13.0364 59.7212 12.9378 59.7705 12.8393C59.9183 12.1985 60.3619 11.8535 60.9041 11.607C61.2984 11.4099 61.6928 11.262 62.0378 11.0649C62.4814 10.8677 62.8757 10.7198 63.3193 10.7198C63.9108 10.6705 64.5022 10.6705 65.0937 10.7198C65.8823 10.7691 66.3752 11.3606 66.3752 12.1492C66.3752 12.4942 66.4245 12.8393 66.4245 13.1843C66.4245 13.6772 66.3752 14.1701 66.3752 14.663C66.3752 14.8601 66.3259 15.0573 66.3752 15.2544C66.5231 16.0924 66.4738 16.881 66.4245 17.7189C66.3752 18.409 66.3259 19.099 66.3259 19.7398C66.3259 19.9369 66.3752 20.1341 66.4245 20.3312C66.7203 20.972 67.1639 21.5635 67.7553 22.0564C68.0018 22.2042 68.1989 22.2042 68.4454 22.0564C68.7411 21.9085 69.0369 21.7113 69.3326 21.6128C69.8255 21.3663 70.0719 20.9227 70.2691 20.4298C70.4662 19.9369 70.6634 19.444 70.8606 18.9511C70.8606 18.8526 70.9098 18.754 70.9591 18.7047C71.4027 18.2118 71.5013 17.6696 71.5506 17.0781C71.5506 16.6838 71.5506 16.2895 71.4027 15.9445C71.1563 15.4516 71.0084 14.8601 71.0577 14.2687C71.0577 13.3322 70.7127 12.4942 70.2691 11.7056C70.1212 11.4592 69.8255 11.3113 69.579 11.1141C69.234 10.8677 68.889 10.572 68.4947 10.3255C68.4947 10.2762 68.4454 10.2762 68.4454 10.2269C67.5582 9.78333 66.8188 9.09328 65.833 8.89613C65.143 8.69897 64.5022 8.40323 63.8122 8.30466C62.8757 8.1075 61.9885 7.95963 61.0027 8.05821C60.5591 8.15679 60.0169 8.00892 59.524 7.95963C59.1297 7.95963 58.7354 7.91034 58.3411 7.95963C57.5032 8.05821 56.7145 8.20608 55.8766 8.30466C55.5316 8.35394 55.1866 8.45252 54.9401 8.74826C54.5458 9.24115 54.0529 9.4876 53.4614 9.53689C52.6728 9.68475 51.9828 10.0791 51.5392 10.7198C51.0956 11.3606 50.5534 11.7549 49.8633 12.0014C49.0254 12.3464 48.3846 12.8886 47.7932 13.5293C47.4974 13.8743 47.2017 14.1701 46.9553 14.4658C46.8567 14.5644 46.8074 14.7123 46.7088 14.8601C46.5609 15.1066 46.4131 15.353 46.2159 15.5502C45.8709 15.8459 45.7723 16.1909 45.6737 16.5853C45.5259 17.3739 45.378 18.1625 45.2301 18.9511C45.1808 19.444 45.1808 19.9369 45.1316 20.4298C45.1316 20.9227 45.0823 21.3663 45.0823 21.8592C45.033 22.3521 45.1316 22.7957 45.2794 23.2886C45.4273 23.7322 45.5752 24.2251 45.6737 24.718C45.8216 25.3095 46.068 25.8023 46.3638 26.3445C46.8074 27.0346 47.3003 27.5768 47.9903 28.0204C48.5818 28.3654 49.0747 28.8583 49.6169 29.3019C49.8633 29.499 50.0605 29.6962 50.3069 29.8441C50.6027 30.0412 50.8491 30.1891 51.2434 30.1398C51.4899 30.1398 51.7363 30.2384 52.0321 30.2877C52.5249 30.4355 53.0178 30.5834 53.56 30.7313C54.0036 30.8791 54.4472 30.8791 54.8908 30.8299C55.5809 30.682 56.2709 30.8791 56.961 30.9777C57.7003 31.027 58.3904 31.0763 59.1297 30.9284C59.8198 30.8299 60.5098 30.7806 61.1506 30.8791C61.8406 31.027 62.4814 30.9777 63.1221 30.7313C63.9601 30.4355 64.8473 30.337 65.7345 30.5341C65.9316 30.5834 66.1781 30.5834 66.4245 30.5834C67.4596 30.6327 68.1497 31.1749 68.3468 32.1607C68.5933 33.3929 68.7904 34.6251 68.9876 35.8574C69.1354 36.5474 68.9383 37.1389 68.2975 37.4839C68.0018 37.6318 67.7553 37.7796 67.5089 37.9275C66.7203 38.2725 65.9316 38.6176 65.0937 38.864C64.2558 39.1597 63.4672 39.5048 62.58 39.5048C62.1364 39.5048 61.6928 39.6033 61.2984 39.8005C60.6084 40.047 59.869 40.047 59.1297 39.8991C58.4397 39.8005 57.7496 39.7019 57.0596 39.7512C56.9117 39.7512 56.7145 39.8005 56.5667 39.8498C56.0738 39.9977 55.5809 39.9977 55.0387 39.8991C54.3486 39.8005 53.7079 39.6033 53.0178 39.3569C52.3278 39.1597 51.5884 39.0612 50.7998 38.9626C50.0605 38.9133 49.3704 38.7654 48.7297 38.3711C48.3846 38.174 47.941 38.0754 47.5467 37.9275C46.8567 37.6318 46.1666 37.3853 45.5259 37.0403C45.1316 36.8431 44.8358 36.4488 44.5894 36.1038C44.3922 35.8574 44.2443 35.6109 43.8993 35.5123C43.2586 35.3152 42.8642 34.8223 42.7164 34.1815C42.6178 33.7872 42.3714 33.5408 42.0756 33.2943C41.7306 32.9493 41.3363 32.6536 40.9913 32.2592C40.7448 31.9142 40.4984 31.5199 40.3505 31.1256C40.2026 30.6327 40.104 30.0905 39.9562 29.5976C39.9069 29.3512 39.8083 29.154 39.7097 29.0062C39.2168 28.3161 38.9211 27.5275 38.6254 26.7881C38.4775 26.3938 38.4775 25.9502 38.4282 25.5066C38.3789 25.2109 38.3296 24.9151 38.2803 24.6194C38.2311 24.4715 38.1818 24.3237 38.1818 24.1758C38.2311 23.0421 38.1325 21.9578 38.3296 20.8734C38.4282 20.4791 38.4282 20.0848 38.3789 19.6905C38.3296 18.8526 38.5761 18.0639 38.8225 17.2753C38.9211 17.0289 38.9704 16.7824 39.0197 16.536C39.1183 16.1417 39.2661 15.7473 39.3647 15.353C39.5126 14.8601 39.7097 14.4165 39.8576 13.9236C39.9562 13.3815 40.2026 12.9378 40.5476 12.4942C41.0405 11.9028 41.4841 11.3113 41.977 10.7198C42.5685 10.0298 43.0614 9.24115 43.6529 8.50181C43.8993 8.15679 44.1951 7.86105 44.4908 7.56532C44.7865 7.26958 45.033 7.02313 45.2794 6.7274C45.5752 6.38237 45.8709 6.13593 46.2159 5.93877C46.5117 5.74161 46.8074 5.54446 47.0538 5.29801C47.7932 4.50938 48.779 3.91791 49.7155 3.32644C50.0605 3.07999 50.5041 2.98141 50.9477 2.83355C51.1941 2.68568 51.4899 2.53781 51.7363 2.38994C52.2292 2.1435 52.6728 1.89705 53.215 1.74918C53.5107 1.69989 53.8065 1.60131 54.0529 1.45345C54.5951 1.15771 55.2359 1.05913 55.8273 0.911261C56.2216 0.861973 56.616 0.763396 57.0103 0.714107C57.306 0.664816 57.6017 0.664816 57.8975 0.664816C58.3411 0.714108 58.7354 0.714107 59.1297 0.467658C59.9676 -0.0252343 60.8548 -0.0745228 61.742 0.0733461C62.9743 0.270504 64.1572 0.51695 65.2909 0.960554C65.5373 1.05913 65.8823 1.05913 66.1781 1.207C66.8681 1.50273 67.5089 1.84776 68.1989 2.1435C68.2975 2.24207 68.3961 2.34065 68.4947 2.34065C69.3326 2.63639 70.1212 3.0307 71.0084 3.17857C72.1421 3.32644 73.0786 3.81933 73.8672 4.60796C74.1137 4.85441 74.3601 5.15014 74.6558 5.3473C75.2473 5.7909 75.6416 6.38237 75.9374 7.02313C76.0359 7.171 76.0852 7.26958 76.1838 7.36816C76.6767 8.1075 77.2189 8.79755 77.7118 9.4876C78.0075 9.88191 78.2539 10.3255 78.2539 10.8184C78.2539 11.607 78.5004 12.2971 78.5004 13.0364C78.599 14.1208 78.6483 15.2544 78.6483 16.3388C78.6483 17.3246 78.5497 18.2611 78.4511 19.2469C78.4511 19.6412 78.3525 20.0355 78.1554 20.3805C78.0075 20.627 77.9582 20.972 77.8596 21.2677C77.7611 21.662 77.7118 22.0564 77.5639 22.4507C77.4653 22.7957 77.3175 23.19 77.2189 23.535C76.9231 24.5208 76.4302 25.3587 75.7895 26.1474C75.1487 26.8867 74.3601 27.4782 73.3743 27.7246C72.9307 27.8232 72.5857 27.9711 72.2407 28.2668C71.8956 28.5625 71.5013 28.7597 71.0577 28.8583C70.5155 29.0062 69.9241 29.154 69.3819 29.2526C69.0861 29.3019 68.7904 29.2526 68.4947 29.2033C68.1004 29.154 67.706 29.0554 67.3117 29.1047C66.4738 29.2526 65.6852 29.1047 64.8473 29.0554C64.6994 29.0554 64.5515 29.0062 64.4037 28.9569C64.0586 28.7104 63.7136 28.7104 63.3193 28.7597C62.3335 28.9076 61.7913 28.6118 61.397 27.7246C61.2984 27.4289 61.1999 27.1332 61.052 26.7881ZM57.0596 20.2819C57.4539 20.2819 57.5525 20.1834 57.6017 19.8383C57.7003 19.5426 57.5525 19.2962 57.4046 19.0497C57.1088 18.6554 56.8624 18.2611 56.616 17.8668C56.4188 17.5218 56.2709 17.4725 55.9259 17.6696C55.6795 17.8175 55.4823 17.9654 55.2851 18.1132C54.6937 18.6061 54.7923 19.5426 55.433 19.8876C55.9752 20.1834 56.5667 20.1834 57.0596 20.2819ZM60.0662 19.1976C59.9183 20.0848 59.9183 20.972 59.2283 21.6621C58.7354 22.2042 58.2425 22.7957 57.4046 22.9436C57.1088 22.9929 56.7638 22.9929 56.4681 22.8943C55.8766 22.7464 55.2359 22.5493 54.6937 22.3028C53.8065 21.8592 53.3136 21.0706 52.9193 20.2327C52.7221 19.7891 52.6728 19.2962 52.8207 18.8033C52.87 18.5568 53.0178 18.3597 53.1657 18.1625C53.3629 17.9654 53.56 17.8175 53.7572 17.6696C54.5458 17.1274 55.3344 16.536 56.3695 16.6345C56.5667 16.6345 56.8131 16.5853 57.0596 16.4867C57.7989 16.1909 58.4397 16.3388 58.9818 16.881C59.6719 17.4725 59.9676 18.3104 60.0662 19.1976Z" fill="#1A1A1A"/>
</svg>
