<svg width="367" height="407" viewBox="0 0 367 407" fill="none" xmlns="http://www.w3.org/2000/svg">
<path d="M156.695 7.17337C173.282 -2.3911 193.718 -2.3911 210.305 7.17337L340.195 82.071C356.782 91.6354 367 109.311 367 128.44V278.235C367 297.364 356.782 315.04 340.195 324.605L210.305 399.502C193.718 409.067 173.282 409.067 156.695 399.502L26.8051 324.605C10.218 315.04 0 297.364 0 278.235V128.44C0 109.311 10.218 91.6354 26.8051 82.071L156.695 7.17337Z" fill="#FEFEFE"/>
<path d="M354.236 128.439C354.235 113.865 346.45 100.397 333.813 93.1098L203.923 18.2136C191.285 10.9264 175.715 10.9264 163.077 18.2136L33.1873 93.1098C20.5498 100.397 12.7647 113.865 12.7643 128.439V278.236C12.7647 292.811 20.5498 306.278 33.1873 313.566L163.077 388.462C175.715 395.749 191.285 395.749 203.923 388.462L333.813 313.566C346.45 306.278 354.235 292.811 354.236 278.236V128.439ZM367 278.236L366.97 280.024C366.355 298.461 356.264 315.34 340.195 324.606L210.305 399.502C194.236 408.768 174.555 409.058 158.26 400.371L156.695 399.502L26.8051 324.606C10.7363 315.34 0.644859 298.461 0.0299164 280.024L0 278.236V128.439C0.000295536 109.908 9.58977 92.741 25.2694 82.9908L26.8051 82.0696L156.695 7.17339C173.282 -2.39111 193.718 -2.39111 210.305 7.17339L340.195 82.0696C356.782 91.6339 367 109.31 367 128.439V278.236Z" fill="black"/>
<path d="M187.772 182.486L321.493 129.159L336.727 242.935L202.803 304.899L187.772 182.486Z" fill="#1A1A1A"/>
<path d="M280.989 282.996L338.364 256.267L338.458 267.328L283.276 291.327L280.989 282.996Z" fill="#1A1A1A"/>
<path d="M336.727 242.934L202.803 304.9L187.772 182.487L321.492 129.159L336.727 242.934ZM338.457 267.328L283.276 291.328L280.99 282.995L338.365 256.268L338.457 267.328ZM201.581 190.66L213.292 286.038L322.884 235.332L311.058 146.999L201.581 190.66Z" fill="black"/>
<path d="M323.113 260.512L339.492 253.559L345.451 267.599L329.072 274.551L323.113 260.512Z" fill="#1A1A1A"/>
<path d="M305.945 220.541C306.255 220.455 306.572 220.3 306.895 220.076C307.35 219.791 307.714 219.469 307.985 219.11C308.009 219.056 308.071 218.988 308.172 218.905C308.637 218.472 309.004 217.972 309.273 217.404C309.301 217.304 309.355 217.156 309.434 216.96C309.726 216.306 309.832 215.662 309.755 215.027C309.633 213.757 309.479 212.809 309.294 212.183C309.228 211.954 309.103 211.742 308.917 211.547C308.738 211.339 308.589 211.125 308.471 210.905C307.951 209.953 307.422 209.282 306.885 208.891C306.817 208.829 306.707 208.716 306.556 208.552C306.344 208.29 306.217 208.146 306.173 208.118C305.811 207.693 305.412 207.447 304.977 207.382C304.566 207.319 304.202 207.22 303.885 207.087C303.679 207.012 303.395 207.021 303.033 207.116C302.734 207.231 302.398 207.265 302.027 207.22C301.935 207.211 301.78 207.226 301.563 207.265C300.677 207.494 300.168 207.612 300.038 207.618C299.663 207.651 299.285 207.818 298.903 208.12C298.751 208.245 298.593 208.338 298.429 208.401C297.972 208.621 297.662 208.912 297.502 209.272C297.459 209.333 297.399 209.422 297.323 209.54C297.246 209.658 297.173 209.769 297.102 209.874C297.041 209.975 296.989 210.083 296.945 210.2C296.854 210.367 296.772 210.543 296.699 210.726C296.693 210.883 296.667 211.12 296.623 211.436C296.578 211.752 296.538 211.994 296.503 212.162L296.427 213.52C296.414 213.89 296.481 214.6 296.63 215.65C296.653 215.94 296.747 216.213 296.912 216.471C297.261 217.034 297.521 217.682 297.691 218.413C297.782 218.766 297.926 219.026 298.123 219.194C298.385 219.414 298.607 219.705 298.79 220.066C299.027 220.452 299.289 220.688 299.577 220.777L299.952 220.932C300.437 221.244 301.193 221.512 302.221 221.738C302.32 221.766 302.776 221.829 303.588 221.927C303.981 221.997 304.289 221.879 304.514 221.571C304.838 221.06 305.315 220.716 305.945 220.541ZM295.343 218.352C295.31 218.209 295.247 217.973 295.154 217.644C295.071 217.311 295.012 217.073 294.98 216.93C294.906 216.737 294.839 216.592 294.779 216.493C294.591 216.178 294.504 215.807 294.518 215.381C294.536 215.197 294.554 214.913 294.573 214.53C294.602 214.143 294.61 213.846 294.597 213.641L294.552 212.745L294.697 211.262C294.713 211.189 294.801 210.973 294.962 210.612C295.042 210.36 295.192 209.987 295.412 209.493C295.547 209.01 295.775 208.651 296.095 208.418C296.088 208.398 296.093 208.385 296.113 208.378C296.249 208.214 296.481 207.954 296.809 207.596C297.136 207.238 297.375 206.952 297.526 206.739C297.79 206.361 298.133 206.13 298.555 206.046C298.849 205.977 299.371 205.865 300.119 205.711C300.139 205.703 300.184 205.691 300.255 205.675C300.326 205.659 300.386 205.641 300.434 205.623C300.721 205.535 301.031 205.521 301.364 205.581C301.594 205.604 301.762 205.595 301.869 205.554C302.286 205.46 302.667 205.458 303.011 205.547C303.285 205.597 303.702 205.586 304.261 205.515C305.165 205.39 305.93 205.583 306.558 206.094C306.578 206.087 306.591 206.093 306.598 206.112C306.81 206.374 307.18 206.719 307.709 207.147C308.235 207.565 308.602 207.9 308.809 208.152C309.123 208.508 309.348 208.864 309.485 209.221C309.51 209.344 309.597 209.482 309.744 209.636C310.013 209.876 310.273 210.307 310.523 210.931C310.575 211.066 310.674 211.266 310.82 211.531C310.945 211.682 311.037 211.895 311.099 212.171C311.124 212.294 311.161 212.462 311.21 212.676C311.255 212.88 311.296 213.074 311.334 213.259C311.368 213.434 311.397 213.611 311.422 213.79C311.447 213.913 311.47 214.219 311.492 214.709C311.495 214.774 311.495 214.918 311.492 215.141C311.485 215.354 311.491 215.512 311.508 215.616C311.562 216.16 311.483 216.688 311.27 217.201C311.18 217.369 311.06 217.62 310.911 217.953C310.895 218.026 310.861 218.095 310.808 218.159C310.676 218.276 310.535 218.485 310.385 218.787C310.244 219.084 310.143 219.267 310.08 219.335C310.049 219.369 309.955 219.499 309.799 219.725C309.652 219.948 309.543 220.111 309.472 220.216C309.408 220.307 309.297 220.422 309.139 220.559C308.992 220.694 308.844 220.8 308.697 220.878C308.666 220.913 308.613 220.961 308.537 221.023C308.471 221.082 308.428 221.115 308.409 221.122C308.123 221.387 307.847 221.576 307.581 221.689C307.458 221.714 307.263 221.855 306.996 222.113C306.552 222.715 305.977 223.046 305.27 223.107C305.101 223.128 304.976 223.165 304.897 223.217C304.69 223.341 304.379 223.438 303.963 223.509C303.396 223.616 302.934 223.683 302.579 223.709C302.243 223.727 301.953 223.678 301.709 223.561C300.924 223.276 300.319 223.098 299.894 223.029C299.471 222.993 298.997 222.782 298.473 222.396C298.165 222.171 297.734 221.828 297.18 221.365C296.899 221.152 296.672 220.819 296.498 220.365C296.307 219.985 296.148 219.714 296.02 219.553C295.735 219.186 295.509 218.786 295.343 218.352ZM300.388 215.535C300.395 215.555 300.411 215.582 300.435 215.616L300.472 215.669C300.704 216.1 301.03 216.473 301.449 216.788C301.51 216.831 301.656 216.952 301.888 217.151C302.129 217.346 302.32 217.483 302.46 217.562C302.688 217.751 302.971 217.781 303.308 217.651C304.031 217.285 304.5 216.878 304.716 216.43C304.787 216.27 304.897 216.023 305.045 215.69C305.204 215.352 305.318 215.103 305.39 214.943C305.449 214.81 305.445 214.64 305.377 214.434C305.277 214.173 305.224 213.978 305.218 213.847C305.18 213.518 305.008 213.214 304.701 212.933C304.439 212.713 304.232 212.532 304.078 212.392C303.508 211.858 303.006 211.459 302.573 211.194C302.314 211.038 302.042 211.021 301.756 211.142C301.491 211.288 301.301 211.383 301.185 211.428C300.905 211.535 300.694 211.605 300.552 211.637C300.284 211.718 300.106 211.875 300.018 212.108C299.795 212.536 299.725 212.901 299.807 213.201C299.81 213.267 299.807 213.373 299.797 213.521C299.793 213.655 299.789 213.745 299.785 213.791C299.779 213.948 299.797 214.113 299.841 214.284C299.881 214.446 299.928 214.583 299.982 214.695C300.032 214.797 300.104 214.941 300.198 215.127C300.287 215.303 300.351 215.439 300.388 215.535ZM299.037 216.601C298.751 215.627 298.571 214.81 298.496 214.153C298.485 214.069 298.499 213.903 298.537 213.656C298.554 213.583 298.575 213.481 298.602 213.349C298.638 213.213 298.669 213.118 298.692 213.065L298.917 212.049C298.909 212.03 298.996 211.781 299.178 211.302C299.314 210.995 299.425 210.692 299.51 210.394C299.648 209.975 299.939 209.709 300.382 209.594C300.543 209.554 300.778 209.503 301.086 209.44C301.394 209.377 301.6 209.337 301.704 209.319C301.933 209.253 302.234 209.287 302.606 209.421C302.986 209.574 303.524 209.81 304.222 210.129C304.624 210.34 304.916 210.51 305.099 210.639C305.327 210.773 305.54 210.995 305.737 211.307C305.928 211.688 306.079 211.967 306.192 212.145C306.357 212.403 306.451 212.676 306.474 212.967C306.487 213.116 306.535 213.358 306.619 213.691C306.678 213.845 306.752 214.066 306.84 214.353C306.928 214.64 307.002 214.861 307.061 215.015C307.168 215.295 307.175 215.586 307.081 215.888C306.892 216.636 306.615 217.24 306.249 217.701C305.879 218.208 305.386 218.58 304.769 218.817L303.646 219.049C303.542 219.067 303.384 219.089 303.173 219.115C302.971 219.137 302.817 219.14 302.712 219.125C302.057 219.178 301.48 219.028 300.98 218.678C300.461 218.335 300.111 218.015 299.931 217.719C299.875 217.63 299.712 217.466 299.443 217.226C299.246 217.058 299.11 216.85 299.037 216.601Z" fill="#FAFAFA"/>
<path d="M289.384 213.467L289.095 213.578C288.64 213.864 288.283 214.117 288.025 214.338C287.905 214.428 287.825 214.58 287.785 214.795C287.752 214.996 287.774 215.17 287.853 215.317L288.058 215.852C288.08 215.91 288.118 216.023 288.172 216.19C288.221 216.348 288.261 216.466 288.29 216.543C288.313 216.601 288.36 216.71 288.433 216.87C288.501 217.021 288.551 217.135 288.58 217.212C288.632 217.347 288.708 217.545 288.808 217.805C288.908 218.066 288.994 218.26 289.065 218.388C289.317 219.043 289.629 219.671 290.003 220.269L290.119 220.573C290.174 220.773 290.246 221.061 290.335 221.436C290.433 221.808 290.51 222.094 290.564 222.294C290.636 222.654 290.817 223.155 291.108 223.796C291.342 224.292 291.494 224.688 291.563 224.982C291.591 225.171 291.704 225.465 291.902 225.865C291.987 226.087 292.152 226.128 292.398 225.99C292.41 225.963 292.438 225.936 292.483 225.907C292.523 225.87 292.553 225.847 292.573 225.84C293.008 225.562 293.387 225.394 293.708 225.337L294.099 225.187C294.091 225.168 294.072 225.131 294.04 225.077C294.008 225.023 293.979 224.99 293.952 224.978C293.599 224.461 293.354 224.012 293.22 223.632C293.139 223.365 293.008 222.994 292.826 222.522C292.812 222.483 292.78 222.357 292.731 222.143C292.678 221.92 292.634 221.76 292.597 221.664L292.391 221.128C292.376 221.09 292.337 221.016 292.273 220.908C292.206 220.79 292.165 220.711 292.15 220.673C292.113 220.576 292.081 220.478 292.053 220.378C292.022 220.268 291.992 220.147 291.963 220.014C291.944 219.878 291.918 219.766 291.885 219.679C291.754 219.165 291.667 218.883 291.626 218.832C291.509 218.7 291.38 218.379 291.239 217.868C291.095 217.348 290.99 217.001 290.923 216.828L290.782 216.417C290.688 216.143 290.631 216.01 290.612 216.017C290.364 215.659 290.174 215.223 290.043 214.708C289.984 214.41 289.764 213.996 289.384 213.467ZM294.22 227.017C293.689 227.221 293.312 227.332 293.087 227.352C292.964 227.377 292.722 227.481 292.36 227.664C292.141 227.815 291.92 227.889 291.698 227.885C291.044 227.882 290.655 227.577 290.533 226.971C290.488 226.623 290.314 226.17 290.011 225.611C289.614 224.922 289.386 224.385 289.326 223.998C289.32 223.868 289.252 223.661 289.122 223.379C288.991 223.097 288.907 222.908 288.87 222.812C288.784 222.413 288.739 222.181 288.736 222.116C288.718 221.78 288.661 221.487 288.564 221.236C288.438 220.963 288.288 220.545 288.116 219.98C288.068 219.799 287.874 219.409 287.533 218.809C287.343 218.429 287.228 218.13 287.189 217.912C287.072 217.205 286.921 216.609 286.736 216.127C286.692 216.011 286.65 215.845 286.611 215.627C286.583 215.383 286.481 215.174 286.303 214.999C286.058 214.705 285.883 214.452 285.778 214.237C285.617 213.934 285.581 213.638 285.67 213.349C285.764 213.047 285.949 212.821 286.223 212.672L286.411 212.6C286.488 212.57 286.601 212.532 286.75 212.486C286.908 212.437 287.016 212.401 287.074 212.379C287.274 212.324 287.572 212.221 287.967 212.069C288.071 212.051 288.201 212.001 288.358 211.919C288.524 211.833 288.636 211.779 288.694 211.756C288.798 211.739 288.951 211.691 289.154 211.613C289.356 211.535 289.511 211.493 289.619 211.484C289.902 211.442 290.119 211.503 290.27 211.666C290.285 211.705 290.326 211.755 290.394 211.818C290.459 211.87 290.498 211.916 290.513 211.955C290.802 212.475 291.009 212.871 291.136 213.143C291.155 213.136 291.188 213.207 291.233 213.355L291.302 213.578C291.405 213.903 291.579 214.384 291.823 215.021C291.845 215.079 291.871 215.13 291.899 215.175C291.927 215.219 291.964 215.272 292.009 215.332C292.054 215.392 292.086 215.446 292.104 215.494L292.26 215.899L292.488 216.493C292.712 216.904 292.862 217.323 292.936 217.748C293.003 217.922 293.066 218.058 293.126 218.157C293.317 218.537 293.408 218.862 293.401 219.13C293.397 219.353 293.474 219.611 293.632 219.905L293.859 220.498L294.037 220.961C294.266 221.327 294.392 221.655 294.415 221.945C294.492 222.436 294.71 222.916 295.068 223.388C295.441 223.898 295.68 224.52 295.785 225.254C295.851 226.003 295.517 226.519 294.784 226.8L294.22 227.017ZM284.901 207.369C284.777 207.505 284.776 207.677 284.9 207.884C285.068 208.207 285.296 208.468 285.583 208.668C285.719 208.792 285.857 208.834 285.995 208.791C286.314 208.669 286.611 208.522 286.888 208.349C287.119 208.172 287.117 208.023 286.883 207.903C286.788 207.829 286.653 207.781 286.479 207.759C286.406 207.743 286.275 207.732 286.085 207.728C285.901 207.71 285.761 207.692 285.666 207.673C285.57 207.654 285.448 207.624 285.299 207.581C285.155 207.526 285.023 207.455 284.901 207.369ZM284.815 206.323C285.008 206.249 285.14 206.187 285.209 206.138C285.672 205.872 286.209 205.788 286.822 205.884C286.895 205.901 286.979 205.918 287.074 205.937C287.17 205.956 287.256 205.978 287.333 206.004C287.415 206.017 287.508 206.042 287.611 206.08C287.714 206.118 287.796 206.158 287.856 206.201C288.536 206.616 288.773 207.205 288.569 207.97C288.5 208.195 288.469 208.401 288.474 208.587C288.476 208.996 288.324 209.364 288.018 209.692C287.708 210.01 287.328 210.173 286.877 210.18C286.502 210.213 285.943 210.212 285.199 210.176C284.496 210.103 284.068 209.725 283.917 209.042C283.844 208.505 283.854 208.114 283.947 207.868C283.959 207.841 283.969 207.793 283.975 207.724C283.982 207.655 283.991 207.607 284.003 207.581C284.017 207.443 284.042 207.25 284.08 207.003C284.184 206.609 284.429 206.383 284.815 206.323Z" fill="#FAFAFA"/>
<path d="M286.416 229.133L286.427 229.162C286.446 229.154 286.534 229.109 286.691 229.027C286.857 228.941 286.975 228.874 287.045 228.825C287.252 228.701 287.297 228.545 287.181 228.358C286.991 227.977 286.828 227.713 286.694 227.565C286.51 227.315 286.368 227.004 286.27 226.632C286.171 226.261 286.085 225.978 286.011 225.785C285.867 225.409 285.789 225.107 285.779 224.878C285.795 224.806 285.766 224.728 285.69 224.647C285.583 224.367 285.399 223.961 285.14 223.43L284.74 222.388C284.568 221.824 284.436 221.409 284.346 221.145C284.239 220.865 284.2 220.62 284.23 220.41C284.243 220.272 284.192 220.109 284.075 219.921C284.012 219.813 283.939 219.652 283.858 219.44C283.808 219.138 283.679 218.889 283.471 218.692C283.248 218.457 283.042 218.11 282.855 217.65C282.727 217.201 282.62 216.866 282.535 216.644C282.437 216.272 282.378 215.99 282.36 215.798C282.256 215.296 282.109 214.943 281.92 214.739C281.648 214.434 281.429 213.964 281.263 213.331L281.169 213.085C280.692 212.36 280.442 211.969 280.42 211.911C280.322 211.772 280.212 211.543 280.09 211.225C279.994 210.918 279.81 210.64 279.537 210.391C279.53 210.371 279.479 210.341 279.386 210.299C278.878 210.273 278.498 210.308 278.247 210.404C278.093 210.464 278.018 210.57 278.021 210.724C278.026 211.198 278.101 211.623 278.245 211.999C278.305 212.153 278.405 212.386 278.546 212.697C278.688 213.008 278.785 213.231 278.836 213.366C278.962 213.749 279.135 214.114 279.356 214.461C279.551 214.796 279.654 215.005 279.664 215.09C279.809 215.466 279.875 216.044 279.865 216.823C279.837 217.154 279.677 217.387 279.386 217.521C279.094 217.655 278.83 217.629 278.592 217.444C278.319 217.25 278.015 217.195 277.682 217.278C277.494 217.307 276.937 217.443 276.013 217.687C275.909 217.705 275.796 217.77 275.673 217.884C275.404 218.076 275.099 218.32 274.759 218.616C274.728 218.65 274.661 218.72 274.558 218.826C274.455 218.932 274.378 219.006 274.327 219.048C274.13 219.256 273.995 219.408 273.921 219.503C273.705 219.718 273.581 219.871 273.549 219.961C273.463 220.082 273.322 220.308 273.128 220.637C272.987 220.846 272.909 220.976 272.895 221.025L272.476 221.966C272.439 222.158 272.42 222.281 272.419 222.337C272.388 222.603 272.344 223.007 272.287 223.55C272.235 224.079 272.193 224.488 272.16 224.777C272.13 225.419 272.249 225.96 272.518 226.4C272.803 226.854 272.962 227.125 272.995 227.212C273.207 227.762 273.44 228.182 273.695 228.471L273.717 228.529C273.772 228.729 273.982 228.931 274.347 229.134C274.633 229.301 274.845 229.435 274.984 229.537L275.95 230.195C276.178 230.329 276.317 230.431 276.366 230.5C276.66 230.863 277.173 231.131 277.903 231.305C278.353 231.409 278.766 231.389 279.142 231.244C280.142 230.794 280.856 230.088 281.284 229.127C281.445 228.767 281.611 228.465 281.783 228.222C281.912 228.039 282.022 227.792 282.113 227.481C282.127 227.343 282.196 227.134 282.32 226.853C282.603 226.291 283.029 226.161 283.598 226.462C284 226.673 284.268 226.969 284.403 227.349C284.555 227.744 284.77 228.06 285.049 228.296C285.11 228.339 285.189 228.43 285.287 228.57C285.418 228.796 285.506 228.967 285.55 229.083C285.622 229.211 285.681 229.293 285.728 229.33C285.772 229.358 285.861 229.346 285.996 229.294L286.416 229.133ZM277.422 214.091C277.37 213.956 277.289 213.76 277.179 213.504C277.07 213.247 276.975 213.057 276.894 212.933C276.761 212.674 276.72 212.38 276.771 212.05C276.802 211.784 276.742 211.514 276.592 211.239C276.309 210.673 276.344 210.117 276.699 209.571C276.848 209.381 276.998 209.24 277.151 209.148C277.594 208.89 277.936 208.714 278.177 208.622C278.906 208.386 279.467 208.32 279.861 208.424C280.113 208.504 280.369 208.666 280.629 208.909C280.984 209.315 281.234 209.795 281.38 210.347C281.434 210.603 281.594 210.963 281.86 211.425C281.916 211.514 282.01 211.644 282.142 211.815C282.28 211.972 282.369 212.104 282.41 212.21L282.941 213.334C283.078 213.691 283.199 213.949 283.305 214.108C283.448 214.307 283.533 214.557 283.559 214.857C283.575 215.072 283.647 215.26 283.776 215.421C283.968 215.69 284.103 216.015 284.182 216.394C284.212 216.471 284.244 216.525 284.278 216.556C284.3 216.614 284.342 216.709 284.403 216.84C284.461 216.962 284.501 217.052 284.523 217.109C284.623 217.37 284.752 217.763 284.91 218.289C284.917 218.308 284.924 218.339 284.929 218.382C284.934 218.424 284.939 218.466 284.944 218.508C284.949 218.551 284.946 218.585 284.934 218.612C284.856 218.985 284.964 219.353 285.258 219.716C285.713 220.238 286.04 220.916 286.237 221.747C286.412 222.433 286.518 222.912 286.557 223.185C286.611 223.441 286.623 223.63 286.592 223.753C286.581 224.012 286.657 224.209 286.82 224.346C287.145 224.675 287.408 225.199 287.607 225.92C287.639 226.062 287.769 226.372 287.997 226.849C288.267 227.266 288.431 227.634 288.488 227.956C288.468 227.963 288.504 228.071 288.595 228.279L288.726 228.578C288.906 229.162 288.726 229.585 288.185 229.848C287.893 229.982 287.563 230.087 287.193 230.162C286.911 230.205 286.563 230.393 286.149 230.729C286.024 230.866 285.899 230.958 285.774 231.006C285.417 231.143 285.126 231.061 284.899 230.761C284.632 230.41 284.453 230.174 284.362 230.054C284.328 230.023 284.286 229.956 284.236 229.853C284.182 229.741 284.147 229.666 284.132 229.627C284.073 229.473 283.956 229.225 283.78 228.883L283.747 228.796C283.72 228.784 283.678 228.761 283.621 228.728C283.574 228.691 283.53 228.663 283.49 228.646C283.446 228.618 283.405 228.612 283.366 228.627C283.313 228.603 283.26 228.695 283.207 228.904C283.157 228.945 283.133 228.998 283.136 229.064C283.099 229.487 282.86 229.961 282.419 230.484C282.199 230.746 282.021 230.947 281.887 231.087C281.766 231.233 281.584 231.436 281.34 231.695C281.11 231.961 280.942 232.158 280.837 232.287C280.686 232.411 280.576 232.487 280.509 232.513C279.916 232.784 279.409 232.935 278.988 232.963C278.865 232.989 278.662 233.022 278.38 233.064C278.097 233.106 277.894 233.14 277.771 233.165C277.002 233.239 276.377 233.036 275.894 232.557C275.61 232.279 275.193 231.985 274.643 231.676C274.039 231.344 273.575 230.957 273.251 230.517C273.134 230.385 273.057 230.299 273.019 230.258C272.723 230.006 272.435 229.586 272.153 228.996C272.007 228.732 271.879 228.543 271.77 228.43C271.417 228.089 271.186 227.702 271.075 227.269C270.966 226.812 270.846 226.427 270.714 226.112C270.665 226.043 270.605 225.828 270.533 225.468C270.526 225.449 270.522 225.411 270.523 225.356C270.524 225.3 270.522 225.251 270.516 225.209C270.508 225.157 270.496 225.112 270.481 225.073C270.282 224.496 270.366 223.922 270.732 223.349C270.938 223.049 271.068 222.523 271.123 221.772C271.124 221.428 271.201 221.139 271.354 220.903C271.627 220.433 271.795 220.064 271.859 219.796C271.92 219.551 272.047 219.32 272.24 219.102C272.283 219.041 272.344 218.957 272.425 218.848C272.501 218.731 272.565 218.651 272.615 218.609C272.763 218.331 273.004 218.095 273.339 217.9C273.627 217.701 273.803 217.539 273.866 217.415C274.235 217.019 274.745 216.735 275.398 216.561C275.475 216.532 275.585 216.501 275.728 216.468C275.88 216.432 275.985 216.403 276.043 216.381C276.062 216.373 276.232 216.341 276.553 216.284C276.924 216.297 277.207 216.243 277.405 216.123C277.604 215.98 277.702 215.788 277.698 215.546C277.677 214.945 277.585 214.46 277.422 214.091ZM276.851 225.45L277.012 225.87C277.122 225.982 277.186 226.035 277.206 226.028C277.721 226.129 278.077 226.119 278.274 225.999C278.775 225.719 279.214 225.29 279.59 224.714C279.808 224.331 279.767 223.993 279.466 223.699C279.425 223.649 279.32 223.55 279.154 223.404C278.983 223.248 278.856 223.12 278.773 223.019C278.625 222.921 278.484 222.886 278.352 222.915C277.907 222.997 277.446 223.207 276.967 223.546C276.748 223.697 276.639 223.916 276.638 224.203C276.631 224.704 276.702 225.12 276.851 225.45ZM276.647 221.76C276.808 221.72 277.067 221.659 277.423 221.578C277.78 221.497 278.063 221.427 278.273 221.368L278.649 221.224C279.157 220.962 279.584 221.036 279.929 221.446L279.968 221.547C280.669 222.595 281.099 223.354 281.258 223.825C281.432 224.278 281.407 224.719 281.184 225.148C281.106 225.289 281.037 225.442 280.979 225.608C280.668 226.613 280.044 227.223 279.109 227.439C278.442 227.606 277.916 227.719 277.53 227.779C277.116 227.827 276.742 227.788 276.406 227.663C275.9 227.47 275.49 227.051 275.177 226.408C275.073 226.194 275.017 225.933 275.009 225.626C275.006 225.328 274.958 225.059 274.865 224.818C274.568 224.157 274.648 223.573 275.106 223.065C275.129 223.012 275.177 222.949 275.249 222.877C275.525 222.384 275.991 222.012 276.647 221.76Z" fill="#FAFAFA"/>
<path d="M257.782 223.39C257.681 223.473 257.612 223.566 257.574 223.669C257.512 223.97 257.524 224.203 257.61 224.369L257.936 224.958C258.041 225.172 258.172 225.487 258.332 225.902C258.376 226.018 258.432 226.179 258.5 226.385C258.565 226.581 258.619 226.738 258.664 226.853C258.693 226.931 258.743 227.061 258.814 227.244C258.884 227.427 258.928 227.571 258.946 227.675C258.995 227.977 259.137 228.376 259.372 228.872C259.582 229.246 259.654 229.578 259.589 229.868C259.544 230.041 259.579 230.232 259.693 230.443C260.003 231.021 260.19 231.436 260.254 231.688L260.321 231.862C260.413 232.103 260.467 232.287 260.483 232.414C260.715 233.365 260.521 234.214 259.9 234.962C259.744 235.132 259.498 235.37 259.162 235.677C258.705 236.073 258.224 236.303 257.716 236.364C256.721 236.425 255.968 236.322 255.455 236.054C254.82 235.755 254.299 235.219 253.892 234.446C253.835 234.357 253.76 234.203 253.665 233.985C253.57 233.767 253.482 233.579 253.399 233.423C253.313 233.257 253.216 233.117 253.106 233.004C252.887 232.723 252.735 232.383 252.648 231.985C252.591 231.664 252.512 231.4 252.412 231.196C252.041 230.519 251.829 229.909 251.775 229.365C251.769 229.234 251.697 229.046 251.559 228.801C251.522 228.704 251.456 228.563 251.363 228.378C251.266 228.182 251.203 228.046 251.173 227.969C251.121 227.834 251.071 227.687 251.021 227.529C250.968 227.362 250.915 227.183 250.864 226.992C250.81 226.792 250.764 226.643 250.727 226.547C250.66 226.373 250.566 226.271 250.443 226.24C250.397 226.236 250.328 226.229 250.236 226.22C250.154 226.208 250.078 226.198 250.009 226.191C249.94 226.185 249.873 226.183 249.808 226.186C249.619 226.214 249.465 226.301 249.344 226.447C249.232 226.589 249.21 226.775 249.275 227.004C249.312 227.101 249.336 227.235 249.347 227.408C249.387 227.57 249.433 227.79 249.485 228.069C249.537 228.348 249.575 228.549 249.6 228.672C249.765 229.218 249.865 229.622 249.9 229.885C250.001 230.322 250.056 230.551 250.063 230.57C250.216 231.142 250.297 231.438 250.304 231.457C250.365 231.732 250.458 231.945 250.583 232.097C250.779 232.32 250.927 232.562 251.027 232.823C251.2 233.387 251.324 233.827 251.4 234.14C251.445 234.256 251.486 234.451 251.525 234.724C251.569 234.983 251.609 235.189 251.646 235.341C251.693 235.522 252.008 236.126 252.59 237.153C252.827 237.539 252.98 237.795 253.052 237.923C253.294 238.438 253.566 238.788 253.869 238.97C253.922 238.994 253.988 239.052 254.068 239.143C254.143 239.224 254.185 239.275 254.192 239.294C254.488 239.546 254.704 239.69 254.84 239.726C255.437 239.929 256.008 240.003 256.552 239.949C256.939 239.889 257.204 239.876 257.35 239.908C257.689 239.955 258.051 239.861 258.436 239.624C258.564 239.553 258.752 239.453 259.002 239.324C259.261 239.191 259.489 239.065 259.686 238.945C259.893 238.821 260.074 238.686 260.227 238.538L260.256 238.527C260.307 238.486 260.389 238.426 260.503 238.349C260.627 238.268 260.714 238.207 260.765 238.166C260.796 238.132 260.999 237.926 261.375 237.55C261.91 237.068 262.154 236.465 262.108 235.741C262.092 235.526 262.099 235.341 262.128 235.186C262.206 234.813 262.396 234.557 262.697 234.419C262.998 234.282 263.304 234.314 263.614 234.516C263.88 234.69 264.065 234.912 264.168 235.183C264.237 235.477 264.4 235.686 264.658 235.808L264.766 235.916C265.264 236.378 265.866 236.506 266.574 236.301C267.459 236.072 268.059 235.947 268.372 235.926C268.437 235.923 268.557 235.889 268.73 235.822C268.937 235.698 269.083 235.631 269.168 235.621C269.337 235.6 269.673 235.41 270.177 235.051C270.286 234.987 270.31 234.878 270.251 234.724C270.138 234.546 270.062 234.403 270.021 234.297C269.833 233.894 269.674 233.479 269.543 233.053C269.429 232.754 269.235 232.696 268.961 232.878C268.861 232.961 268.771 233.017 268.694 233.047L268.014 233.308C267.362 233.425 266.695 233.432 266.014 233.329C265.194 233.212 264.617 232.863 264.284 232.283C264.205 232.136 264.085 231.966 263.923 231.774C263.674 231.416 263.543 231.045 263.529 230.663C263.462 230.257 263.323 229.896 263.113 229.578C262.83 229.188 262.676 228.872 262.648 228.628L262.571 228.425C262.526 228.309 262.442 228.148 262.318 227.941C262.204 227.73 262.115 227.57 262.052 227.462C261.992 227.308 261.908 227.058 261.797 226.713C261.687 226.368 261.602 226.118 261.543 225.964C261.472 225.836 261.388 225.647 261.292 225.396C261.196 225.146 261.116 224.966 261.052 224.858C260.939 224.679 260.87 224.557 260.844 224.489C260.751 224.248 260.594 223.938 260.371 223.559C260.144 223.17 259.997 222.916 259.929 222.798C259.831 222.659 259.701 222.62 259.537 222.683C258.456 223.098 257.871 223.334 257.782 223.39ZM263.638 236.914C263.355 237.476 263.175 237.855 263.095 238.052C262.749 238.793 262.261 239.296 261.632 239.559C261.466 239.645 261.214 239.841 260.878 240.148C260.472 240.503 260.022 240.814 259.527 241.081C259.469 241.104 259.391 241.145 259.292 241.205C259.193 241.265 259.097 241.318 259.005 241.365C258.922 241.408 258.841 241.444 258.764 241.474C258.446 241.596 258.212 241.664 258.062 241.677C257.799 241.712 257.208 241.745 256.29 241.776L255.67 241.715C255.258 241.652 255.018 241.617 254.949 241.61C254.624 241.602 254.301 241.466 253.979 241.202C253.663 240.958 253.411 240.806 253.222 240.746C252.808 240.561 252.491 240.296 252.269 239.95C252.085 239.699 251.812 239.35 251.452 238.902C251.101 238.45 250.856 238.129 250.717 237.939C250.374 237.506 250.148 236.946 250.038 236.257C249.934 235.755 249.785 235.281 249.592 234.835C249.48 234.601 249.379 234.108 249.29 233.357C249.253 233.028 249.131 232.654 248.926 232.235C248.721 231.816 248.578 231.472 248.497 231.204C248.438 231.05 248.305 230.559 248.097 229.731C247.955 229.243 247.778 228.869 247.566 228.606C247.272 228.244 247.115 227.806 247.095 227.293C247.082 227.143 247.061 226.958 247.031 226.737C247.015 226.522 247.067 226.341 247.188 226.195C247.447 225.918 247.687 225.749 247.906 225.687C248.003 225.65 248.081 225.609 248.141 225.564C248.269 225.492 249.035 225.154 250.441 224.548C250.479 224.533 250.53 224.519 250.591 224.507C250.653 224.494 250.703 224.481 250.741 224.466C251.186 224.384 251.549 224.538 251.832 224.927C251.854 224.985 251.914 225.084 252.012 225.223C252.115 225.35 252.192 225.447 252.241 225.517C252.431 225.898 252.565 226.19 252.643 226.392C252.695 226.527 252.755 226.742 252.824 227.037C252.871 227.218 252.963 227.487 253.1 227.843C253.218 228.208 253.397 228.775 253.638 229.546C253.705 229.72 253.76 229.981 253.805 230.329C253.847 230.611 253.944 230.834 254.095 230.998C254.387 231.295 254.638 231.835 254.85 232.617C254.985 233.085 255.171 233.44 255.408 233.681C255.552 233.825 255.752 234.058 256.008 234.38C256.351 234.813 256.779 234.976 257.291 234.868L257.638 234.734C257.727 234.678 257.867 234.58 258.057 234.441C258.256 234.298 258.402 234.187 258.493 234.107C258.625 233.99 258.737 233.72 258.83 233.297C258.872 233.004 258.806 232.515 258.631 231.83C258.563 231.535 258.522 231.313 258.508 231.163C258.473 230.955 258.379 230.654 258.227 230.258C258.015 229.82 257.891 229.424 257.855 229.073C257.739 228.597 257.599 228.175 257.436 227.806C257.219 227.414 257.059 226.999 256.958 226.562C256.783 225.932 256.549 225.352 256.257 224.822C256.04 224.43 255.851 224.037 255.689 223.646C255.567 223.327 255.565 223.018 255.682 222.719C255.805 222.406 256.028 222.165 256.351 221.997C256.428 221.967 256.537 221.92 256.678 221.855C256.829 221.786 256.939 221.727 257.009 221.678C257.202 221.604 257.474 221.477 257.826 221.298C257.98 221.239 258.211 221.134 258.518 220.983C258.826 220.831 259.053 220.717 259.2 220.638C260.014 220.281 260.692 220.475 261.232 221.219C261.721 221.828 262.09 222.561 262.341 223.416C262.374 223.559 262.444 223.77 262.551 224.05C262.655 224.32 262.725 224.531 262.761 224.683C262.827 224.912 263.036 225.225 263.387 225.621C263.764 226.085 263.987 226.636 264.055 227.274C264.094 227.636 264.191 227.975 264.345 228.291C264.472 228.564 264.602 228.99 264.736 229.569C264.813 229.883 264.926 230.122 265.077 230.285C265.153 230.366 265.349 230.574 265.665 230.906C265.956 231.204 266.256 231.393 266.563 231.474C266.808 231.535 267.009 231.541 267.168 231.491L267.736 231.373C268.057 231.316 268.349 231.182 268.611 230.97C268.979 230.63 269.419 230.538 269.933 230.695C270.201 230.759 270.396 230.921 270.519 231.184L270.747 231.777C270.777 232.087 270.888 232.432 271.078 232.812C271.115 232.909 271.151 232.973 271.185 233.004C271.396 233.266 271.59 233.612 271.766 234.042C271.858 234.284 271.94 234.468 272.011 234.596C272.386 235.226 272.276 235.745 271.679 236.151C271.352 236.365 270.873 236.704 270.243 237.167C269.904 237.408 269.559 237.518 269.208 237.498C268.949 237.487 268.585 237.549 268.117 237.684C267.837 237.792 267.571 237.861 267.317 237.892C267.174 237.924 267.012 237.948 266.829 237.963C266.66 237.983 266.463 238.004 266.239 238.024C266.023 238.04 265.864 238.057 265.76 238.074C265.262 238.133 264.745 237.911 264.209 237.408C264.139 237.369 263.948 237.204 263.638 236.914Z" fill="#FAFAFA"/>
<path d="M243.062 245.028C243.945 244.733 244.617 244.508 245.078 244.353C245.213 244.302 245.265 244.177 245.233 243.979L245.153 243.511L244.981 243.063C244.615 242.572 244.355 241.98 244.2 241.287C244.192 241.268 244.176 241.241 244.152 241.206L244.115 241.154C243.949 240.72 243.762 240.349 243.555 240.041C243.465 239.92 243.368 239.725 243.264 239.455C243.16 239.185 243.077 238.996 243.013 238.887C242.741 238.295 242.443 237.706 242.119 237.122C241.693 236.356 241.457 235.744 241.414 235.284C241.405 235.089 241.282 234.854 241.044 234.58C241.01 234.549 240.948 234.489 240.859 234.402C240.767 234.304 240.7 234.231 240.658 234.18C240.371 233.836 240.277 233.419 240.376 232.927C240.451 232.4 240.801 232.072 241.426 231.943C241.74 231.867 242.181 231.747 242.749 231.584C242.827 231.555 242.95 231.502 243.12 231.425C243.296 231.336 243.427 231.274 243.514 231.241C243.748 231.129 243.829 230.965 243.757 230.749C243.736 230.58 243.706 230.443 243.665 230.336C243.658 230.317 243.631 230.206 243.586 230.001C243.537 229.788 243.494 229.633 243.457 229.536C243.374 229.203 243.176 229.063 242.865 229.116C242.512 229.207 242.307 229.264 242.249 229.286C241.892 229.423 241.39 229.528 240.742 229.599C240.302 229.635 239.955 229.481 239.701 229.135C239.29 228.64 239.06 228.186 239.012 227.773C238.94 227.413 238.714 226.969 238.334 226.44C238.244 226.319 238.141 226.281 238.025 226.326C237.917 226.39 237.747 226.466 237.515 226.555C237.284 226.644 237.114 226.72 237.005 226.784C236.687 226.906 236.457 226.983 236.314 227.016C236.015 227.13 235.904 227.317 235.981 227.575C236.028 227.756 236.093 227.925 236.175 228.082C236.367 228.351 236.584 228.799 236.824 229.426C236.917 229.667 236.966 229.853 236.972 229.984C237.01 230.6 236.679 231.009 235.982 231.211C235.475 231.361 235.174 231.454 235.077 231.491C235.039 231.506 234.744 231.747 234.192 232.213C234.06 232.33 234.011 232.504 234.044 232.735C234.124 233.29 234.42 233.758 234.931 234.137C235.006 234.219 235.113 234.267 235.251 234.28C236.08 234.305 236.675 234.226 237.036 234.043C237.513 233.816 237.898 233.939 238.191 234.413C238.262 234.541 238.328 234.742 238.39 235.018C238.578 235.853 238.805 236.446 239.073 236.797C239.28 237.105 239.426 237.459 239.513 237.857C239.52 237.876 239.531 237.905 239.546 237.944C239.561 237.982 239.576 238.021 239.591 238.06C239.605 238.098 239.617 238.127 239.624 238.146C239.763 238.392 239.953 238.745 240.196 239.205C240.449 239.661 240.641 240.003 240.772 240.229C240.828 240.318 240.951 240.609 241.14 241.101C241.177 241.197 241.233 241.358 241.309 241.584C241.38 241.8 241.437 241.961 241.477 242.067C241.644 242.501 241.906 243.125 242.263 243.94C242.444 244.324 242.71 244.687 243.062 245.028ZM234.976 236.461C234.696 236.568 234.491 236.625 234.361 236.631C234.013 236.676 233.71 236.593 233.452 236.382C233.2 236.158 233.065 235.866 233.049 235.507C233.007 235.224 232.988 234.972 232.991 234.749C233.042 234.364 232.95 233.808 232.715 233.079C232.671 232.963 232.608 232.799 232.526 232.587C232.441 232.365 232.386 232.193 232.361 232.069C232.307 231.813 232.293 231.647 232.319 231.571C232.315 231.273 232.461 231.035 232.758 230.855C233.384 230.526 233.821 230.28 234.069 230.119C234.216 230.04 234.417 229.858 234.672 229.572C234.723 229.53 234.749 229.454 234.75 229.343C234.774 229.057 234.714 228.715 234.572 228.315C234.353 227.746 234.21 227.314 234.141 227.02C234.044 226.537 234.233 226.149 234.707 225.856L236.3 224.946C236.911 224.578 237.463 224.4 237.954 224.411C237.981 224.423 238.234 224.392 238.715 224.318C239.198 224.221 239.53 224.409 239.712 224.881C239.78 225.176 239.831 225.422 239.862 225.62C239.885 225.678 239.887 225.755 239.868 225.851C239.859 225.943 239.866 226.018 239.888 226.076C239.899 226.392 240.025 226.665 240.268 226.893C240.507 227.055 240.714 227.291 240.888 227.601C241.008 227.854 241.201 227.912 241.47 227.776C241.567 227.739 241.706 227.669 241.888 227.566C242.079 227.459 242.229 227.374 242.337 227.31C242.641 227.149 242.87 227.039 243.024 226.98C243.342 226.858 243.644 226.864 243.928 226.998C244.218 227.12 244.414 227.343 244.517 227.669C244.546 227.746 244.596 228.02 244.667 228.491C244.694 228.735 244.75 228.94 244.836 229.107C244.885 229.176 244.989 229.419 245.149 229.833C245.186 229.93 245.252 230.087 245.346 230.305C245.441 230.523 245.517 230.677 245.573 230.766C245.914 231.366 245.792 231.855 245.207 232.235C245.068 232.333 244.836 232.466 244.514 232.634C244.191 232.802 244.02 232.89 244 232.897L243.827 232.964C243.373 233.138 243.044 233.275 242.84 233.376C242.56 233.483 242.497 233.679 242.65 233.963L243.52 235.97C243.62 236.231 243.933 236.902 244.459 237.984C244.825 238.707 245.069 239.343 245.192 239.894C245.246 240.15 245.397 240.485 245.644 240.899C245.979 241.423 246.216 241.969 246.355 242.535C246.378 242.593 246.465 242.764 246.619 243.048C246.95 243.508 247.072 244.07 246.984 244.734C246.944 245.092 246.788 245.335 246.516 245.462C245.427 246.057 244.788 246.396 244.599 246.48C244.165 246.646 243.723 246.849 243.272 247.089C242.814 247.309 242.396 247.286 242.018 247.022C241.898 246.969 241.794 246.87 241.706 246.727C241.477 246.361 241.317 246.074 241.226 245.865C240.906 245.147 240.639 244.624 240.424 244.297C240.259 244.039 240.044 243.624 239.78 243.05C239.34 242.135 239.019 241.444 238.819 240.979C238.416 240.16 238.179 239.514 238.109 239.043C238.081 238.855 237.931 238.58 237.66 238.22C237.388 237.915 237.184 237.572 237.05 237.192L236.755 236.425C236.67 236.203 236.533 236.107 236.345 236.135C235.736 236.191 235.28 236.3 234.976 236.461Z" fill="#FAFAFA"/>
<path d="M227.77 235.94C227.733 235.843 227.679 235.759 227.607 235.687L226.681 234.615C226.45 234.36 226.213 234.363 225.97 234.622C225.412 235.246 224.902 235.691 224.44 235.957C224.37 236.005 224.268 236.1 224.134 236.24C224.048 236.362 223.882 236.608 223.637 236.979C223.398 237.336 223.224 237.619 223.116 237.826C222.998 237.982 222.932 238.184 222.917 238.434C222.895 238.896 222.872 239.585 222.848 240.502C222.846 240.613 222.884 240.77 222.962 240.973C223.258 241.512 223.478 241.871 223.624 242.047C223.867 242.452 224.079 242.686 224.258 242.75C224.525 242.869 224.951 243.026 225.536 243.222C225.696 243.294 225.837 243.317 225.961 243.292C226.608 243.22 227.093 243.156 227.414 243.099C227.499 243.089 227.635 243.069 227.824 243.041C228.018 243 228.166 242.982 228.268 242.987C228.883 243.005 229.414 243.278 229.859 243.804C230.202 244.237 230.463 244.872 230.641 245.712C230.706 246.052 230.633 246.396 230.423 246.742C230.368 246.829 230.287 246.965 230.181 247.15C230.081 247.321 230.003 247.451 229.948 247.538C229.831 247.694 229.758 247.777 229.729 247.788C229.139 248.214 228.748 248.491 228.554 248.621C227.827 249.033 227.444 249.246 227.405 249.261C227.259 249.34 227.168 249.408 227.135 249.465C227.111 249.518 227.155 249.618 227.266 249.763C227.371 249.922 227.534 250.158 227.754 250.472C227.974 250.786 228.137 251.023 228.242 251.181C228.374 251.352 228.57 251.415 228.83 251.371L229.625 251.065C229.818 250.991 229.971 250.944 230.085 250.922C230.633 250.822 231.102 250.415 231.492 249.701C231.547 249.614 231.622 249.463 231.717 249.25C231.818 249.023 231.902 248.852 231.969 248.738C232.036 248.624 232.121 248.486 232.225 248.324C232.335 248.149 232.447 248.007 232.559 247.897C233.009 247.426 233.318 246.66 233.487 245.599C233.504 245.183 233.554 244.881 233.638 244.694C233.702 244.515 233.699 244.322 233.631 244.116L233.392 243.493C233.281 242.972 233.066 242.6 232.749 242.379C232.601 242.281 232.351 242.078 232 241.77C231.659 241.458 231.375 241.235 231.146 241.102C230.865 240.889 230.555 240.814 230.214 240.879C229.965 240.952 229.647 240.958 229.258 240.897C229.059 240.84 228.891 240.85 228.754 240.924C228.339 241.084 227.882 241.088 227.381 240.937C227.19 240.9 226.908 240.886 226.535 240.896C226.458 240.926 226.373 240.936 226.282 240.927C225.456 240.968 224.899 240.611 224.61 239.859L224.521 239.628C224.295 239.039 224.439 238.519 224.951 238.068C225.033 237.992 225.147 237.899 225.292 237.788C225.447 237.673 225.583 237.565 225.7 237.465C225.812 237.355 225.92 237.248 226.024 237.142C226.715 236.577 227.203 236.235 227.489 236.114C227.537 236.096 227.631 236.038 227.77 235.94ZM226.356 239.089C226.557 239.266 226.74 239.324 226.904 239.261C227.511 239.028 228.123 239.064 228.738 239.37C229.045 239.507 229.336 239.528 229.61 239.434C229.733 239.409 229.932 239.393 230.206 239.388C230.573 239.335 230.994 239.423 231.469 239.65L232.17 239.962C232.836 240.226 233.387 240.568 233.825 240.987C233.969 241.131 234.099 241.297 234.215 241.484C234.511 242.024 234.791 242.697 235.056 243.502C235.108 243.637 235.129 243.779 235.119 243.926C235.072 244.265 235.086 244.575 235.161 244.857C235.255 245.274 235.22 245.775 235.056 246.358C235.009 246.464 234.967 246.586 234.93 246.721C234.89 246.847 234.848 246.997 234.803 247.169C234.765 247.327 234.727 247.447 234.692 247.527C234.687 247.573 234.667 247.636 234.632 247.716C234.416 248.164 234.242 248.618 234.109 249.079C234.073 249.159 233.901 249.402 233.592 249.808C233.549 249.869 233.47 249.966 233.355 250.099C233.243 250.241 233.152 250.348 233.08 250.42C232.413 251.451 231.635 252.192 230.746 252.644C230.531 252.748 230.268 252.827 229.957 252.88C228.907 253.029 228.345 253.106 228.27 253.113C227.886 253.238 227.544 253.11 227.242 252.727C226.673 252.082 226.313 251.562 226.161 251.167C226.095 250.993 225.966 250.86 225.775 250.767C225.332 250.505 225.049 250.127 224.925 249.632C224.813 249.111 224.976 248.7 225.414 248.399C225.715 248.173 226.129 247.897 226.658 247.573C226.766 247.509 226.925 247.432 227.133 247.341C227.351 247.246 227.489 247.187 227.547 247.165C228.002 246.88 228.314 246.683 228.482 246.574C228.66 246.461 228.782 246.287 228.846 246.052C228.917 245.804 228.919 245.592 228.852 245.419C228.625 244.942 228.262 244.76 227.763 244.874C227.602 244.914 227.36 244.962 227.039 245.019C226.718 245.076 226.486 245.121 226.343 245.153C225.358 245.355 224.383 245.092 223.418 244.367C223.324 244.293 223.17 244.18 222.957 244.03C222.75 243.866 222.586 243.74 222.464 243.654C221.994 243.381 221.675 242.967 221.506 242.412C221.498 242.393 221.46 242.263 221.39 242.025C221.327 241.772 221.279 241.575 221.246 241.432C221.085 240.841 220.963 240.263 220.879 239.697C220.794 239.188 220.865 238.696 221.092 238.221C221.164 238.061 221.266 237.795 221.4 237.422C221.488 237.134 221.641 236.882 221.857 236.666C222.013 236.495 222.132 236.317 222.215 236.13C222.305 235.93 222.564 235.625 222.994 235.217C223.47 234.813 223.823 234.494 224.055 234.262C224.41 233.948 224.875 233.703 225.45 233.527C225.623 233.46 225.762 233.374 225.865 233.268C226.078 232.987 226.364 232.794 226.722 232.69C226.963 232.597 227.192 232.603 227.41 232.708C228.359 233.163 229.016 233.779 229.381 234.558C229.441 234.712 229.532 234.937 229.657 235.232C229.781 235.528 229.885 235.754 229.967 235.91C230.089 236.228 230.129 236.506 230.088 236.744C229.986 237.258 229.691 237.555 229.2 237.632C228.258 237.772 227.383 238.175 226.576 238.839C226.515 238.884 226.442 238.967 226.356 239.089Z" fill="#FAFAFA"/>
<path d="M299.219 196.577C299.223 196.354 299.213 196.186 299.192 196.073C299.14 195.705 299.037 195.324 298.886 194.929C298.59 193.869 298.381 193.224 298.259 192.994C298.21 192.924 298.166 192.809 298.126 192.647C298.082 192.476 298.053 192.371 298.038 192.332C297.972 192.103 297.862 191.785 297.706 191.38C297.596 191.035 297.563 190.489 297.608 189.741C297.598 189.657 297.641 189.552 297.736 189.426C297.791 189.339 297.882 189.215 298.009 189.056C298.142 188.883 298.224 188.78 298.255 188.746C298.449 188.472 298.72 188.269 299.067 188.135L299.66 187.908C300.183 187.685 300.749 187.672 301.356 187.871C301.935 188.081 302.559 188.654 303.229 189.592L303.24 189.621C303.345 189.78 303.49 190.029 303.676 190.367C304.025 190.93 304.375 191.67 304.727 192.587C304.945 193.156 305.182 193.657 305.437 194.09C305.493 194.18 305.562 194.33 305.644 194.542L306.208 194.326L306.975 194.031C307.278 193.871 307.405 193.667 307.355 193.421C307.232 193.102 307.076 192.637 306.885 192.024C306.696 191.532 306.425 190.767 306.071 189.73C305.919 189.335 305.825 189.033 305.79 188.825C305.76 188.604 305.658 188.367 305.483 188.113C305.321 187.921 305.154 187.603 304.984 187.159C304.91 186.966 304.837 186.834 304.765 186.762C304.44 186.433 303.954 185.961 303.308 185.345C303.032 185.086 302.701 184.931 302.316 184.879C302.27 184.875 302.188 184.862 302.069 184.841C301.96 184.817 301.881 184.798 301.831 184.783C301.061 184.537 300.364 184.522 299.739 184.74C299.643 184.777 299.571 184.793 299.525 184.789C299.255 184.804 298.733 185.015 297.959 185.423C297.863 185.46 297.772 185.539 297.685 185.661C297.631 185.748 297.534 185.885 297.395 186.071C297.262 186.244 297.153 186.38 297.07 186.478C296.995 186.573 296.907 186.746 296.803 186.996C296.78 187.049 296.753 187.153 296.724 187.308C296.701 187.45 296.678 187.547 296.654 187.601C296.443 188.003 296.346 188.516 296.365 189.14C296.368 189.205 296.368 189.293 296.367 189.404C296.365 189.516 296.358 189.585 296.346 189.611C296.247 190.015 295.998 190.26 295.599 190.346C295.355 190.374 295.135 190.32 294.94 190.185C294.74 190.04 294.617 189.849 294.571 189.612C294.4 188.881 293.983 188.443 293.32 188.3C292.267 188.095 291.349 188.154 290.565 188.477C290.146 188.682 289.875 188.941 289.752 189.254C289.496 189.828 289.051 190.27 288.418 190.58C287.695 190.946 287.167 190.811 286.834 190.175C286.808 190.163 286.781 190.123 286.755 190.056C286.73 189.988 286.707 189.93 286.689 189.882C286.574 189.583 286.354 189.457 286.029 189.504C285.416 189.607 285.007 189.753 284.803 189.942C284.702 190.025 284.641 190.082 284.619 190.112C284.597 190.143 284.586 190.186 284.586 190.241C284.585 190.297 284.618 190.356 284.687 190.418C284.694 190.437 284.71 190.465 284.734 190.499C284.759 190.534 284.779 190.571 284.793 190.61C284.93 190.967 285.044 191.233 285.133 191.409C285.404 191.825 285.576 192.246 285.651 192.671L285.823 193.12C285.875 193.255 285.961 193.465 286.082 193.751C286.199 194.027 286.285 194.237 286.341 194.382C286.405 194.49 286.477 194.65 286.559 194.863L286.836 195.586L287.12 196.324C287.164 196.44 287.242 196.614 287.354 196.848C287.462 197.072 287.558 197.279 287.642 197.468C287.722 197.648 287.793 197.82 287.856 197.984C288.023 198.418 288.208 198.784 288.411 199.082L288.461 199.212C288.568 199.492 288.95 200.126 289.606 201.114C289.752 201.379 289.988 201.46 290.313 201.357L290.964 201.107C291.186 201.022 291.263 200.876 291.195 200.67C291.185 200.585 291.161 200.467 291.125 200.315C291.095 200.149 291.065 200.028 291.035 199.951C290.87 199.173 290.612 198.603 290.262 198.239C289.944 197.929 289.822 197.511 289.897 196.985C289.944 196.646 289.858 196.308 289.64 195.971C289.519 195.741 289.426 195.499 289.363 195.247C289.323 195.085 289.281 194.819 289.238 194.448C289.196 194.077 289.154 193.811 289.114 193.649C288.956 192.891 289.21 192.284 289.877 191.829C289.946 191.78 290.032 191.714 290.133 191.631C290.243 191.545 290.328 191.49 290.385 191.468C290.768 191.166 291.147 190.971 291.522 190.882C291.978 190.773 292.44 190.823 292.907 191.031C293.618 191.411 294.062 191.777 294.242 192.129C294.346 192.344 294.535 192.62 294.809 192.957C295.042 193.277 295.184 193.588 295.233 193.89C295.269 194.098 295.417 194.484 295.678 195.048C295.692 195.086 295.759 195.232 295.879 195.485C295.994 195.729 296.05 195.873 296.045 195.919L296.687 197.333C296.759 197.46 296.873 197.499 297.031 197.45C297.089 197.428 297.174 197.39 297.286 197.335C297.408 197.278 297.507 197.234 297.584 197.204L298.293 196.932L299.219 196.577ZM294.956 187.157C295.145 186.929 295.292 186.635 295.397 186.274C295.486 185.985 295.712 185.594 296.076 185.1C296.253 184.899 296.506 184.708 296.835 184.526C297.009 184.46 297.134 184.367 297.21 184.25C297.57 183.89 298.007 183.645 298.521 183.514C298.625 183.496 298.774 183.45 298.967 183.376C299.169 183.298 299.327 183.249 299.441 183.227C299.943 183.123 300.492 183.139 301.086 183.276C301.232 183.309 301.467 183.33 301.791 183.338C302.226 183.348 302.606 183.429 302.93 183.581C303.734 183.859 304.389 184.167 304.895 184.504C305.334 184.811 305.649 185.144 305.842 185.502C305.976 185.793 306.171 186.056 306.427 186.29C306.461 186.321 306.507 186.37 306.566 186.436C306.621 186.492 306.665 186.536 306.699 186.567C306.941 186.85 307.065 187.174 307.071 187.536C307.061 187.74 307.174 188.15 307.411 188.767C307.448 188.864 307.508 189.007 307.592 189.196C307.672 189.375 307.727 189.504 307.757 189.581C307.92 189.95 308.108 190.525 308.32 191.307C308.337 191.411 308.385 191.536 308.464 191.683C308.539 191.821 308.587 191.918 308.61 191.976C308.639 192.053 308.688 192.195 308.756 192.401C308.821 192.598 308.869 192.74 308.903 192.826C308.918 192.865 308.939 192.934 308.966 193.035C308.993 193.135 309.018 193.214 309.04 193.272C309.139 193.643 309.15 194.004 309.074 194.354C308.975 194.758 308.705 195.022 308.266 195.146C308.143 195.171 307.974 195.236 307.759 195.34C307.545 195.445 307.409 195.508 307.351 195.53C307.211 195.628 307.098 195.694 307.011 195.727C306.39 196.01 305.944 196.204 305.674 196.307C305.266 196.486 304.923 196.413 304.643 196.088C304.322 195.714 304.121 195.392 304.041 195.124C303.752 194.372 303.498 193.839 303.277 193.525C303.193 193.391 303.136 193.242 303.105 193.076C302.796 192.155 302.561 191.542 302.4 191.239C302.329 191.111 302.228 190.906 302.098 190.624C301.967 190.342 301.898 190.192 301.891 190.172C301.761 189.835 301.528 189.631 301.191 189.561C301.119 189.545 301.023 189.526 300.904 189.505C300.792 189.471 300.687 189.445 300.592 189.426C300.496 189.407 300.397 189.395 300.296 189.39C300.078 189.341 299.886 189.404 299.72 189.578C299.689 189.612 299.641 189.658 299.574 189.717C299.508 189.775 299.46 189.822 299.429 189.856C299.265 190.007 299.192 190.207 299.21 190.454C299.218 190.474 299.236 190.566 299.267 190.732C299.293 190.887 299.321 191.004 299.351 191.081C299.741 192.27 299.956 192.946 299.996 193.108C300.007 193.192 300.109 193.402 300.304 193.737C300.375 193.864 300.484 194.177 300.631 194.674C300.651 194.843 300.712 195.002 300.814 195.151C301.174 195.743 301.397 196.383 301.484 197.069C301.584 197.849 301.258 198.268 300.505 198.325C300.072 198.38 299.706 198.465 299.407 198.58C299.253 198.639 298.837 198.738 298.16 198.876C298.017 198.909 297.807 198.967 297.53 199.051C297.262 199.132 297.056 199.2 296.911 199.256C296.431 199.418 296.053 199.314 295.778 198.943C295.248 198.284 294.926 197.66 294.812 197.073C294.779 196.931 294.706 196.699 294.594 196.377C294.53 196.268 294.441 196.093 294.325 195.849C294.219 195.602 294.144 195.421 294.099 195.305C293.939 195.001 293.817 194.799 293.734 194.698C293.391 194.265 293.133 193.739 292.961 193.119C292.882 192.74 292.644 192.538 292.247 192.513C291.702 192.446 291.261 192.681 290.925 193.22C290.811 193.441 290.781 193.839 290.836 194.416C290.857 194.585 290.888 194.723 290.928 194.829C291.051 195.147 291.104 195.459 291.088 195.764C291.069 196.059 291.14 196.33 291.301 196.578C291.481 196.874 291.615 197.166 291.703 197.453C291.772 197.748 291.906 198.067 292.105 198.411C292.202 198.551 292.35 198.777 292.547 199.088C292.744 199.4 292.887 199.644 292.977 199.82C293.224 200.289 293.305 200.789 293.221 201.32C293.115 201.88 292.779 202.214 292.211 202.322C292.011 202.376 291.706 202.505 291.296 202.706C291.149 202.785 290.93 202.891 290.638 203.025C290.356 203.155 290.137 203.262 289.98 203.344C289.399 203.589 288.942 203.449 288.608 202.925C288.536 202.797 288.397 202.579 288.191 202.271C287.994 201.959 287.834 201.689 287.713 201.459C287.588 201.219 287.488 200.975 287.415 200.726C287.371 200.61 287.29 200.459 287.174 200.271C287.054 200.074 286.983 199.946 286.96 199.888C286.946 199.849 286.922 199.803 286.89 199.749C286.855 199.685 286.83 199.634 286.815 199.595C286.495 198.877 286.248 198.407 286.075 198.186C285.902 197.909 285.82 197.609 285.828 197.285C285.791 196.956 285.684 196.648 285.507 196.362C285.055 195.473 284.741 194.653 284.563 193.902L284.369 193.396C284.205 193.027 284.046 192.468 283.891 191.72L283.739 191.064L283.43 189.739C283.297 189.336 283.462 188.957 283.923 188.603C284.475 188.137 284.99 187.806 285.469 187.611C285.876 187.433 286.33 187.347 286.831 187.354C287.182 187.374 287.445 187.555 287.62 187.898C287.635 187.936 287.652 187.98 287.67 188.028C287.689 188.076 287.713 188.111 287.744 188.132C287.861 188.265 287.981 188.274 288.103 188.16C288.416 187.908 288.681 187.634 288.9 187.34C289.223 186.939 289.609 186.736 290.06 186.729C290.389 186.691 290.732 186.604 291.089 186.467C291.243 186.407 291.394 186.383 291.542 186.392C291.764 186.395 292.103 186.415 292.56 186.45C293.012 186.475 293.353 186.499 293.583 186.522C294.038 186.524 294.412 186.691 294.705 187.021C294.739 187.052 294.783 187.08 294.836 187.103C294.847 187.132 294.887 187.15 294.956 187.157Z" fill="#FAFAFA"/>
<path d="M278.415 205.609C278.725 205.523 279.042 205.368 279.366 205.144C279.821 204.859 280.184 204.537 280.456 204.178C280.48 204.124 280.542 204.056 280.643 203.973C281.108 203.54 281.474 203.04 281.743 202.472C281.772 202.372 281.825 202.224 281.905 202.028C282.196 201.374 282.303 200.73 282.226 200.095C282.103 198.825 281.95 197.877 281.765 197.251C281.699 197.021 281.573 196.81 281.388 196.615C281.208 196.407 281.06 196.193 280.942 195.973C280.422 195.021 279.893 194.35 279.355 193.959C279.287 193.896 279.177 193.784 279.026 193.62C278.815 193.358 278.688 193.214 278.644 193.186C278.281 192.761 277.883 192.515 277.448 192.45C277.036 192.386 276.672 192.288 276.356 192.155C276.149 192.08 275.865 192.089 275.503 192.184C275.204 192.298 274.869 192.333 274.497 192.288C274.405 192.279 274.251 192.294 274.033 192.333C273.147 192.562 272.639 192.68 272.508 192.686C272.134 192.719 271.755 192.886 271.373 193.188C271.222 193.313 271.064 193.406 270.9 193.469C270.442 193.689 270.133 193.979 269.973 194.34C269.929 194.401 269.87 194.49 269.793 194.608C269.717 194.726 269.643 194.837 269.573 194.942C269.512 195.042 269.459 195.151 269.416 195.268C269.325 195.435 269.243 195.611 269.169 195.794C269.163 195.951 269.138 196.188 269.093 196.504C269.048 196.82 269.009 197.062 268.974 197.23L268.897 198.588C268.884 198.958 268.952 199.668 269.1 200.718C269.123 201.008 269.217 201.281 269.383 201.539C269.732 202.102 269.991 202.75 270.161 203.481C270.252 203.834 270.396 204.094 270.594 204.261C270.855 204.482 271.078 204.773 271.261 205.134C271.497 205.519 271.76 205.756 272.048 205.845L272.423 206C272.908 206.312 273.664 206.58 274.691 206.806C274.791 206.834 275.246 206.897 276.059 206.995C276.451 207.065 276.76 206.947 276.985 206.639C277.309 206.127 277.785 205.784 278.415 205.609ZM267.813 203.42C267.781 203.277 267.718 203.041 267.625 202.712C267.541 202.379 267.483 202.141 267.451 201.998C267.376 201.805 267.309 201.66 267.249 201.561C267.062 201.245 266.975 200.875 266.989 200.449C267.007 200.265 267.025 199.981 267.044 199.598C267.072 199.211 267.08 198.914 267.068 198.709L267.023 197.813L267.167 196.33C267.184 196.257 267.272 196.041 267.432 195.68C267.513 195.428 267.663 195.055 267.883 194.561C268.018 194.077 268.246 193.719 268.565 193.485C268.558 193.466 268.564 193.453 268.583 193.445C268.72 193.282 268.952 193.022 269.279 192.664C269.607 192.306 269.846 192.02 269.996 191.807C270.261 191.429 270.604 191.198 271.025 191.114C271.32 191.045 271.841 190.933 272.59 190.779C272.609 190.771 272.654 190.759 272.726 190.743C272.797 190.727 272.857 190.709 272.905 190.691C273.192 190.603 273.502 190.589 273.835 190.649C274.065 190.672 274.233 190.662 274.339 190.622C274.757 190.528 275.138 190.525 275.482 190.615C275.756 190.665 276.172 190.654 276.732 190.583C277.635 190.458 278.401 190.651 279.029 191.162C279.048 191.155 279.062 191.161 279.069 191.18C279.28 191.442 279.651 191.787 280.18 192.215C280.706 192.633 281.072 192.968 281.28 193.22C281.593 193.576 281.819 193.932 281.956 194.289C281.981 194.412 282.067 194.55 282.215 194.704C282.484 194.944 282.744 195.375 282.994 195.999C283.046 196.134 283.145 196.334 283.291 196.599C283.415 196.75 283.508 196.963 283.569 197.239C283.595 197.362 283.632 197.53 283.68 197.744C283.725 197.948 283.767 198.142 283.805 198.327C283.839 198.502 283.868 198.679 283.892 198.858C283.917 198.981 283.941 199.287 283.963 199.777C283.966 199.842 283.966 199.986 283.963 200.209C283.956 200.422 283.961 200.58 283.979 200.684C284.033 201.228 283.953 201.756 283.741 202.269C283.65 202.437 283.531 202.688 283.382 203.021C283.366 203.094 283.331 203.163 283.278 203.227C283.146 203.344 283.005 203.553 282.855 203.854C282.715 204.152 282.613 204.335 282.551 204.403C282.52 204.437 282.426 204.567 282.269 204.793C282.122 205.016 282.013 205.179 281.943 205.284C281.878 205.375 281.767 205.489 281.61 205.627C281.462 205.762 281.315 205.868 281.168 205.946C281.137 205.981 281.083 206.029 281.008 206.091C280.942 206.15 280.899 206.183 280.88 206.19C280.594 206.455 280.318 206.644 280.051 206.757C279.928 206.782 279.733 206.923 279.467 207.18C279.023 207.783 278.447 208.114 277.74 208.175C277.571 208.196 277.447 208.233 277.368 208.285C277.161 208.409 276.849 208.506 276.434 208.577C275.866 208.684 275.405 208.751 275.049 208.777C274.713 208.795 274.423 208.746 274.179 208.629C273.395 208.344 272.79 208.166 272.365 208.097C271.941 208.061 271.467 207.85 270.943 207.464C270.635 207.239 270.205 206.895 269.651 206.433C269.37 206.22 269.142 205.887 268.968 205.433C268.778 205.053 268.619 204.782 268.49 204.621C268.206 204.254 267.98 203.854 267.813 203.42ZM272.858 200.603C272.866 200.622 272.882 200.65 272.906 200.684L272.943 200.737C273.175 201.168 273.5 201.541 273.92 201.856C273.981 201.899 274.127 202.02 274.358 202.219C274.599 202.414 274.79 202.551 274.931 202.63C275.159 202.819 275.441 202.849 275.779 202.719C276.502 202.353 276.971 201.946 277.186 201.498C277.258 201.338 277.367 201.091 277.516 200.758C277.674 200.42 277.789 200.171 277.86 200.011C277.92 199.878 277.915 199.708 277.847 199.501C277.747 199.241 277.694 199.046 277.689 198.915C277.651 198.586 277.479 198.282 277.172 198.001C276.91 197.781 276.702 197.6 276.549 197.46C275.979 196.926 275.477 196.527 275.043 196.262C274.784 196.106 274.512 196.089 274.226 196.21C273.962 196.356 273.771 196.451 273.655 196.495C273.376 196.603 273.165 196.673 273.022 196.705C272.754 196.786 272.577 196.943 272.489 197.176C272.266 197.604 272.196 197.969 272.278 198.269C272.281 198.335 272.277 198.441 272.268 198.589C272.264 198.723 272.26 198.813 272.255 198.859C272.249 199.016 272.268 199.181 272.312 199.352C272.352 199.514 272.399 199.651 272.453 199.763C272.503 199.865 272.575 200.009 272.668 200.195C272.758 200.371 272.821 200.507 272.858 200.603ZM271.508 201.669C271.222 200.694 271.042 199.878 270.966 199.221C270.956 199.136 270.97 198.971 271.008 198.724C271.024 198.651 271.046 198.549 271.073 198.417C271.109 198.281 271.139 198.186 271.163 198.133L271.387 197.117C271.38 197.098 271.467 196.849 271.648 196.37C271.785 196.062 271.896 195.76 271.98 195.462C272.119 195.043 272.409 194.777 272.852 194.662C273.014 194.622 273.249 194.571 273.557 194.508C273.864 194.445 274.07 194.405 274.174 194.387C274.403 194.321 274.704 194.355 275.077 194.489C275.456 194.642 275.995 194.878 276.693 195.197C277.095 195.408 277.387 195.578 277.569 195.707C277.798 195.841 278.011 196.063 278.208 196.375C278.398 196.756 278.55 197.035 278.662 197.213C278.828 197.471 278.922 197.744 278.944 198.034C278.958 198.184 279.006 198.426 279.09 198.759C279.149 198.913 279.223 199.134 279.311 199.421C279.399 199.708 279.472 199.929 279.532 200.083C279.639 200.363 279.646 200.654 279.551 200.956C279.362 201.703 279.085 202.308 278.72 202.769C278.35 203.276 277.857 203.648 277.239 203.885L276.116 204.117C276.012 204.135 275.855 204.157 275.643 204.182C275.442 204.205 275.288 204.208 275.183 204.193C274.528 204.246 273.95 204.096 273.45 203.746C272.931 203.403 272.582 203.083 272.402 202.787C272.345 202.698 272.183 202.534 271.914 202.294C271.716 202.126 271.581 201.918 271.508 201.669Z" fill="#FAFAFA"/>
<path d="M254.531 213.665C254.565 213.696 254.6 213.76 254.637 213.856C254.674 213.953 254.714 214.026 254.755 214.077C254.901 214.342 255.099 214.382 255.349 214.197C255.438 214.141 255.577 214.055 255.764 213.938C255.962 213.818 256.11 213.728 256.209 213.668C256.348 213.57 256.394 213.459 256.346 213.333C256.35 213.287 256.33 213.206 256.286 213.091C256.051 212.594 255.931 212.081 255.927 211.551C255.953 211.387 255.929 211.252 255.855 211.147C255.619 210.762 255.399 210.133 255.197 209.259C255.142 209.058 255.076 208.757 254.999 208.355C254.919 207.943 254.864 207.643 254.836 207.455L254.709 207.122C254.447 206.614 254.419 206.093 254.624 205.561C254.671 205.454 254.716 205.282 254.758 205.045C254.763 204.655 254.941 204.31 255.29 204.01C255.684 203.682 256.093 203.447 256.515 203.308C256.592 203.278 256.827 203.243 257.221 203.202L258.069 203.292C258.393 203.3 258.675 203.386 258.915 203.548C259.538 203.874 259.999 204.283 260.299 204.777C260.826 205.571 261.158 206.046 261.295 206.204C261.439 206.348 261.565 206.56 261.672 206.839C261.738 207.069 261.865 207.385 262.053 207.789C262.238 208.183 262.369 208.481 262.447 208.684C262.539 208.925 262.728 209.245 263.015 209.644C263.31 210.04 263.479 210.263 263.52 210.313C263.592 210.441 263.71 210.462 263.876 210.376C263.954 210.346 264.061 210.294 264.198 210.219C264.345 210.141 264.447 210.09 264.505 210.068C264.594 210.012 264.742 209.922 264.95 209.798C265.157 209.674 265.305 209.584 265.394 209.528C265.733 209.287 265.8 208.929 265.596 208.454C265.581 208.416 265.559 208.374 265.531 208.33C265.503 208.285 265.485 208.253 265.478 208.234L265.161 207.409C265.102 207.255 264.99 207.021 264.826 206.708C264.661 206.395 264.548 206.156 264.485 205.992C264.433 205.857 264.339 205.672 264.205 205.436C264.076 205.186 263.978 205.003 263.91 204.885C263.88 204.808 263.833 204.698 263.768 204.557C263.699 204.407 263.638 204.275 263.583 204.163C263.529 204.051 263.474 203.951 263.418 203.862C263.235 203.5 263.038 203.189 262.826 202.927C262.46 202.547 262.088 202.258 261.713 202.059C261.454 201.904 260.905 201.683 260.065 201.397C259.912 201.345 259.55 201.268 258.98 201.166C258.518 201.089 258.247 201.06 258.166 201.08C257.212 201.247 256.597 201.389 256.321 201.506L255.974 201.639C255.706 201.72 255.421 201.901 255.12 202.183C254.664 202.579 254.086 202.834 253.388 202.947C253.18 202.983 253.015 202.941 252.892 202.822C252.547 202.501 252.316 202.23 252.198 202.009C252.093 201.851 252.014 201.759 251.96 201.736C251.903 201.702 251.77 201.715 251.56 201.773C251.359 201.828 251.052 201.935 250.637 202.094C250.126 202.29 249.993 202.623 250.24 203.093C250.57 203.664 250.84 204.368 251.051 205.206L251.173 205.524C251.225 205.659 251.322 205.854 251.464 206.109C251.607 206.365 251.704 206.56 251.756 206.695L252.017 207.375L252.144 207.708C252.551 208.249 252.832 208.866 252.988 209.559C253.042 209.815 253.14 210.187 253.283 210.674C253.455 211.239 253.577 211.585 253.648 211.712C254.074 212.302 254.368 212.952 254.531 213.665ZM256.915 209.064C257.104 209.556 257.216 210.138 257.253 210.81C257.263 210.895 257.293 211.016 257.343 211.174C257.389 211.322 257.423 211.426 257.445 211.483L257.706 212.164C257.758 212.299 257.857 212.499 258.003 212.763C258.198 213.098 258.285 213.441 258.265 213.792C258.259 213.949 258.254 214.095 258.25 214.229C258.242 214.553 258.118 214.794 257.88 214.952C257.56 215.186 257.256 215.358 256.966 215.469C256.889 215.499 256.749 215.536 256.545 215.581C256.35 215.623 256.214 215.658 256.137 215.688L255.635 215.98C255.346 216.179 255.133 216.3 254.994 216.342C254.553 216.49 254.167 216.35 253.837 215.923C253.618 215.642 253.338 215.229 252.997 214.685C252.707 214.276 252.508 213.788 252.401 213.22L252.262 212.859C252.21 212.724 252.183 212.624 252.18 212.558C252.027 211.986 251.848 211.463 251.644 210.988C251.439 210.569 251.192 209.927 250.905 209.063C250.883 209.006 250.856 208.922 250.825 208.812C250.79 208.692 250.762 208.604 250.74 208.546C250.52 207.745 250.361 207.186 250.262 206.87C250.247 206.831 250.215 206.733 250.166 206.575C250.112 206.407 250.08 206.281 250.07 206.196C250.073 205.974 249.961 205.768 249.733 205.579C249.452 205.366 249.289 205.085 249.244 204.737L249.059 203.995C249.026 203.852 248.975 203.645 248.904 203.374C248.833 203.102 248.784 202.905 248.759 202.782C248.673 202.383 248.683 202.02 248.789 201.691C248.874 201.337 249.109 201.098 249.493 200.973C250.099 200.851 250.627 200.626 251.077 200.298C251.474 200.035 251.867 199.951 252.257 200.044C252.653 200.125 252.978 200.365 253.232 200.766C253.254 200.824 253.306 200.903 253.389 201.004C253.487 201.144 253.602 201.155 253.734 201.038C254.278 200.696 254.685 200.43 254.954 200.238C255.212 200.072 255.518 199.977 255.874 199.951C256.195 199.894 256.454 199.806 256.652 199.686C256.882 199.564 257.118 199.473 257.361 199.414C258.3 199.208 259.125 199.195 259.837 199.376C259.963 199.416 260.177 199.484 260.479 199.578C260.786 199.659 261.018 199.73 261.175 199.792C261.337 199.84 261.537 199.913 261.773 200.011C262.006 200.098 262.225 200.192 262.429 200.29C262.581 200.342 262.789 200.479 263.05 200.699C263.595 201.165 264 201.53 264.267 201.793C264.309 201.843 264.457 202.057 264.713 202.435C264.762 202.505 264.814 202.584 264.871 202.673C264.923 202.753 264.98 202.842 265.04 202.94C265.1 203.039 265.152 203.118 265.198 203.179C265.686 203.788 266.021 204.517 266.203 205.366C266.265 205.641 266.371 205.86 266.522 206.024C267.104 206.819 267.432 207.6 267.505 208.369C267.513 208.388 267.513 208.432 267.506 208.501C267.509 208.567 267.52 208.623 267.538 208.671C267.699 209.263 267.552 209.817 267.098 210.335C266.687 210.791 266.271 211.178 265.85 211.495C265.718 211.612 265.456 211.767 265.066 211.961C264.97 211.998 264.812 212.064 264.594 212.159C264.386 212.25 264.237 212.324 264.148 212.38C263.533 212.683 263.007 212.58 262.569 212.073C262.088 211.483 261.781 211.103 261.65 210.932C261.578 210.804 261.489 210.601 261.382 210.321C261.297 210.099 261.165 209.785 260.986 209.377C260.808 208.97 260.681 208.67 260.607 208.477C260.578 208.4 260.505 208.267 260.388 208.079C260.045 207.647 259.799 207.221 259.649 206.802C259.597 206.667 259.549 206.57 259.504 206.51C259.211 206.036 259.017 205.761 258.922 205.687C258.383 205.119 257.789 204.838 257.138 204.845C256.814 204.836 256.516 204.984 256.245 205.287C256.164 205.363 256.118 205.502 256.107 205.705C256.14 205.848 256.176 206.072 256.216 206.377C256.255 206.683 256.279 206.917 256.286 207.081C256.3 207.231 256.354 207.487 256.448 207.849C256.562 208.259 256.717 208.664 256.915 209.064Z" fill="#FAFAFA"/>
<path d="M244.007 218.817C244.318 218.731 244.634 218.576 244.958 218.352C245.413 218.067 245.776 217.745 246.048 217.386C246.072 217.332 246.134 217.264 246.235 217.181C246.7 216.748 247.067 216.248 247.335 215.68C247.364 215.58 247.418 215.432 247.497 215.236C247.788 214.582 247.895 213.937 247.818 213.303C247.695 212.033 247.542 211.085 247.357 210.459C247.291 210.229 247.165 210.018 246.98 209.823C246.8 209.615 246.652 209.401 246.534 209.181C246.014 208.229 245.485 207.558 244.948 207.167C244.879 207.104 244.77 206.992 244.618 206.828C244.407 206.566 244.28 206.422 244.236 206.394C243.873 205.969 243.475 205.723 243.04 205.658C242.628 205.594 242.264 205.496 241.948 205.363C241.741 205.287 241.457 205.297 241.095 205.392C240.796 205.506 240.461 205.541 240.089 205.496C239.997 205.487 239.843 205.502 239.625 205.541C238.739 205.77 238.231 205.888 238.101 205.894C237.726 205.927 237.347 206.094 236.965 206.396C236.814 206.52 236.656 206.614 236.492 206.677C236.034 206.897 235.725 207.187 235.565 207.548C235.522 207.609 235.462 207.698 235.385 207.816C235.309 207.934 235.235 208.045 235.165 208.15C235.104 208.25 235.052 208.359 235.008 208.475C234.917 208.643 234.835 208.818 234.761 209.002C234.755 209.159 234.73 209.396 234.685 209.712C234.641 210.028 234.601 210.27 234.566 210.438L234.489 211.796C234.476 212.166 234.544 212.876 234.693 213.925C234.715 214.216 234.809 214.489 234.975 214.747C235.324 215.31 235.583 215.958 235.753 216.689C235.844 217.042 235.989 217.302 236.186 217.469C236.447 217.69 236.67 217.981 236.853 218.342C237.089 218.727 237.352 218.964 237.64 219.053L238.015 219.208C238.5 219.519 239.256 219.788 240.283 220.014C240.383 220.042 240.839 220.105 241.651 220.203C242.043 220.273 242.352 220.155 242.577 219.847C242.901 219.335 243.377 218.992 244.007 218.817ZM233.406 216.627C233.373 216.485 233.31 216.249 233.217 215.92C233.133 215.587 233.075 215.349 233.043 215.206C232.969 215.013 232.902 214.868 232.842 214.769C232.654 214.453 232.567 214.083 232.581 213.657C232.599 213.473 232.617 213.189 232.636 212.806C232.664 212.419 232.672 212.122 232.66 211.917L232.615 211.021L232.759 209.538C232.776 209.465 232.864 209.249 233.025 208.888C233.105 208.636 233.255 208.263 233.475 207.769C233.61 207.285 233.838 206.927 234.158 206.693C234.15 206.674 234.156 206.661 234.175 206.653C234.312 206.49 234.544 206.23 234.871 205.872C235.199 205.514 235.438 205.228 235.589 205.015C235.853 204.637 236.196 204.406 236.617 204.322C236.912 204.253 237.433 204.141 238.182 203.987C238.201 203.979 238.246 203.967 238.318 203.951C238.389 203.935 238.449 203.917 238.497 203.899C238.784 203.811 239.094 203.797 239.427 203.857C239.657 203.88 239.825 203.87 239.931 203.83C240.349 203.736 240.73 203.733 241.074 203.823C241.348 203.873 241.764 203.862 242.324 203.791C243.227 203.666 243.993 203.859 244.621 204.37C244.64 204.363 244.654 204.369 244.661 204.388C244.872 204.65 245.243 204.995 245.772 205.423C246.298 205.84 246.664 206.176 246.872 206.428C247.185 206.784 247.411 207.14 247.548 207.497C247.573 207.62 247.659 207.758 247.807 207.912C248.076 208.152 248.336 208.583 248.586 209.207C248.638 209.342 248.737 209.542 248.883 209.807C249.007 209.958 249.1 210.171 249.162 210.447C249.187 210.57 249.224 210.738 249.272 210.952C249.318 211.156 249.359 211.35 249.397 211.535C249.431 211.71 249.46 211.887 249.484 212.066C249.509 212.189 249.533 212.495 249.555 212.985C249.558 213.05 249.558 213.194 249.555 213.417C249.548 213.63 249.553 213.788 249.571 213.892C249.625 214.436 249.545 214.964 249.333 215.477C249.242 215.645 249.123 215.896 248.974 216.229C248.958 216.302 248.923 216.371 248.871 216.435C248.738 216.552 248.597 216.761 248.447 217.062C248.307 217.36 248.205 217.543 248.143 217.611C248.112 217.645 248.018 217.775 247.861 218.001C247.714 218.224 247.606 218.387 247.535 218.492C247.47 218.583 247.359 218.697 247.202 218.835C247.054 218.969 246.907 219.076 246.76 219.154C246.729 219.188 246.675 219.237 246.6 219.299C246.534 219.357 246.491 219.39 246.472 219.398C246.186 219.662 245.91 219.851 245.644 219.965C245.52 219.99 245.326 220.131 245.059 220.388C244.615 220.99 244.04 221.322 243.333 221.383C243.163 221.404 243.039 221.44 242.96 221.493C242.753 221.617 242.441 221.714 242.026 221.785C241.458 221.892 240.997 221.959 240.642 221.984C240.305 222.003 240.015 221.954 239.771 221.837C238.987 221.552 238.382 221.374 237.957 221.305C237.533 221.268 237.059 221.057 236.535 220.672C236.228 220.447 235.797 220.103 235.243 219.641C234.962 219.428 234.734 219.095 234.56 218.641C234.37 218.261 234.211 217.99 234.082 217.829C233.798 217.462 233.572 217.062 233.406 216.627ZM238.45 213.811C238.458 213.83 238.474 213.857 238.498 213.892L238.535 213.945C238.767 214.376 239.093 214.749 239.512 215.064C239.573 215.107 239.719 215.228 239.95 215.427C240.191 215.622 240.382 215.759 240.523 215.838C240.751 216.027 241.033 216.057 241.371 215.927C242.094 215.561 242.563 215.154 242.778 214.706C242.85 214.546 242.96 214.299 243.108 213.965C243.266 213.628 243.381 213.379 243.452 213.219C243.512 213.086 243.508 212.916 243.439 212.709C243.339 212.449 243.287 212.253 243.281 212.123C243.243 211.794 243.071 211.49 242.764 211.209C242.502 210.989 242.295 210.808 242.141 210.668C241.571 210.134 241.069 209.735 240.635 209.47C240.376 209.314 240.104 209.297 239.819 209.418C239.554 209.564 239.363 209.659 239.248 209.703C238.968 209.811 238.757 209.881 238.614 209.913C238.346 209.994 238.169 210.151 238.081 210.384C237.858 210.812 237.788 211.177 237.87 211.477C237.873 211.543 237.869 211.649 237.86 211.797C237.856 211.931 237.852 212.021 237.847 212.067C237.841 212.224 237.86 212.389 237.904 212.56C237.944 212.722 237.991 212.859 238.045 212.971C238.095 213.073 238.167 213.217 238.26 213.403C238.35 213.578 238.413 213.715 238.45 213.811ZM237.1 214.877C236.814 213.902 236.634 213.086 236.558 212.429C236.548 212.344 236.562 212.179 236.6 211.932C236.616 211.859 236.638 211.757 236.665 211.625C236.701 211.489 236.731 211.394 236.755 211.341L236.979 210.325C236.972 210.306 237.059 210.057 237.24 209.577C237.377 209.27 237.488 208.968 237.572 208.67C237.711 208.251 238.001 207.985 238.444 207.87C238.606 207.83 238.841 207.779 239.149 207.716C239.457 207.653 239.662 207.613 239.766 207.595C239.996 207.529 240.296 207.563 240.669 207.697C241.048 207.85 241.587 208.086 242.285 208.405C242.687 208.616 242.979 208.786 243.162 208.915C243.39 209.048 243.603 209.271 243.8 209.583C243.99 209.964 244.142 210.243 244.254 210.421C244.42 210.679 244.514 210.952 244.536 211.242C244.55 211.392 244.598 211.634 244.682 211.967C244.741 212.121 244.815 212.342 244.903 212.629C244.991 212.916 245.065 213.137 245.124 213.291C245.231 213.571 245.238 213.862 245.143 214.164C244.954 214.911 244.677 215.516 244.312 215.977C243.942 216.484 243.449 216.856 242.831 217.093L241.708 217.325C241.604 217.343 241.447 217.365 241.235 217.39C241.034 217.413 240.88 217.416 240.775 217.401C240.12 217.453 239.542 217.304 239.042 216.954C238.523 216.611 238.174 216.291 237.994 215.995C237.937 215.906 237.775 215.742 237.506 215.502C237.308 215.334 237.173 215.126 237.1 214.877Z" fill="#FAFAFA"/>
<path d="M223.401 225.681C223.404 225.458 223.395 225.29 223.373 225.177C223.321 224.81 223.219 224.428 223.067 224.033C222.771 222.973 222.562 222.328 222.44 222.098C222.392 222.029 222.347 221.913 222.307 221.751C222.263 221.58 222.234 221.475 222.219 221.436C222.154 221.207 222.043 220.89 221.887 220.484C221.777 220.139 221.744 219.593 221.789 218.845C221.779 218.761 221.822 218.656 221.918 218.531C221.973 218.443 222.063 218.32 222.19 218.16C222.323 217.987 222.405 217.884 222.437 217.85C222.63 217.576 222.901 217.373 223.248 217.239L223.841 217.012C224.365 216.789 224.93 216.777 225.537 216.975C226.116 217.185 226.74 217.758 227.41 218.697L227.421 218.726C227.526 218.884 227.672 219.133 227.857 219.471C228.206 220.035 228.556 220.774 228.908 221.691C229.126 222.26 229.363 222.761 229.618 223.195C229.674 223.284 229.743 223.434 229.825 223.647L230.389 223.43L231.156 223.136C231.459 222.975 231.586 222.771 231.536 222.525C231.414 222.207 231.257 221.741 231.066 221.128C230.877 220.636 230.606 219.871 230.252 218.834C230.1 218.439 230.006 218.137 229.971 217.929C229.941 217.708 229.839 217.471 229.664 217.217C229.502 217.025 229.336 216.707 229.165 216.263C229.091 216.07 229.018 215.938 228.946 215.866C228.621 215.537 228.135 215.065 227.49 214.449C227.213 214.19 226.882 214.035 226.497 213.984C226.451 213.979 226.369 213.966 226.25 213.946C226.141 213.921 226.062 213.902 226.012 213.888C225.242 213.641 224.545 213.626 223.92 213.844C223.824 213.881 223.753 213.897 223.707 213.893C223.436 213.908 222.914 214.12 222.141 214.527C222.044 214.564 221.953 214.643 221.867 214.765C221.812 214.852 221.715 214.989 221.576 215.175C221.443 215.348 221.335 215.484 221.251 215.582C221.177 215.677 221.088 215.85 220.984 216.1C220.961 216.153 220.934 216.257 220.905 216.412C220.882 216.554 220.859 216.652 220.835 216.705C220.624 217.107 220.528 217.62 220.546 218.244C220.549 218.309 220.549 218.397 220.548 218.508C220.546 218.62 220.54 218.689 220.528 218.715C220.428 219.119 220.179 219.364 219.781 219.45C219.536 219.478 219.317 219.424 219.121 219.289C218.921 219.144 218.798 218.953 218.752 218.716C218.582 217.985 218.165 217.547 217.501 217.404C216.448 217.199 215.53 217.258 214.747 217.581C214.327 217.786 214.056 218.045 213.933 218.358C213.677 218.932 213.232 219.374 212.599 219.684C211.876 220.05 211.348 219.915 211.016 219.279C210.989 219.267 210.963 219.227 210.937 219.16C210.911 219.092 210.889 219.034 210.87 218.986C210.755 218.687 210.535 218.561 210.21 218.609C209.597 218.711 209.188 218.857 208.984 219.046C208.883 219.129 208.822 219.186 208.8 219.216C208.779 219.247 208.767 219.29 208.767 219.345C208.766 219.401 208.8 219.46 208.868 219.522C208.875 219.542 208.891 219.569 208.916 219.604C208.94 219.638 208.96 219.675 208.975 219.714C209.112 220.071 209.225 220.337 209.315 220.513C209.585 220.929 209.758 221.35 209.832 221.775L210.004 222.224C210.056 222.359 210.143 222.569 210.263 222.855C210.38 223.131 210.467 223.341 210.522 223.486C210.586 223.594 210.658 223.755 210.74 223.967L211.018 224.69L211.301 225.428C211.345 225.544 211.423 225.719 211.535 225.952C211.643 226.176 211.739 226.383 211.823 226.572C211.903 226.752 211.975 226.924 212.038 227.088C212.204 227.522 212.389 227.888 212.592 228.186L212.642 228.317C212.749 228.596 213.131 229.23 213.787 230.218C213.933 230.483 214.169 230.564 214.494 230.461L215.146 230.211C215.367 230.126 215.444 229.98 215.376 229.774C215.366 229.689 215.343 229.571 215.306 229.419C215.276 229.253 215.246 229.132 215.216 229.055C215.051 228.277 214.793 227.707 214.443 227.343C214.125 227.033 214.003 226.615 214.078 226.089C214.125 225.75 214.039 225.412 213.821 225.075C213.7 224.845 213.607 224.604 213.544 224.351C213.504 224.19 213.462 223.923 213.42 223.552C213.377 223.181 213.335 222.915 213.296 222.753C213.137 221.995 213.391 221.388 214.058 220.933C214.128 220.884 214.213 220.818 214.314 220.735C214.424 220.649 214.509 220.594 214.567 220.572C214.949 220.27 215.328 220.075 215.703 219.986C216.159 219.878 216.621 219.927 217.088 220.135C217.799 220.516 218.244 220.882 218.423 221.233C218.527 221.448 218.716 221.724 218.99 222.062C219.223 222.381 219.365 222.692 219.414 222.994C219.45 223.202 219.598 223.588 219.859 224.152C219.873 224.19 219.941 224.336 220.06 224.589C220.175 224.833 220.231 224.977 220.226 225.023L220.869 226.437C220.94 226.565 221.054 226.604 221.212 226.554C221.27 226.532 221.355 226.494 221.467 226.44C221.589 226.382 221.688 226.338 221.766 226.308L222.475 226.036L223.401 225.681ZM219.137 216.261C219.327 216.033 219.474 215.739 219.578 215.378C219.667 215.089 219.893 214.698 220.257 214.204C220.434 214.003 220.687 213.812 221.016 213.631C221.19 213.564 221.315 213.472 221.391 213.354C221.751 212.994 222.188 212.749 222.703 212.618C222.806 212.6 222.955 212.554 223.148 212.48C223.35 212.402 223.508 212.353 223.622 212.331C224.124 212.227 224.673 212.243 225.268 212.38C225.413 212.413 225.648 212.434 225.972 212.442C226.407 212.452 226.787 212.533 227.111 212.685C227.915 212.963 228.57 213.271 229.076 213.608C229.515 213.915 229.83 214.248 230.023 214.606C230.157 214.897 230.352 215.16 230.608 215.394C230.642 215.425 230.688 215.474 230.747 215.54C230.802 215.596 230.846 215.64 230.88 215.671C231.122 215.955 231.246 216.278 231.252 216.641C231.242 216.844 231.355 217.254 231.592 217.871C231.629 217.968 231.69 218.111 231.773 218.3C231.853 218.48 231.908 218.608 231.938 218.685C232.101 219.054 232.289 219.629 232.501 220.411C232.518 220.515 232.567 220.641 232.645 220.788C232.72 220.925 232.768 221.022 232.791 221.08C232.82 221.157 232.869 221.299 232.937 221.505C233.002 221.702 233.051 221.844 233.084 221.931C233.099 221.969 233.12 222.039 233.147 222.139C233.175 222.239 233.199 222.318 233.222 222.376C233.32 222.747 233.331 223.108 233.255 223.458C233.156 223.862 232.886 224.126 232.447 224.25C232.324 224.275 232.155 224.34 231.941 224.445C231.726 224.549 231.59 224.612 231.532 224.635C231.393 224.732 231.279 224.798 231.193 224.831C230.571 225.114 230.125 225.308 229.855 225.411C229.447 225.59 229.104 225.517 228.824 225.193C228.503 224.818 228.303 224.496 228.222 224.229C227.933 223.476 227.679 222.943 227.459 222.629C227.374 222.495 227.317 222.346 227.286 222.18C226.977 221.259 226.742 220.646 226.581 220.343C226.51 220.215 226.409 220.01 226.279 219.728C226.148 219.446 226.079 219.296 226.072 219.277C225.942 218.939 225.709 218.735 225.373 218.665C225.3 218.649 225.204 218.63 225.085 218.609C224.973 218.575 224.869 218.549 224.773 218.53C224.677 218.512 224.579 218.5 224.477 218.494C224.259 218.445 224.067 218.508 223.901 218.682C223.87 218.716 223.822 218.762 223.756 218.821C223.69 218.88 223.641 218.926 223.61 218.96C223.446 219.111 223.374 219.311 223.391 219.559C223.399 219.578 223.418 219.67 223.448 219.836C223.474 219.991 223.503 220.108 223.532 220.185C223.922 221.375 224.137 222.05 224.177 222.212C224.188 222.296 224.29 222.506 224.485 222.841C224.556 222.968 224.665 223.281 224.812 223.778C224.832 223.947 224.893 224.106 224.995 224.255C225.355 224.848 225.578 225.487 225.665 226.173C225.765 226.954 225.439 227.372 224.686 227.429C224.253 227.484 223.888 227.569 223.588 227.684C223.434 227.743 223.018 227.842 222.341 227.98C222.198 228.013 221.988 228.071 221.711 228.156C221.443 228.236 221.237 228.304 221.092 228.36C220.612 228.522 220.235 228.418 219.96 228.048C219.43 227.388 219.107 226.764 218.993 226.178C218.96 226.035 218.888 225.803 218.775 225.481C218.711 225.373 218.622 225.197 218.506 224.953C218.4 224.706 218.325 224.525 218.281 224.409C218.12 224.105 217.998 223.903 217.915 223.802C217.572 223.37 217.314 222.843 217.143 222.223C217.063 221.844 216.825 221.642 216.429 221.617C215.883 221.55 215.442 221.785 215.106 222.324C214.992 222.545 214.962 222.944 215.018 223.52C215.038 223.689 215.069 223.827 215.11 223.933C215.232 224.251 215.285 224.563 215.269 224.868C215.25 225.163 215.321 225.434 215.482 225.682C215.662 225.978 215.797 226.27 215.885 226.557C215.953 226.852 216.087 227.171 216.286 227.516C216.384 227.655 216.531 227.881 216.728 228.192C216.925 228.504 217.069 228.748 217.158 228.924C217.405 229.393 217.486 229.894 217.402 230.424C217.296 230.985 216.96 231.319 216.392 231.426C216.192 231.481 215.887 231.609 215.477 231.81C215.33 231.889 215.111 231.995 214.819 232.129C214.537 232.259 214.318 232.366 214.162 232.448C213.581 232.693 213.123 232.553 212.789 232.029C212.718 231.901 212.579 231.683 212.372 231.375C212.175 231.064 212.015 230.793 211.894 230.563C211.769 230.323 211.669 230.079 211.596 229.83C211.552 229.715 211.471 229.563 211.355 229.375C211.235 229.178 211.164 229.05 211.142 228.992C211.127 228.954 211.103 228.907 211.072 228.853C211.036 228.789 211.011 228.738 210.996 228.699C210.676 227.981 210.429 227.511 210.256 227.29C210.083 227.013 210.001 226.713 210.009 226.389C209.972 226.06 209.865 225.752 209.688 225.466C209.237 224.577 208.922 223.757 208.744 223.006L208.55 222.5C208.386 222.131 208.227 221.572 208.072 220.824L207.92 220.168L207.611 218.843C207.478 218.44 207.643 218.061 208.105 217.707C208.656 217.241 209.171 216.91 209.65 216.715C210.057 216.537 210.511 216.451 211.012 216.458C211.363 216.478 211.626 216.66 211.802 217.002C211.816 217.04 211.833 217.084 211.852 217.132C211.87 217.18 211.895 217.215 211.925 217.237C212.042 217.369 212.162 217.378 212.284 217.265C212.597 217.012 212.863 216.738 213.082 216.444C213.404 216.044 213.79 215.84 214.241 215.833C214.57 215.795 214.913 215.708 215.27 215.571C215.424 215.511 215.575 215.487 215.723 215.496C215.945 215.5 216.285 215.519 216.741 215.554C217.193 215.579 217.535 215.603 217.765 215.626C218.219 215.628 218.593 215.795 218.886 216.125C218.92 216.156 218.964 216.184 219.017 216.207C219.028 216.236 219.068 216.254 219.137 216.261Z" fill="#FAFAFA"/>
</svg>
