<svg width="124" height="124" viewBox="0 0 124 124" fill="none" xmlns="http://www.w3.org/2000/svg">
<path d="M83.9209 120C77.0964 122.585 69.6969 124 61.9668 124C54.2367 124 46.8372 122.585 40.0127 120H83.9209ZM98.6328 112C96.6578 113.451 94.5937 114.787 92.4502 116H31.4834C29.3399 114.787 27.2758 113.451 25.3008 112H98.6328ZM107.573 104C106.289 105.394 104.942 106.729 103.536 108H20.3975C18.9916 106.729 17.6446 105.394 16.3604 104H107.573ZM113.82 96C112.919 97.3723 111.964 98.7065 110.959 100H12.9746C11.9698 98.7065 11.0149 97.3723 10.1133 96H113.82ZM118.268 88C117.638 89.3608 116.96 90.6947 116.237 92H7.69629C6.9732 90.6947 6.2955 89.3608 5.66602 88H118.268ZM121.312 80C120.903 81.3535 120.448 82.6874 119.949 84H3.98438C3.48606 82.6874 3.03108 81.3535 2.62109 80H121.312ZM123.163 72C122.944 73.3484 122.683 74.6823 122.379 76H1.55469C1.25054 74.6823 0.98916 73.3484 0.770508 72H123.163ZM123.934 64C123.891 65.3446 123.806 66.6783 123.679 68H0.254883C0.127962 66.6783 0.0426126 65.3446 0 64H123.934ZM123.679 56C123.806 57.3217 123.891 58.6554 123.934 60H0C0.0426126 58.6554 0.127962 57.3217 0.254883 56H123.679ZM122.379 48C122.683 49.3177 122.944 50.6516 123.163 52H0.770508C0.98916 50.6516 1.25054 49.3177 1.55469 48H122.379ZM119.949 40C120.448 41.3126 120.903 42.6465 121.312 44H2.62109C3.03108 42.6465 3.48606 41.3126 3.98438 40H119.949ZM116.237 32C116.96 33.3053 117.638 34.6392 118.268 36H5.66602C6.2955 34.6392 6.9732 33.3053 7.69629 32H116.237ZM110.959 24C111.964 25.2935 112.919 26.6277 113.82 28H10.1133C11.0149 26.6277 11.9698 25.2935 12.9746 24H110.959ZM103.536 16C104.942 17.2712 106.289 18.6062 107.573 20H16.3604C17.6446 18.6062 18.9916 17.2712 20.3975 16H103.536ZM92.4502 8C94.5937 9.21264 96.6578 10.5492 98.6328 12H25.3008C27.2758 10.5492 29.3399 9.21264 31.4834 8H92.4502ZM61.9668 0C69.6969 0 77.0964 1.41542 83.9209 4H40.0127C46.8372 1.41542 54.2367 0 61.9668 0Z" fill="#1A1A1A"/>
<path d="M32.5557 112C41.179 117.083 51.2322 120 61.9668 120C62.3008 120 62.6341 119.996 62.9668 119.99V120H83.9209C77.0964 122.585 69.6969 124 61.9668 124C48.2478 124 35.5701 119.543 25.3008 112H32.5557ZM107.573 104C103.203 108.743 98.1027 112.802 92.4502 116H83.1738C90.2145 113.233 96.5831 109.129 101.967 104H107.573ZM14.9736 96C18.2639 100.54 22.1952 104.584 26.6357 108H20.3975C16.4827 104.46 13.0222 100.427 10.1133 96H14.9736ZM118.268 88C116.284 92.2875 113.825 96.3098 110.959 100H105.785C108.938 96.3677 111.646 92.3396 113.826 88H118.268ZM6.81445 80C8.19578 84.2352 10.0513 88.2561 12.3184 92H7.69629C5.60443 88.2239 3.89529 84.2066 2.62109 80H6.81445ZM123.163 72C122.49 76.1528 121.404 80.1672 119.949 84H115.648C117.213 80.1867 118.382 76.1697 119.106 72H123.163ZM4.00195 64C4.1417 68.1238 4.71174 72.1381 5.66895 76H1.55469C0.660588 72.1262 0.13037 68.1137 0 64H4.00195ZM123.678 56C123.867 57.9745 123.967 59.9758 123.967 62C123.967 64.0242 123.868 66.0255 123.679 68H119.659C119.862 66.0276 119.967 64.026 119.967 62C119.967 59.974 119.861 57.9724 119.658 56H123.678ZM5.66895 48C4.71174 51.8619 4.1417 55.8762 4.00195 60H0C0.13037 55.8863 0.660588 51.8738 1.55469 48H5.66895ZM119.948 40C121.403 43.8328 122.489 47.8471 123.162 52H119.106C118.382 47.8301 117.211 43.8135 115.646 40H119.948ZM12.3184 32C10.0513 35.7439 8.19578 39.7648 6.81445 44H2.62109C3.89529 39.7934 5.60443 35.7761 7.69629 32H12.3184ZM110.957 24C113.824 27.6902 116.282 31.7125 118.266 36H113.824C111.644 31.6606 108.937 27.6322 105.784 24H110.957ZM26.6357 16C22.1952 19.4157 18.2639 23.4603 14.9736 28H10.1133C13.0222 23.5725 16.4827 19.5399 20.3975 16H26.6357ZM92.4502 8C98.1022 11.1975 103.201 15.2576 107.571 20H101.966C96.5823 14.8715 90.2142 10.7671 83.1738 8H92.4502ZM61.9668 0C69.6969 0 77.0964 1.41542 83.9209 4H62.9668V4.00879C62.6341 4.00317 62.3008 4 61.9668 4C51.2322 4 41.179 6.91661 32.5557 12H25.3008C35.5701 4.4566 48.2478 0 61.9668 0Z" fill="#1A1A1A"/>
</svg>
